<ttFont>
    <TTGlyph name=".ttfautohint" xMin="0" yMin="0" xMax="0" yMax="0">
      <contour>
        <pt x="0" y="0" on="1"/>
      </contour>
    </TTGlyph>
    <TTGlyph name="A" xMin="3" yMin="-8" xMax="615" yMax="706">
      <contour>
        <pt x="615" y="0" on="1"/>
        <pt x="421" y="0" on="1"/>
        <pt x="398" y="24" on="1"/>
        <pt x="476" y="46" on="1"/>
        <pt x="445" y="187" on="1"/>
        <pt x="421" y="233" on="1"/>
        <pt x="173" y="202" on="1"/>
        <pt x="157" y="148" on="1"/>
        <pt x="142" y="46" on="1"/>
        <pt x="204" y="24" on="1"/>
        <pt x="204" y="-8" on="1"/>
        <pt x="3" y="7" on="1"/>
        <pt x="3" y="39" on="1"/>
        <pt x="64" y="54" on="1"/>
        <pt x="250" y="706" on="1"/>
        <pt x="359" y="690" on="1"/>
        <pt x="554" y="54" on="1"/>
        <pt x="608" y="39" on="1"/>
      </contour>
      <contour>
        <pt x="398" y="302" on="1"/>
        <pt x="313" y="613" on="1"/>
        <pt x="298" y="605" on="1"/>
        <pt x="196" y="280" on="1"/>
        <pt x="196" y="263" on="1"/>
      </contour>
    </TTGlyph>
    <TTGlyph name="AE" xMin="0" yMin="-5" xMax="774" yMax="708">
      <contour>
        <pt x="404" y="606" on="1"/>
        <pt x="304" y="590" on="1"/>
        <pt x="210" y="274" on="1"/>
        <pt x="213" y="252" on="1"/>
        <pt x="412" y="310" on="1"/>
      </contour>
      <contour>
        <pt x="537" y="0" on="1"/>
        <pt x="405" y="9" on="1"/>
        <pt x="418" y="55" on="1"/>
        <pt x="413" y="228" on="1"/>
        <pt x="171" y="177" on="1"/>
        <pt x="162" y="136" on="1"/>
        <pt x="142" y="49" on="1"/>
        <pt x="205" y="31" on="1"/>
        <pt x="210" y="0" on="1"/>
        <pt x="5" y="2" on="1"/>
        <pt x="0" y="32" on="1"/>
        <pt x="62" y="54" on="1"/>
        <pt x="261" y="708" on="1"/>
        <pt x="465" y="688" on="1"/>
        <pt x="758" y="681" on="1"/>
        <pt x="759" y="555" on="1"/>
        <pt x="709" y="557" on="1"/>
        <pt x="695" y="618" on="1"/>
        <pt x="497" y="619" on="1"/>
        <pt x="479" y="595" on="1"/>
        <pt x="484" y="387" on="1"/>
        <pt x="717" y="367" on="1"/>
        <pt x="708" y="323" on="1"/>
        <pt x="487" y="318" on="1"/>
        <pt x="484" y="238" on="1"/>
        <pt x="533" y="74" on="1"/>
        <pt x="713" y="63" on="1"/>
        <pt x="724" y="143" on="1"/>
        <pt x="773" y="147" on="1"/>
        <pt x="774" y="-5" on="1"/>
      </contour>
    </TTGlyph>
    <TTGlyph name="Aacute" xMin="3" yMin="-8" xMax="615" yMax="889">
      <component glyphName=".ttfautohint" x="3" y="0" flags="0x0"/>
      <component glyphName="A" x="0" y="0" flags="0x204"/>
      <component glyphName="acute" x="281" y="180" flags="0x4"/>
    </TTGlyph>
    <TTGlyph name="Abreve" xMin="3" yMin="-8" xMax="615" yMax="899">
      <component glyphName=".ttfautohint" x="3" y="0" flags="0x0"/>
      <component glyphName="A" x="0" y="0" flags="0x204"/>
      <component glyphName="breve" x="131" y="170" flags="0x4"/>
    </TTGlyph>
    <TTGlyph name="Acircumflex" xMin="3" yMin="-8" xMax="615" yMax="885">
      <component glyphName=".ttfautohint" x="3" y="0" flags="0x0"/>
      <component glyphName="A" x="0" y="0" flags="0x204"/>
      <component glyphName="circumflex" x="148" y="160" flags="0x4"/>
    </TTGlyph>
    <TTGlyph name="Adieresis" xMin="3" yMin="-8" xMax="615" yMax="844">
      <component glyphName=".ttfautohint" x="3" y="0" flags="0x0"/>
      <component glyphName="A" x="0" y="0" flags="0x204"/>
      <component glyphName="dieresis" x="164" y="150" flags="0x4"/>
    </TTGlyph>
    <TTGlyph name="Agrave" xMin="3" yMin="-8" xMax="615" yMax="890">
      <component glyphName=".ttfautohint" x="3" y="0" flags="0x0"/>
      <component glyphName="A" x="0" y="0" flags="0x204"/>
      <component glyphName="grave" x="191" y="180" flags="0x4"/>
    </TTGlyph>
    <TTGlyph name="Amacron" xMin="3" yMin="-8" xMax="615" yMax="824">
      <component glyphName=".ttfautohint" x="3" y="0" flags="0x0"/>
      <component glyphName="A" x="0" y="0" flags="0x204"/>
      <component glyphName="macron" x="183" y="160" flags="0x4"/>
    </TTGlyph>
    <TTGlyph name="Aogonek" xMin="3" yMin="-199" xMax="616" yMax="706">
      <component glyphName=".ttfautohint" x="3" y="0" flags="0x0"/>
      <component glyphName="A" x="0" y="0" flags="0x204"/>
      <component glyphName="ogonek" x="411" y="0" flags="0x4"/>
    </TTGlyph>
    <TTGlyph name="Aring" xMin="0" yMin="-12" xMax="616" yMax="842">
      <contour>
        <pt x="353" y="842" on="1"/>
        <pt x="395" y="795" on="1"/>
        <pt x="387" y="701" on="1"/>
        <pt x="360" y="689" on="1"/>
        <pt x="550" y="50" on="1"/>
        <pt x="609" y="40" on="1"/>
        <pt x="616" y="1" on="1"/>
        <pt x="416" y="-2" on="1"/>
        <pt x="398" y="22" on="1"/>
        <pt x="461" y="44" on="1"/>
        <pt x="431" y="178" on="1"/>
        <pt x="409" y="213" on="1"/>
        <pt x="167" y="186" on="1"/>
        <pt x="157" y="147" on="1"/>
        <pt x="139" y="42" on="1"/>
        <pt x="198" y="19" on="1"/>
        <pt x="202" y="-12" on="1"/>
        <pt x="2" y="5" on="1"/>
        <pt x="0" y="36" on="1"/>
        <pt x="60" y="54" on="1"/>
        <pt x="248" y="692" on="1"/>
        <pt x="229" y="706" on="1"/>
        <pt x="220" y="777" on="1"/>
        <pt x="259" y="839" on="1"/>
      </contour>
      <contour>
        <pt x="388" y="294" on="1"/>
        <pt x="314" y="596" on="1"/>
        <pt x="296" y="589" on="1"/>
        <pt x="203" y="281" on="1"/>
        <pt x="206" y="259" on="1"/>
      </contour>
      <contour>
        <pt x="280" y="797" on="1"/>
        <pt x="271" y="739" on="1"/>
        <pt x="296" y="710" on="1"/>
        <pt x="336" y="719" on="1"/>
        <pt x="354" y="772" on="1"/>
        <pt x="326" y="803" on="1"/>
      </contour>
    </TTGlyph>
    <TTGlyph name="Atilde" xMin="3" yMin="-8" xMax="615" yMax="864">
      <component glyphName=".ttfautohint" x="3" y="0" flags="0x0"/>
      <component glyphName="A" x="0" y="0" flags="0x204"/>
      <component glyphName="tilde" x="158" y="160" flags="0x4"/>
    </TTGlyph>
    <TTGlyph name="B" xMin="30" yMin="0" xMax="552" yMax="700">
      <contour>
        <pt x="472" y="164" on="1"/>
        <pt x="467" y="259" on="1"/>
        <pt x="374" y="344" on="1"/>
        <pt x="234" y="318" on="1"/>
        <pt x="218" y="305" on="1"/>
        <pt x="212" y="89" on="1"/>
        <pt x="236" y="70" on="1"/>
        <pt x="378" y="76" on="1"/>
      </contour>
      <contour>
        <pt x="208" y="616" on="1"/>
        <pt x="216" y="411" on="1"/>
        <pt x="227" y="391" on="1"/>
        <pt x="369" y="422" on="1"/>
        <pt x="454" y="497" on="1"/>
        <pt x="391" y="631" on="1"/>
        <pt x="246" y="629" on="1"/>
      </contour>
      <contour>
        <pt x="552" y="154" on="1"/>
        <pt x="430" y="0" on="1"/>
        <pt x="143" y="6" on="1"/>
        <pt x="143" y="6" on="1"/>
        <pt x="35" y="7" on="1"/>
        <pt x="30" y="40" on="1"/>
        <pt x="142" y="59" on="1"/>
        <pt x="125" y="634" on="1"/>
        <pt x="39" y="663" on="1"/>
        <pt x="32" y="696" on="1"/>
        <pt x="147" y="696" on="1"/>
        <pt x="148" y="696" on="1"/>
        <pt x="288" y="700" on="1"/>
        <pt x="446" y="680" on="1"/>
        <pt x="531" y="478" on="1"/>
        <pt x="432" y="373" on="1"/>
        <pt x="509" y="320" on="1"/>
      </contour>
    </TTGlyph>
    <TTGlyph name="C" xMin="45" yMin="-22" xMax="480" yMax="737">
      <contour>
        <pt x="425" y="70" on="1"/>
        <pt x="457" y="-6" on="1"/>
        <pt x="216" y="-22" on="1"/>
        <pt x="61" y="79" on="1"/>
        <pt x="45" y="529" on="1"/>
        <pt x="162" y="698" on="1"/>
        <pt x="356" y="737" on="1"/>
        <pt x="480" y="653" on="1"/>
        <pt x="356" y="489" on="1"/>
        <pt x="326" y="512" on="1"/>
        <pt x="387" y="628" on="1"/>
        <pt x="333" y="676" on="1"/>
        <pt x="201" y="645" on="1"/>
        <pt x="147" y="505" on="1"/>
        <pt x="147" y="117" on="1"/>
        <pt x="239" y="62" on="1"/>
      </contour>
    </TTGlyph>
    <TTGlyph name="Cacute" xMin="45" yMin="-22" xMax="480" yMax="899">
      <component glyphName=".ttfautohint" x="45" y="0" flags="0x0"/>
      <component glyphName="C" x="0" y="0" flags="0x204"/>
      <component glyphName="acute" x="219" y="190" flags="0x4"/>
    </TTGlyph>
    <TTGlyph name="Ccaron" xMin="45" yMin="-22" xMax="480" yMax="905">
      <component glyphName=".ttfautohint" x="45" y="0" flags="0x0"/>
      <component glyphName="C" x="0" y="0" flags="0x204"/>
      <component glyphName="caron" x="96" y="180" flags="0x4"/>
    </TTGlyph>
    <TTGlyph name="Ccedilla" xMin="45" yMin="-199" xMax="480" yMax="737">
      <component glyphName=".ttfautohint" x="45" y="0" flags="0x0"/>
      <component glyphName="C" x="0" y="0" flags="0x204"/>
      <component glyphName="cedilla" x="159" y="0" flags="0x4"/>
    </TTGlyph>
    <TTGlyph name="D" xMin="30" yMin="-8" xMax="626" yMax="705">
      <contour>
        <pt x="547" y="456" on="1"/>
        <pt x="415" y="604" on="1"/>
        <pt x="304" y="631" on="1"/>
        <pt x="230" y="611" on="1"/>
        <pt x="224" y="93" on="1"/>
        <pt x="415" y="74" on="1"/>
        <pt x="536" y="213" on="1"/>
      </contour>
      <contour>
        <pt x="626" y="473" on="1"/>
        <pt x="594" y="152" on="1"/>
        <pt x="434" y="-8" on="1"/>
        <pt x="180" y="10" on="1"/>
        <pt x="30" y="7" on="1"/>
        <pt x="33" y="38" on="1"/>
        <pt x="141" y="63" on="1"/>
        <pt x="145" y="637" on="1"/>
        <pt x="75" y="664" on="1"/>
        <pt x="79" y="700" on="1"/>
        <pt x="178" y="705" on="1"/>
        <pt x="426" y="686" on="1"/>
      </contour>
    </TTGlyph>
    <TTGlyph name="Dcaron" xMin="30" yMin="-8" xMax="626" yMax="885">
      <component glyphName=".ttfautohint" x="30" y="0" flags="0x0"/>
      <component glyphName="D" x="0" y="0" flags="0x204"/>
      <component glyphName="caron" x="148" y="160" flags="0x4"/>
    </TTGlyph>
    <TTGlyph name="Dcroat" xMin="30" yMin="-8" xMax="626" yMax="705">
      <contour>
        <pt x="626" y="473" on="1"/>
        <pt x="594" y="152" on="1"/>
        <pt x="434" y="-8" on="1"/>
        <pt x="180" y="10" on="1"/>
        <pt x="30" y="7" on="1"/>
        <pt x="33" y="38" on="1"/>
        <pt x="141" y="63" on="1"/>
        <pt x="143" y="335" on="1"/>
        <pt x="67" y="335" on="1"/>
        <pt x="63" y="394" on="1"/>
        <pt x="143" y="392" on="1"/>
        <pt x="145" y="637" on="1"/>
        <pt x="75" y="664" on="1"/>
        <pt x="79" y="700" on="1"/>
        <pt x="178" y="705" on="1"/>
        <pt x="426" y="686" on="1"/>
      </contour>
      <contour>
        <pt x="547" y="456" on="1"/>
        <pt x="415" y="604" on="1"/>
        <pt x="304" y="631" on="1"/>
        <pt x="230" y="611" on="1"/>
        <pt x="227" y="391" on="1"/>
        <pt x="312" y="390" on="1"/>
        <pt x="308" y="332" on="1"/>
        <pt x="227" y="334" on="1"/>
        <pt x="224" y="93" on="1"/>
        <pt x="415" y="74" on="1"/>
        <pt x="536" y="213" on="1"/>
      </contour>
    </TTGlyph>
    <TTGlyph name="E" xMin="20" yMin="-12" xMax="576" yMax="709">
      <contour>
        <pt x="576" y="-12" on="1"/>
        <pt x="56" y="-5" on="1"/>
        <pt x="51" y="29" on="1"/>
        <pt x="151" y="47" on="1"/>
        <pt x="117" y="643" on="1"/>
        <pt x="28" y="674" on="1"/>
        <pt x="20" y="709" on="1"/>
        <pt x="558" y="696" on="1"/>
        <pt x="559" y="567" on="1"/>
        <pt x="508" y="569" on="1"/>
        <pt x="493" y="632" on="1"/>
        <pt x="222" y="633" on="1"/>
        <pt x="203" y="608" on="1"/>
        <pt x="208" y="393" on="1"/>
        <pt x="516" y="372" on="1"/>
        <pt x="507" y="328" on="1"/>
        <pt x="211" y="322" on="1"/>
        <pt x="208" y="239" on="1"/>
        <pt x="259" y="69" on="1"/>
        <pt x="512" y="59" on="1"/>
        <pt x="524" y="140" on="1"/>
        <pt x="575" y="146" on="1"/>
      </contour>
    </TTGlyph>
    <TTGlyph name="Eacute" xMin="20" yMin="-12" xMax="576" yMax="889">
      <component glyphName=".ttfautohint" x="20" y="0" flags="0x0"/>
      <component glyphName="E" x="0" y="0" flags="0x204"/>
      <component glyphName="acute" x="286" y="180" flags="0x4"/>
    </TTGlyph>
    <TTGlyph name="Ecaron" xMin="20" yMin="-12" xMax="576" yMax="895">
      <component glyphName=".ttfautohint" x="20" y="0" flags="0x0"/>
      <component glyphName="E" x="0" y="0" flags="0x204"/>
      <component glyphName="caron" x="153" y="170" flags="0x4"/>
    </TTGlyph>
    <TTGlyph name="Ecircumflex" xMin="20" yMin="-12" xMax="576" yMax="905">
      <component glyphName=".ttfautohint" x="20" y="0" flags="0x0"/>
      <component glyphName="E" x="0" y="0" flags="0x204"/>
      <component glyphName="circumflex" x="153" y="180" flags="0x4"/>
    </TTGlyph>
    <TTGlyph name="Edieresis" xMin="20" yMin="-12" xMax="576" yMax="874">
      <component glyphName=".ttfautohint" x="20" y="0" flags="0x0"/>
      <component glyphName="E" x="0" y="0" flags="0x204"/>
      <component glyphName="dieresis" x="179" y="180" flags="0x4"/>
    </TTGlyph>
    <TTGlyph name="Edotaccent" xMin="20" yMin="-12" xMax="576" yMax="861">
      <component glyphName=".ttfautohint" x="20" y="0" flags="0x0"/>
      <component glyphName="E" x="0" y="0" flags="0x204"/>
      <component glyphName="dotaccent" x="258" y="170" flags="0x4"/>
    </TTGlyph>
    <TTGlyph name="Egrave" xMin="20" yMin="-12" xMax="576" yMax="890">
      <component glyphName=".ttfautohint" x="20" y="0" flags="0x0"/>
      <component glyphName="E" x="0" y="0" flags="0x204"/>
      <component glyphName="grave" x="226" y="180" flags="0x4"/>
    </TTGlyph>
    <TTGlyph name="Emacron" xMin="20" yMin="-12" xMax="576" yMax="824">
      <component glyphName=".ttfautohint" x="20" y="0" flags="0x0"/>
      <component glyphName="E" x="0" y="0" flags="0x204"/>
      <component glyphName="macron" x="188" y="160" flags="0x4"/>
    </TTGlyph>
    <TTGlyph name="Eogonek" xMin="20" yMin="-199" xMax="576" yMax="709">
      <component glyphName=".ttfautohint" x="20" y="0" flags="0x0"/>
      <component glyphName="E" x="0" y="0" flags="0x204"/>
      <component glyphName="ogonek" x="251" y="0" flags="0x4"/>
    </TTGlyph>
    <TTGlyph name="Eth" xMin="30" yMin="-8" xMax="626" yMax="705">
      <contour>
        <pt x="143" y="398" on="1"/>
        <pt x="145" y="637" on="1"/>
        <pt x="75" y="664" on="1"/>
        <pt x="79" y="700" on="1"/>
        <pt x="178" y="705" on="1"/>
        <pt x="426" y="686" on="1"/>
        <pt x="626" y="473" on="1"/>
        <pt x="594" y="152" on="1"/>
        <pt x="434" y="-8" on="1"/>
        <pt x="180" y="10" on="1"/>
        <pt x="30" y="7" on="1"/>
        <pt x="33" y="38" on="1"/>
        <pt x="141" y="63" on="1"/>
        <pt x="143" y="321" on="1"/>
        <pt x="65" y="321" on="1"/>
        <pt x="60" y="400" on="1"/>
      </contour>
      <contour>
        <pt x="547" y="456" on="1"/>
        <pt x="415" y="604" on="1"/>
        <pt x="304" y="631" on="1"/>
        <pt x="230" y="611" on="1"/>
        <pt x="227" y="397" on="1"/>
        <pt x="380" y="395" on="1"/>
        <pt x="374" y="317" on="1"/>
        <pt x="243" y="321" on="1"/>
        <pt x="226" y="321" on="1"/>
        <pt x="224" y="93" on="1"/>
        <pt x="415" y="74" on="1"/>
        <pt x="536" y="213" on="1"/>
      </contour>
    </TTGlyph>
    <TTGlyph name="Euro" xMin="0" yMin="-16" xMax="530" yMax="713">
      <contour>
        <pt x="530" y="99" on="1"/>
        <pt x="441" y="-3" on="1"/>
        <pt x="266" y="-16" on="1"/>
        <pt x="118" y="80" on="1"/>
        <pt x="82" y="278" on="1"/>
        <pt x="11" y="279" on="1"/>
        <pt x="14" y="315" on="1"/>
        <pt x="76" y="314" on="1"/>
        <pt x="74" y="321" on="1"/>
        <pt x="83" y="368" on="1"/>
        <pt x="4" y="368" on="1"/>
        <pt x="0" y="398" on="1"/>
        <pt x="87" y="400" on="1"/>
        <pt x="107" y="510" on="1"/>
        <pt x="219" y="677" on="1"/>
        <pt x="399" y="713" on="1"/>
        <pt x="522" y="630" on="1"/>
        <pt x="446" y="463" on="1"/>
        <pt x="402" y="479" on="1"/>
        <pt x="433" y="609" on="1"/>
        <pt x="383" y="649" on="1"/>
        <pt x="256" y="620" on="1"/>
        <pt x="198" y="488" on="1"/>
        <pt x="183" y="406" on="1"/>
        <pt x="443" y="401" on="1"/>
        <pt x="437" y="364" on="1"/>
        <pt x="213" y="370" on="1"/>
        <pt x="177" y="370" on="1"/>
        <pt x="166" y="321" on="1"/>
        <pt x="169" y="313" on="1"/>
        <pt x="181" y="313" on="1"/>
        <pt x="437" y="309" on="1"/>
        <pt x="445" y="271" on="1"/>
        <pt x="178" y="274" on="1"/>
        <pt x="211" y="125" on="1"/>
        <pt x="299" y="73" on="1"/>
        <pt x="410" y="60" on="1"/>
        <pt x="489" y="147" on="1"/>
      </contour>
    </TTGlyph>
    <TTGlyph name="F" xMin="30" yMin="-5" xMax="525" yMax="700">
      <contour>
        <pt x="492" y="555" on="1"/>
        <pt x="453" y="555" on="1"/>
        <pt x="436" y="620" on="1"/>
        <pt x="192" y="628" on="1"/>
        <pt x="200" y="401" on="1"/>
        <pt x="443" y="393" on="1"/>
        <pt x="443" y="353" on="1"/>
        <pt x="192" y="320" on="1"/>
        <pt x="216" y="51" on="1"/>
        <pt x="216" y="51" on="1"/>
        <pt x="298" y="44" on="1"/>
        <pt x="314" y="-5" on="1"/>
        <pt x="70" y="-5" on="1"/>
        <pt x="63" y="27" on="1"/>
        <pt x="118" y="35" on="1"/>
        <pt x="103" y="636" on="1"/>
        <pt x="37" y="661" on="1"/>
        <pt x="30" y="693" on="1"/>
        <pt x="192" y="693" on="1"/>
        <pt x="192" y="693" on="1"/>
        <pt x="525" y="700" on="1"/>
      </contour>
    </TTGlyph>
    <TTGlyph name="G" xMin="30" yMin="-1" xMax="539" yMax="702">
      <contour>
        <pt x="332" y="255" on="1"/>
        <pt x="495" y="235" on="1"/>
        <pt x="492" y="2" on="1"/>
        <pt x="150" y="-1" on="1"/>
        <pt x="30" y="156" on="1"/>
        <pt x="151" y="637" on="1"/>
        <pt x="316" y="701" on="1"/>
        <pt x="451" y="702" on="1"/>
        <pt x="539" y="652" on="1"/>
        <pt x="431" y="463" on="1"/>
        <pt x="385" y="472" on="1"/>
        <pt x="440" y="608" on="1"/>
        <pt x="364" y="625" on="1"/>
        <pt x="201" y="563" on="1"/>
        <pt x="126" y="146" on="1"/>
        <pt x="203" y="83" on="1"/>
        <pt x="365" y="60" on="1"/>
        <pt x="416" y="113" on="1"/>
        <pt x="412" y="193" on="1"/>
        <pt x="343" y="208" on="1"/>
      </contour>
    </TTGlyph>
    <TTGlyph name="Gbreve" xMin="30" yMin="-1" xMax="539" yMax="899">
      <component glyphName=".ttfautohint" x="30" y="0" flags="0x0"/>
      <component glyphName="G" x="0" y="0" flags="0x204"/>
      <component glyphName="breve" x="148" y="170" flags="0x4"/>
    </TTGlyph>
    <TTGlyph name="Gcommaaccent" xMin="30" yMin="-211" xMax="539" yMax="702">
      <component glyphName=".ttfautohint" x="30" y="0" flags="0x0"/>
      <component glyphName="G" x="0" y="0" flags="0x204"/>
      <component glyphName="commaaccent" x="237" y="-109" flags="0x4"/>
    </TTGlyph>
    <TTGlyph name="H" xMin="30" yMin="-7" xMax="680" yMax="702">
      <contour>
        <pt x="608" y="58" on="1"/>
        <pt x="674" y="36" on="1"/>
        <pt x="668" y="6" on="1"/>
        <pt x="442" y="7" on="1"/>
        <pt x="440" y="39" on="1"/>
        <pt x="516" y="58" on="1"/>
        <pt x="518" y="327" on="1"/>
        <pt x="193" y="327" on="1"/>
        <pt x="178" y="58" on="1"/>
        <pt x="257" y="33" on="1"/>
        <pt x="264" y="-7" on="1"/>
        <pt x="42" y="-3" on="1"/>
        <pt x="39" y="25" on="1"/>
        <pt x="115" y="53" on="1"/>
        <pt x="98" y="648" on="1"/>
        <pt x="30" y="673" on="1"/>
        <pt x="34" y="702" on="1"/>
        <pt x="257" y="702" on="1"/>
        <pt x="264" y="665" on="1"/>
        <pt x="195" y="646" on="1"/>
        <pt x="193" y="417" on="1"/>
        <pt x="524" y="378" on="1"/>
        <pt x="534" y="639" on="1"/>
        <pt x="469" y="661" on="1"/>
        <pt x="460" y="688" on="1"/>
        <pt x="671" y="702" on="1"/>
        <pt x="680" y="680" on="1"/>
        <pt x="611" y="638" on="1"/>
      </contour>
    </TTGlyph>
    <TTGlyph name="I" xMin="30" yMin="-10" xMax="252" yMax="709">
      <contour>
        <pt x="241" y="20" on="1"/>
        <pt x="243" y="-10" on="1"/>
        <pt x="52" y="5" on="1"/>
        <pt x="51" y="34" on="1"/>
        <pt x="120" y="56" on="1"/>
        <pt x="103" y="655" on="1"/>
        <pt x="30" y="680" on="1"/>
        <pt x="32" y="707" on="1"/>
        <pt x="246" y="709" on="1"/>
        <pt x="252" y="673" on="1"/>
        <pt x="185" y="653" on="1"/>
        <pt x="182" y="42" on="1"/>
      </contour>
    </TTGlyph>
    <TTGlyph name="Iacute" xMin="30" yMin="-10" xMax="252" yMax="899">
      <component glyphName=".ttfautohint" x="30" y="0" flags="0x0"/>
      <component glyphName="I" x="0" y="0" flags="0x204"/>
      <component glyphName="acute" x="104" y="190" flags="0x4"/>
    </TTGlyph>
    <TTGlyph name="Icircumflex" xMin="-18" yMin="-10" xMax="302" yMax="905">
      <component glyphName=".ttfautohint" x="0" y="0" flags="0x0"/>
      <component glyphName="I" x="0" y="0" flags="0x204"/>
      <component glyphName="circumflex" x="-18" y="180" flags="0x4"/>
    </TTGlyph>
    <TTGlyph name="Idieresis" xMin="7" yMin="-10" xMax="275" yMax="864">
      <component glyphName=".ttfautohint" x="7" y="0" flags="0x0"/>
      <component glyphName="I" x="0" y="0" flags="0x204"/>
      <component glyphName="dieresis" x="7" y="170" flags="0x4"/>
    </TTGlyph>
    <TTGlyph name="Idotaccent" xMin="30" yMin="-10" xMax="252" yMax="851">
      <component glyphName=".ttfautohint" x="30" y="0" flags="0x0"/>
      <component glyphName="I" x="0" y="0" flags="0x204"/>
      <component glyphName="dotaccent" x="86" y="160" flags="0x4"/>
    </TTGlyph>
    <TTGlyph name="Igrave" xMin="30" yMin="-10" xMax="252" yMax="900">
      <component glyphName=".ttfautohint" x="30" y="0" flags="0x0"/>
      <component glyphName="I" x="0" y="0" flags="0x204"/>
      <component glyphName="grave" x="44" y="190" flags="0x4"/>
    </TTGlyph>
    <TTGlyph name="Imacron" xMin="16" yMin="-10" xMax="265" yMax="834">
      <component glyphName=".ttfautohint" x="16" y="0" flags="0x0"/>
      <component glyphName="I" x="0" y="0" flags="0x204"/>
      <component glyphName="macron" x="16" y="170" flags="0x4"/>
    </TTGlyph>
    <TTGlyph name="Iogonek" xMin="30" yMin="-199" xMax="252" yMax="709">
      <component glyphName=".ttfautohint" x="30" y="0" flags="0x0"/>
      <component glyphName="I" x="0" y="0" flags="0x204"/>
      <component glyphName="ogonek" x="37" y="0" flags="0x4"/>
    </TTGlyph>
    <TTGlyph name="Itilde" xMin="2" yMin="-10" xMax="280" yMax="894">
      <component glyphName=".ttfautohint" x="2" y="0" flags="0x0"/>
      <component glyphName="I" x="0" y="0" flags="0x204"/>
      <component glyphName="tilde" x="2" y="190" flags="0x4"/>
    </TTGlyph>
    <TTGlyph name="J" xMin="0" yMin="-151" xMax="440" yMax="710">
      <contour>
        <pt x="381" y="649" on="1"/>
        <pt x="370" y="107" on="1"/>
        <pt x="326" y="-71" on="1"/>
        <pt x="180" y="-151" on="1"/>
        <pt x="41" y="-84" on="1"/>
        <pt x="0" y="59" on="1"/>
        <pt x="82" y="86" on="1"/>
        <pt x="112" y="-68" on="1"/>
        <pt x="171" y="-71" on="1"/>
        <pt x="264" y="-5" on="1"/>
        <pt x="294" y="149" on="1"/>
        <pt x="288" y="653" on="1"/>
        <pt x="211" y="679" on="1"/>
        <pt x="214" y="709" on="1"/>
        <pt x="435" y="710" on="1"/>
        <pt x="440" y="673" on="1"/>
      </contour>
    </TTGlyph>
    <TTGlyph name="Jcircumflex" xMin="0" yMin="-151" xMax="485" yMax="915">
      <component glyphName=".ttfautohint" x="0" y="0" flags="0x0"/>
      <component glyphName="J" x="0" y="0" flags="0x204"/>
      <component glyphName="circumflex" x="165" y="190" flags="0x4"/>
    </TTGlyph>
    <TTGlyph name="K" xMin="30" yMin="-31" xMax="633" yMax="701">
      <contour>
        <pt x="633" y="49" on="1"/>
        <pt x="572" y="-31" on="1"/>
        <pt x="441" y="47" on="1"/>
        <pt x="369" y="271" on="1"/>
        <pt x="285" y="337" on="1"/>
        <pt x="199" y="310" on="1"/>
        <pt x="196" y="49" on="1"/>
        <pt x="264" y="35" on="1"/>
        <pt x="270" y="-4" on="1"/>
        <pt x="50" y="0" on="1"/>
        <pt x="47" y="27" on="1"/>
        <pt x="114" y="47" on="1"/>
        <pt x="114" y="642" on="1"/>
        <pt x="30" y="672" on="1"/>
        <pt x="35" y="701" on="1"/>
        <pt x="258" y="701" on="1"/>
        <pt x="263" y="664" on="1"/>
        <pt x="202" y="647" on="1"/>
        <pt x="204" y="646" on="1"/>
        <pt x="199" y="377" on="1"/>
        <pt x="300" y="405" on="1"/>
        <pt x="367" y="456" on="1"/>
        <pt x="426" y="677" on="1"/>
        <pt x="547" y="701" on="1"/>
        <pt x="563" y="641" on="1"/>
        <pt x="492" y="627" on="1"/>
        <pt x="401" y="402" on="1"/>
        <pt x="364" y="374" on="1"/>
        <pt x="426" y="342" on="1"/>
        <pt x="502" y="108" on="1"/>
      </contour>
    </TTGlyph>
    <TTGlyph name="Kcommaaccent" xMin="30" yMin="-191" xMax="633" yMax="701">
      <component glyphName=".ttfautohint" x="30" y="0" flags="0x0"/>
      <component glyphName="K" x="0" y="0" flags="0x204"/>
      <component glyphName="commaaccent" x="289" y="-89" flags="0x4"/>
    </TTGlyph>
    <TTGlyph name="L" xMin="30" yMin="-23" xMax="459" yMax="699">
      <contour>
        <pt x="453" y="7" on="1"/>
        <pt x="57" y="-23" on="1"/>
        <pt x="55" y="-2" on="1"/>
        <pt x="110" y="32" on="1"/>
        <pt x="93" y="650" on="1"/>
        <pt x="30" y="671" on="1"/>
        <pt x="34" y="698" on="1"/>
        <pt x="253" y="699" on="1"/>
        <pt x="258" y="663" on="1"/>
        <pt x="199" y="645" on="1"/>
        <pt x="197" y="43" on="1"/>
        <pt x="380" y="82" on="1"/>
        <pt x="367" y="149" on="1"/>
        <pt x="458" y="160" on="1"/>
        <pt x="459" y="97" on="1"/>
      </contour>
    </TTGlyph>
    <TTGlyph name="Lacute" xMin="30" yMin="-23" xMax="459" yMax="879">
      <component glyphName=".ttfautohint" x="30" y="0" flags="0x0"/>
      <component glyphName="L" x="0" y="0" flags="0x204"/>
      <component glyphName="acute" x="122" y="170" flags="0x4"/>
    </TTGlyph>
    <TTGlyph name="Lcaron" xMin="30" yMin="-23" xMax="459" yMax="712">
      <component glyphName=".ttfautohint" x="30" y="0" flags="0x0"/>
      <component glyphName="L" x="0" y="0" flags="0x204"/>
      <component glyphName="commaaccent" x="295" y="622" flags="0x4"/>
    </TTGlyph>
    <TTGlyph name="Lcommaaccent" xMin="30" yMin="-221" xMax="459" yMax="699">
      <component glyphName=".ttfautohint" x="30" y="0" flags="0x0"/>
      <component glyphName="L" x="0" y="0" flags="0x204"/>
      <component glyphName="commaaccent" x="212" y="-119" flags="0x4"/>
    </TTGlyph>
    <TTGlyph name="Lslash" xMin="1" yMin="-23" xMax="459" yMax="699">
      <contour>
        <pt x="453" y="7" on="1"/>
        <pt x="57" y="-23" on="1"/>
        <pt x="55" y="-2" on="1"/>
        <pt x="110" y="32" on="1"/>
        <pt x="103" y="295" on="1"/>
        <pt x="1" y="245" on="1"/>
        <pt x="3" y="328" on="1"/>
        <pt x="100" y="378" on="1"/>
        <pt x="93" y="650" on="1"/>
        <pt x="30" y="671" on="1"/>
        <pt x="34" y="698" on="1"/>
        <pt x="253" y="699" on="1"/>
        <pt x="258" y="663" on="1"/>
        <pt x="199" y="645" on="1"/>
        <pt x="198" y="429" on="1"/>
        <pt x="312" y="488" on="1"/>
        <pt x="312" y="399" on="1"/>
        <pt x="198" y="342" on="1"/>
        <pt x="197" y="43" on="1"/>
        <pt x="380" y="82" on="1"/>
        <pt x="367" y="149" on="1"/>
        <pt x="458" y="160" on="1"/>
        <pt x="459" y="97" on="1"/>
      </contour>
    </TTGlyph>
    <TTGlyph name="M" xMin="30" yMin="-5" xMax="784" yMax="705">
      <contour>
        <pt x="784" y="25" on="1"/>
        <pt x="779" y="-4" on="1"/>
        <pt x="567" y="-3" on="1"/>
        <pt x="566" y="27" on="1"/>
        <pt x="649" y="49" on="1"/>
        <pt x="661" y="606" on="1"/>
        <pt x="649" y="608" on="1"/>
        <pt x="437" y="17" on="1"/>
        <pt x="380" y="17" on="1"/>
        <pt x="182" y="593" on="1"/>
        <pt x="158" y="591" on="1"/>
        <pt x="188" y="52" on="1"/>
        <pt x="251" y="32" on="1"/>
        <pt x="257" y="-5" on="1"/>
        <pt x="50" y="-1" on="1"/>
        <pt x="48" y="25" on="1"/>
        <pt x="107" y="47" on="1"/>
        <pt x="99" y="659" on="1"/>
        <pt x="33" y="682" on="1"/>
        <pt x="30" y="705" on="1"/>
        <pt x="195" y="697" on="1"/>
        <pt x="223" y="652" on="1"/>
        <pt x="405" y="108" on="1"/>
        <pt x="414" y="111" on="1"/>
        <pt x="595" y="668" on="1"/>
        <pt x="620" y="702" on="1"/>
        <pt x="779" y="702" on="1"/>
        <pt x="779" y="670" on="1"/>
        <pt x="733" y="659" on="1"/>
        <pt x="713" y="47" on="1"/>
      </contour>
    </TTGlyph>
    <TTGlyph name="N" xMin="30" yMin="-5" xMax="703" yMax="702">
      <contour>
        <pt x="676" y="35" on="1"/>
        <pt x="681" y="-1" on="1"/>
        <pt x="471" y="3" on="1"/>
        <pt x="468" y="28" on="1"/>
        <pt x="518" y="48" on="1"/>
        <pt x="181" y="551" on="1"/>
        <pt x="186" y="49" on="1"/>
        <pt x="237" y="32" on="1"/>
        <pt x="241" y="-5" on="1"/>
        <pt x="32" y="-1" on="1"/>
        <pt x="30" y="24" on="1"/>
        <pt x="112" y="56" on="1"/>
        <pt x="105" y="650" on="1"/>
        <pt x="40" y="668" on="1"/>
        <pt x="41" y="697" on="1"/>
        <pt x="258" y="699" on="1"/>
        <pt x="262" y="670" on="1"/>
        <pt x="205" y="653" on="1"/>
        <pt x="542" y="138" on="1"/>
        <pt x="552" y="654" on="1"/>
        <pt x="481" y="672" on="1"/>
        <pt x="482" y="701" on="1"/>
        <pt x="698" y="702" on="1"/>
        <pt x="703" y="675" on="1"/>
        <pt x="636" y="654" on="1"/>
        <pt x="603" y="58" on="1"/>
      </contour>
    </TTGlyph>
    <TTGlyph name="Nacute" xMin="30" yMin="-5" xMax="703" yMax="879">
      <component glyphName=".ttfautohint" x="30" y="0" flags="0x0"/>
      <component glyphName="N" x="0" y="0" flags="0x204"/>
      <component glyphName="acute" x="339" y="170" flags="0x4"/>
    </TTGlyph>
    <TTGlyph name="Ncaron" xMin="30" yMin="-5" xMax="703" yMax="885">
      <component glyphName=".ttfautohint" x="30" y="0" flags="0x0"/>
      <component glyphName="N" x="0" y="0" flags="0x204"/>
      <component glyphName="caron" x="196" y="160" flags="0x4"/>
    </TTGlyph>
    <TTGlyph name="Ncommaaccent" xMin="30" yMin="-171" xMax="703" yMax="702">
      <component glyphName=".ttfautohint" x="30" y="0" flags="0x0"/>
      <component glyphName="N" x="0" y="0" flags="0x204"/>
      <component glyphName="commaaccent" x="309" y="-69" flags="0x4"/>
    </TTGlyph>
    <TTGlyph name="Ntilde" xMin="30" yMin="-5" xMax="703" yMax="864">
      <component glyphName=".ttfautohint" x="30" y="0" flags="0x0"/>
      <component glyphName="N" x="0" y="0" flags="0x204"/>
      <component glyphName="tilde" x="236" y="160" flags="0x4"/>
    </TTGlyph>
    <TTGlyph name="O" xMin="50" yMin="-13" xMax="579" yMax="714">
      <contour>
        <pt x="170" y="614" on="1"/>
        <pt x="115" y="408" on="1"/>
        <pt x="165" y="170" on="1"/>
        <pt x="292" y="61" on="1"/>
        <pt x="376" y="54" on="1"/>
        <pt x="508" y="285" on="1"/>
        <pt x="458" y="523" on="1"/>
        <pt x="356" y="620" on="1"/>
      </contour>
      <contour>
        <pt x="409" y="696" on="1"/>
        <pt x="543" y="550" on="1"/>
        <pt x="579" y="265" on="1"/>
        <pt x="428" y="-7" on="1"/>
        <pt x="250" y="-13" on="1"/>
        <pt x="88" y="149" on="1"/>
        <pt x="50" y="401" on="1"/>
        <pt x="103" y="640" on="1"/>
        <pt x="210" y="714" on="1"/>
      </contour>
    </TTGlyph>
    <TTGlyph name="OE" xMin="50" yMin="-43" xMax="884" yMax="721">
      <contour>
        <pt x="325" y="50" on="1"/>
        <pt x="461" y="68" on="1"/>
        <pt x="475" y="354" on="1"/>
        <pt x="462" y="617" on="1"/>
        <pt x="401" y="636" on="1"/>
        <pt x="343" y="654" on="1"/>
        <pt x="206" y="624" on="1"/>
        <pt x="147" y="485" on="1"/>
        <pt x="160" y="99" on="1"/>
      </contour>
      <contour>
        <pt x="451" y="13" on="1"/>
        <pt x="290" y="-43" on="1"/>
        <pt x="61" y="51" on="1"/>
        <pt x="50" y="507" on="1"/>
        <pt x="170" y="684" on="1"/>
        <pt x="360" y="721" on="1"/>
        <pt x="408" y="705" on="1"/>
        <pt x="867" y="668" on="1"/>
        <pt x="867" y="544" on="1"/>
        <pt x="819" y="545" on="1"/>
        <pt x="805" y="605" on="1"/>
        <pt x="562" y="606" on="1"/>
        <pt x="545" y="583" on="1"/>
        <pt x="550" y="376" on="1"/>
        <pt x="826" y="358" on="1"/>
        <pt x="817" y="315" on="1"/>
        <pt x="552" y="309" on="1"/>
        <pt x="544" y="93" on="1"/>
        <pt x="599" y="66" on="1"/>
        <pt x="823" y="57" on="1"/>
        <pt x="833" y="134" on="1"/>
        <pt x="883" y="139" on="1"/>
        <pt x="884" y="-11" on="1"/>
      </contour>
    </TTGlyph>
    <TTGlyph name="Oacute" xMin="50" yMin="-13" xMax="579" yMax="899">
      <component glyphName=".ttfautohint" x="50" y="0" flags="0x0"/>
      <component glyphName="O" x="0" y="0" flags="0x204"/>
      <component glyphName="acute" x="257" y="190" flags="0x4"/>
    </TTGlyph>
    <TTGlyph name="Ocircumflex" xMin="50" yMin="-13" xMax="579" yMax="905">
      <component glyphName=".ttfautohint" x="50" y="0" flags="0x0"/>
      <component glyphName="O" x="0" y="0" flags="0x204"/>
      <component glyphName="circumflex" x="144" y="180" flags="0x4"/>
    </TTGlyph>
    <TTGlyph name="Odieresis" xMin="50" yMin="-13" xMax="579" yMax="864">
      <component glyphName=".ttfautohint" x="50" y="0" flags="0x0"/>
      <component glyphName="O" x="0" y="0" flags="0x204"/>
      <component glyphName="dieresis" x="160" y="170" flags="0x4"/>
    </TTGlyph>
    <TTGlyph name="Ograve" xMin="50" yMin="-13" xMax="579" yMax="900">
      <component glyphName=".ttfautohint" x="50" y="0" flags="0x0"/>
      <component glyphName="O" x="0" y="0" flags="0x204"/>
      <component glyphName="grave" x="197" y="190" flags="0x4"/>
    </TTGlyph>
    <TTGlyph name="Ohungarumlaut" xMin="50" yMin="-13" xMax="579" yMax="879">
      <component glyphName=".ttfautohint" x="50" y="0" flags="0x0"/>
      <component glyphName="O" x="0" y="0" flags="0x204"/>
      <component glyphName="hungarumlaut" x="199" y="170" flags="0x4"/>
    </TTGlyph>
    <TTGlyph name="Omacron" xMin="50" yMin="-13" xMax="579" yMax="834">
      <component glyphName=".ttfautohint" x="50" y="0" flags="0x0"/>
      <component glyphName="O" x="0" y="0" flags="0x204"/>
      <component glyphName="macron" x="190" y="170" flags="0x4"/>
    </TTGlyph>
    <TTGlyph name="Oslash" xMin="50" yMin="-27" xMax="579" yMax="723">
      <contour>
        <pt x="456" y="645" on="1"/>
        <pt x="543" y="550" on="1"/>
        <pt x="579" y="265" on="1"/>
        <pt x="428" y="-7" on="1"/>
        <pt x="250" y="-13" on="1"/>
        <pt x="228" y="8" on="1"/>
        <pt x="216" y="-27" on="1"/>
        <pt x="147" y="-21" on="1"/>
        <pt x="176" y="60" on="1"/>
        <pt x="88" y="149" on="1"/>
        <pt x="50" y="401" on="1"/>
        <pt x="103" y="640" on="1"/>
        <pt x="210" y="714" on="1"/>
        <pt x="409" y="696" on="1"/>
        <pt x="419" y="723" on="1"/>
        <pt x="482" y="707" on="1"/>
      </contour>
      <contour>
        <pt x="170" y="614" on="1"/>
        <pt x="115" y="408" on="1"/>
        <pt x="165" y="170" on="1"/>
        <pt x="204" y="136" on="1"/>
        <pt x="374" y="602" on="1"/>
        <pt x="356" y="620" on="1"/>
      </contour>
      <contour>
        <pt x="420" y="559" on="1"/>
        <pt x="414" y="545" on="1"/>
        <pt x="257" y="91" on="1"/>
        <pt x="292" y="61" on="1"/>
        <pt x="376" y="54" on="1"/>
        <pt x="508" y="285" on="1"/>
        <pt x="458" y="523" on="1"/>
      </contour>
    </TTGlyph>
    <TTGlyph name="Otilde" xMin="50" yMin="-13" xMax="579" yMax="874">
      <component glyphName=".ttfautohint" x="50" y="0" flags="0x0"/>
      <component glyphName="O" x="0" y="0" flags="0x204"/>
      <component glyphName="tilde" x="174" y="170" flags="0x4"/>
    </TTGlyph>
    <TTGlyph name="P" xMin="30" yMin="-3" xMax="513" yMax="710">
      <contour>
        <pt x="177" y="610" on="1"/>
        <pt x="189" y="347" on="1"/>
        <pt x="366" y="348" on="1"/>
        <pt x="452" y="455" on="1"/>
        <pt x="397" y="605" on="1"/>
        <pt x="264" y="637" on="1"/>
      </contour>
      <contour>
        <pt x="183" y="269" on="1"/>
        <pt x="183" y="53" on="1"/>
        <pt x="243" y="33" on="1"/>
        <pt x="249" y="-3" on="1"/>
        <pt x="41" y="2" on="1"/>
        <pt x="39" y="26" on="1"/>
        <pt x="110" y="54" on="1"/>
        <pt x="103" y="638" on="1"/>
        <pt x="69" y="665" on="1"/>
        <pt x="30" y="670" on="1"/>
        <pt x="35" y="707" on="1"/>
        <pt x="118" y="710" on="1"/>
        <pt x="164" y="686" on="1"/>
        <pt x="256" y="694" on="1"/>
        <pt x="470" y="651" on="1"/>
        <pt x="513" y="405" on="1"/>
        <pt x="388" y="283" on="1"/>
      </contour>
    </TTGlyph>
    <TTGlyph name="Q" xMin="50" yMin="-70" xMax="598" yMax="700">
      <contour>
        <pt x="295" y="95" on="1"/>
        <pt x="401" y="100" on="1"/>
        <pt x="508" y="292" on="1"/>
        <pt x="500" y="508" on="1"/>
        <pt x="432" y="607" on="1"/>
        <pt x="214" y="636" on="1"/>
        <pt x="136" y="512" on="1"/>
        <pt x="121" y="271" on="1"/>
        <pt x="176" y="173" on="1"/>
      </contour>
      <contour>
        <pt x="598" y="3" on="1"/>
        <pt x="576" y="-70" on="1"/>
        <pt x="451" y="-40" on="1"/>
        <pt x="386" y="17" on="1"/>
        <pt x="225" y="13" on="1"/>
        <pt x="50" y="210" on="1"/>
        <pt x="60" y="550" on="1"/>
        <pt x="191" y="696" on="1"/>
        <pt x="416" y="700" on="1"/>
        <pt x="551" y="582" on="1"/>
        <pt x="596" y="266" on="1"/>
        <pt x="454" y="37" on="1"/>
        <pt x="490" y="15" on="1"/>
      </contour>
    </TTGlyph>
    <TTGlyph name="R" xMin="30" yMin="3" xMax="713" yMax="693">
      <contour>
        <pt x="510" y="478" on="1"/>
        <pt x="474" y="607" on="1"/>
        <pt x="327" y="633" on="1"/>
        <pt x="224" y="617" on="1"/>
        <pt x="241" y="395" on="1"/>
        <pt x="421" y="383" on="1"/>
      </contour>
      <contour>
        <pt x="713" y="123" on="1"/>
        <pt x="589" y="12" on="1"/>
        <pt x="511" y="25" on="1"/>
        <pt x="458" y="260" on="1"/>
        <pt x="364" y="329" on="1"/>
        <pt x="234" y="310" on="1"/>
        <pt x="237" y="62" on="1"/>
        <pt x="300" y="41" on="1"/>
        <pt x="308" y="3" on="1"/>
        <pt x="93" y="6" on="1"/>
        <pt x="91" y="33" on="1"/>
        <pt x="150" y="56" on="1"/>
        <pt x="138" y="585" on="1"/>
        <pt x="102" y="624" on="1"/>
        <pt x="30" y="632" on="1"/>
        <pt x="33" y="686" on="1"/>
        <pt x="115" y="688" on="1"/>
        <pt x="157" y="671" on="1"/>
        <pt x="182" y="693" on="1"/>
        <pt x="454" y="689" on="1"/>
        <pt x="580" y="573" on="1"/>
        <pt x="562" y="406" on="1"/>
        <pt x="475" y="340" on="1"/>
        <pt x="549" y="269" on="1"/>
        <pt x="556" y="89" on="1"/>
        <pt x="578" y="81" on="1"/>
        <pt x="650" y="189" on="1"/>
      </contour>
    </TTGlyph>
    <TTGlyph name="Racute" xMin="30" yMin="3" xMax="713" yMax="879">
      <component glyphName=".ttfautohint" x="30" y="3" flags="0x0"/>
      <component glyphName="R" x="0" y="0" flags="0x204"/>
      <component glyphName="acute" x="299" y="170" flags="0x4"/>
    </TTGlyph>
    <TTGlyph name="Rcaron" xMin="30" yMin="3" xMax="713" yMax="885">
      <component glyphName=".ttfautohint" x="30" y="3" flags="0x0"/>
      <component glyphName="R" x="0" y="0" flags="0x204"/>
      <component glyphName="caron" x="166" y="160" flags="0x4"/>
    </TTGlyph>
    <TTGlyph name="Rcommaaccent" xMin="30" yMin="-161" xMax="713" yMax="693">
      <component glyphName=".ttfautohint" x="30" y="0" flags="0x0"/>
      <component glyphName="R" x="0" y="0" flags="0x204"/>
      <component glyphName="commaaccent" x="329" y="-59" flags="0x4"/>
    </TTGlyph>
    <TTGlyph name="S" xMin="25" yMin="-9" xMax="553" yMax="704">
      <contour>
        <pt x="409" y="704" on="1"/>
        <pt x="472" y="661" on="1"/>
        <pt x="500" y="700" on="1"/>
        <pt x="553" y="658" on="1"/>
        <pt x="459" y="545" on="1"/>
        <pt x="421" y="580" on="1"/>
        <pt x="373" y="642" on="1"/>
        <pt x="223" y="618" on="1"/>
        <pt x="144" y="538" on="1"/>
        <pt x="205" y="425" on="1"/>
        <pt x="464" y="357" on="1"/>
        <pt x="525" y="282" on="1"/>
        <pt x="507" y="87" on="1"/>
        <pt x="300" y="-9" on="1"/>
        <pt x="117" y="41" on="1"/>
        <pt x="86" y="-9" on="1"/>
        <pt x="25" y="5" on="1"/>
        <pt x="86" y="139" on="1"/>
        <pt x="137" y="124" on="1"/>
        <pt x="295" y="73" on="1"/>
        <pt x="451" y="135" on="1"/>
        <pt x="421" y="290" on="1"/>
        <pt x="114" y="353" on="1"/>
        <pt x="57" y="562" on="1"/>
        <pt x="163" y="686" on="1"/>
      </contour>
    </TTGlyph>
    <TTGlyph name="Sacute" xMin="25" yMin="-9" xMax="553" yMax="879">
      <component glyphName=".ttfautohint" x="25" y="0" flags="0x0"/>
      <component glyphName="S" x="0" y="0" flags="0x204"/>
      <component glyphName="acute" x="262" y="170" flags="0x4"/>
    </TTGlyph>
    <TTGlyph name="Scaron" xMin="25" yMin="-9" xMax="553" yMax="885">
      <component glyphName=".ttfautohint" x="25" y="0" flags="0x0"/>
      <component glyphName="S" x="0" y="0" flags="0x204"/>
      <component glyphName="caron" x="129" y="160" flags="0x4"/>
    </TTGlyph>
    <TTGlyph name="Scedilla" xMin="25" yMin="-199" xMax="553" yMax="704">
      <component glyphName=".ttfautohint" x="25" y="0" flags="0x0"/>
      <component glyphName="S" x="0" y="0" flags="0x204"/>
      <component glyphName="cedilla" x="162" y="0" flags="0x4"/>
    </TTGlyph>
    <TTGlyph name="Scommaaccent" xMin="25" yMin="-221" xMax="553" yMax="704">
      <component glyphName=".ttfautohint" x="25" y="0" flags="0x0"/>
      <component glyphName="S" x="0" y="0" flags="0x204"/>
      <component glyphName="commaaccent" x="239" y="-119" flags="0x4"/>
    </TTGlyph>
    <TTGlyph name="T" xMin="21" yMin="-9" xMax="556" yMax="699">
      <contour>
        <pt x="556" y="699" on="1"/>
        <pt x="541" y="589" on="1"/>
        <pt x="486" y="604" on="1"/>
        <pt x="486" y="643" on="1"/>
        <pt x="320" y="643" on="1"/>
        <pt x="343" y="45" on="1"/>
        <pt x="392" y="30" on="1"/>
        <pt x="392" y="-9" on="1"/>
        <pt x="187" y="-2" on="1"/>
        <pt x="187" y="23" on="1"/>
        <pt x="257" y="45" on="1"/>
        <pt x="249" y="643" on="1"/>
        <pt x="194" y="643" on="1"/>
        <pt x="93" y="628" on="1"/>
        <pt x="93" y="589" on="1"/>
        <pt x="29" y="581" on="1"/>
        <pt x="21" y="699" on="1"/>
        <pt x="170" y="699" on="1"/>
      </contour>
    </TTGlyph>
    <TTGlyph name="Tcaron" xMin="21" yMin="-9" xMax="556" yMax="895">
      <component glyphName=".ttfautohint" x="21" y="0" flags="0x0"/>
      <component glyphName="T" x="0" y="0" flags="0x204"/>
      <component glyphName="caron" x="117" y="170" flags="0x4"/>
    </TTGlyph>
    <TTGlyph name="Tcommaaccent" xMin="20" yMin="-222" xMax="555" yMax="700">
      <contour>
        <pt x="555" y="700" on="1"/>
        <pt x="535" y="580" on="1"/>
        <pt x="485" y="590" on="1"/>
        <pt x="480" y="626" on="1"/>
        <pt x="340" y="626" on="1"/>
        <pt x="357" y="52" on="1"/>
        <pt x="404" y="36" on="1"/>
        <pt x="411" y="-3" on="1"/>
        <pt x="191" y="0" on="1"/>
        <pt x="188" y="28" on="1"/>
        <pt x="255" y="53" on="1"/>
        <pt x="247" y="628" on="1"/>
        <pt x="198" y="629" on="1"/>
        <pt x="96" y="618" on="1"/>
        <pt x="92" y="577" on="1"/>
        <pt x="34" y="571" on="1"/>
        <pt x="20" y="700" on="1"/>
        <pt x="168" y="694" on="1"/>
      </contour>
      <contour>
        <pt x="303" y="-30" on="1"/>
        <pt x="354" y="-73" on="1"/>
        <pt x="326" y="-148" on="1"/>
        <pt x="266" y="-222" on="1"/>
        <pt x="239" y="-215" on="1"/>
        <pt x="296" y="-133" on="1"/>
        <pt x="256" y="-126" on="1"/>
        <pt x="246" y="-55" on="1"/>
      </contour>
    </TTGlyph>
    <TTGlyph name="Thorn" xMin="30" yMin="-25" xMax="615" yMax="746">
      <contour>
        <pt x="190" y="206" on="1"/>
        <pt x="438" y="183" on="1"/>
        <pt x="548" y="324" on="1"/>
        <pt x="491" y="526" on="1"/>
        <pt x="289" y="559" on="1"/>
        <pt x="177" y="532" on="1"/>
      </contour>
      <contour>
        <pt x="183" y="122" on="1"/>
        <pt x="183" y="33" on="1"/>
        <pt x="247" y="13" on="1"/>
        <pt x="251" y="-25" on="1"/>
        <pt x="34" y="-22" on="1"/>
        <pt x="30" y="5" on="1"/>
        <pt x="106" y="33" on="1"/>
        <pt x="105" y="700" on="1"/>
        <pt x="56" y="711" on="1"/>
        <pt x="53" y="742" on="1"/>
        <pt x="221" y="746" on="1"/>
        <pt x="220" y="715" on="1"/>
        <pt x="172" y="700" on="1"/>
        <pt x="174" y="612" on="1"/>
        <pt x="280" y="620" on="1"/>
        <pt x="568" y="576" on="1"/>
        <pt x="615" y="270" on="1"/>
        <pt x="459" y="114" on="1"/>
      </contour>
    </TTGlyph>
    <TTGlyph name="U" xMin="30" yMin="-10" xMax="666" yMax="709">
      <contour>
        <pt x="662" y="673" on="1"/>
        <pt x="607" y="654" on="1"/>
        <pt x="588" y="119" on="1"/>
        <pt x="487" y="0" on="1"/>
        <pt x="231" y="-10" on="1"/>
        <pt x="114" y="116" on="1"/>
        <pt x="91" y="614" on="1"/>
        <pt x="86" y="656" on="1"/>
        <pt x="30" y="671" on="1"/>
        <pt x="31" y="700" on="1"/>
        <pt x="242" y="702" on="1"/>
        <pt x="245" y="673" on="1"/>
        <pt x="179" y="653" on="1"/>
        <pt x="182" y="172" on="1"/>
        <pt x="245" y="71" on="1"/>
        <pt x="452" y="78" on="1"/>
        <pt x="513" y="165" on="1"/>
        <pt x="505" y="660" on="1"/>
        <pt x="458" y="675" on="1"/>
        <pt x="459" y="702" on="1"/>
        <pt x="666" y="709" on="1"/>
      </contour>
    </TTGlyph>
    <TTGlyph name="Uacute" xMin="30" yMin="-10" xMax="666" yMax="869">
      <component glyphName=".ttfautohint" x="30" y="0" flags="0x0"/>
      <component glyphName="U" x="0" y="0" flags="0x204"/>
      <component glyphName="acute" x="321" y="160" flags="0x4"/>
    </TTGlyph>
    <TTGlyph name="Ucircumflex" xMin="30" yMin="-10" xMax="666" yMax="895">
      <component glyphName=".ttfautohint" x="30" y="0" flags="0x0"/>
      <component glyphName="U" x="0" y="0" flags="0x204"/>
      <component glyphName="circumflex" x="188" y="170" flags="0x4"/>
    </TTGlyph>
    <TTGlyph name="Udieresis" xMin="30" yMin="-10" xMax="666" yMax="854">
      <component glyphName=".ttfautohint" x="30" y="0" flags="0x0"/>
      <component glyphName="U" x="0" y="0" flags="0x204"/>
      <component glyphName="dieresis" x="214" y="160" flags="0x4"/>
    </TTGlyph>
    <TTGlyph name="Ugrave" xMin="30" yMin="-10" xMax="666" yMax="870">
      <component glyphName=".ttfautohint" x="30" y="0" flags="0x0"/>
      <component glyphName="U" x="0" y="0" flags="0x204"/>
      <component glyphName="grave" x="251" y="160" flags="0x4"/>
    </TTGlyph>
    <TTGlyph name="Uhungarumlaut" xMin="30" yMin="-10" xMax="666" yMax="889">
      <component glyphName=".ttfautohint" x="30" y="0" flags="0x0"/>
      <component glyphName="U" x="0" y="0" flags="0x204"/>
      <component glyphName="hungarumlaut" x="263" y="180" flags="0x4"/>
    </TTGlyph>
    <TTGlyph name="Umacron" xMin="30" yMin="-10" xMax="666" yMax="834">
      <component glyphName=".ttfautohint" x="30" y="0" flags="0x0"/>
      <component glyphName="U" x="0" y="0" flags="0x204"/>
      <component glyphName="macron" x="223" y="170" flags="0x4"/>
    </TTGlyph>
    <TTGlyph name="Uogonek" xMin="30" yMin="-199" xMax="666" yMax="709">
      <component glyphName=".ttfautohint" x="30" y="0" flags="0x0"/>
      <component glyphName="U" x="0" y="0" flags="0x204"/>
      <component glyphName="ogonek" x="261" y="0" flags="0x4"/>
    </TTGlyph>
    <TTGlyph name="Uring" xMin="30" yMin="-10" xMax="666" yMax="872">
      <component glyphName=".ttfautohint" x="30" y="0" flags="0x0"/>
      <component glyphName="U" x="0" y="0" flags="0x204"/>
      <component glyphName="ring" x="260" y="170" flags="0x4"/>
    </TTGlyph>
    <TTGlyph name="V" xMin="0" yMin="-9" xMax="642" yMax="717">
      <contour>
        <pt x="631" y="655" on="1"/>
        <pt x="565" y="643" on="1"/>
        <pt x="366" y="-9" on="1"/>
        <pt x="280" y="1" on="1"/>
        <pt x="51" y="665" on="1"/>
        <pt x="0" y="678" on="1"/>
        <pt x="3" y="707" on="1"/>
        <pt x="220" y="709" on="1"/>
        <pt x="226" y="681" on="1"/>
        <pt x="161" y="662" on="1"/>
        <pt x="324" y="73" on="1"/>
        <pt x="343" y="73" on="1"/>
        <pt x="482" y="660" on="1"/>
        <pt x="425" y="691" on="1"/>
        <pt x="432" y="717" on="1"/>
        <pt x="642" y="691" on="1"/>
      </contour>
    </TTGlyph>
    <TTGlyph name="W" xMin="0" yMin="-13" xMax="938" yMax="713">
      <contour>
        <pt x="938" y="697" on="1"/>
        <pt x="935" y="668" on="1"/>
        <pt x="867" y="654" on="1"/>
        <pt x="860" y="651" on="1"/>
        <pt x="697" y="-13" on="1"/>
        <pt x="597" y="-13" on="1"/>
        <pt x="476" y="545" on="1"/>
        <pt x="473" y="573" on="1"/>
        <pt x="470" y="573" on="1"/>
        <pt x="466" y="546" on="1"/>
        <pt x="356" y="-5" on="1"/>
        <pt x="239" y="-5" on="1"/>
        <pt x="68" y="657" on="1"/>
        <pt x="0" y="676" on="1"/>
        <pt x="0" y="705" on="1"/>
        <pt x="224" y="705" on="1"/>
        <pt x="224" y="676" on="1"/>
        <pt x="162" y="657" on="1"/>
        <pt x="162" y="657" on="1"/>
        <pt x="283" y="80" on="1"/>
        <pt x="301" y="77" on="1"/>
        <pt x="435" y="674" on="1"/>
        <pt x="507" y="674" on="1"/>
        <pt x="644" y="65" on="1"/>
        <pt x="659" y="65" on="1"/>
        <pt x="783" y="658" on="1"/>
        <pt x="711" y="684" on="1"/>
        <pt x="712" y="713" on="1"/>
      </contour>
    </TTGlyph>
    <TTGlyph name="X" xMin="0" yMin="-9" xMax="671" yMax="711">
      <contour>
        <pt x="671" y="-3" on="1"/>
        <pt x="459" y="-9" on="1"/>
        <pt x="455" y="18" on="1"/>
        <pt x="502" y="39" on="1"/>
        <pt x="377" y="263" on="1"/>
        <pt x="333" y="333" on="1"/>
        <pt x="174" y="39" on="1"/>
        <pt x="223" y="22" on="1"/>
        <pt x="220" y="-7" on="1"/>
        <pt x="1" y="-6" on="1"/>
        <pt x="0" y="25" on="1"/>
        <pt x="72" y="45" on="1"/>
        <pt x="297" y="386" on="1"/>
        <pt x="109" y="662" on="1"/>
        <pt x="47" y="681" on="1"/>
        <pt x="48" y="710" on="1"/>
        <pt x="265" y="711" on="1"/>
        <pt x="270" y="684" on="1"/>
        <pt x="216" y="665" on="1"/>
        <pt x="336" y="441" on="1"/>
        <pt x="354" y="412" on="1"/>
        <pt x="498" y="658" on="1"/>
        <pt x="448" y="685" on="1"/>
        <pt x="452" y="710" on="1"/>
        <pt x="663" y="695" on="1"/>
        <pt x="656" y="657" on="1"/>
        <pt x="581" y="642" on="1"/>
        <pt x="384" y="368" on="1"/>
        <pt x="384" y="366" on="1"/>
        <pt x="584" y="55" on="1"/>
        <pt x="663" y="35" on="1"/>
      </contour>
    </TTGlyph>
    <TTGlyph name="Y" xMin="0" yMin="2" xMax="630" yMax="710">
      <contour>
        <pt x="396" y="39" on="1"/>
        <pt x="401" y="2" on="1"/>
        <pt x="191" y="6" on="1"/>
        <pt x="189" y="30" on="1"/>
        <pt x="260" y="58" on="1"/>
        <pt x="257" y="307" on="1"/>
        <pt x="54" y="653" on="1"/>
        <pt x="0" y="674" on="1"/>
        <pt x="3" y="700" on="1"/>
        <pt x="213" y="704" on="1"/>
        <pt x="206" y="667" on="1"/>
        <pt x="171" y="655" on="1"/>
        <pt x="301" y="389" on="1"/>
        <pt x="472" y="662" on="1"/>
        <pt x="408" y="679" on="1"/>
        <pt x="410" y="709" on="1"/>
        <pt x="625" y="710" on="1"/>
        <pt x="630" y="681" on="1"/>
        <pt x="548" y="655" on="1"/>
        <pt x="323" y="314" on="1"/>
        <pt x="329" y="60" on="1"/>
      </contour>
    </TTGlyph>
    <TTGlyph name="Yacute" xMin="0" yMin="2" xMax="630" yMax="869">
      <component glyphName=".ttfautohint" x="0" y="2" flags="0x0"/>
      <component glyphName="Y" x="0" y="0" flags="0x204"/>
      <component glyphName="acute" x="268" y="160" flags="0x4"/>
    </TTGlyph>
    <TTGlyph name="Ydieresis" xMin="0" yMin="2" xMax="630" yMax="864">
      <component glyphName=".ttfautohint" x="0" y="2" flags="0x0"/>
      <component glyphName="Y" x="0" y="0" flags="0x204"/>
      <component glyphName="dieresis" x="181" y="170" flags="0x4"/>
    </TTGlyph>
    <TTGlyph name="Z" xMin="30" yMin="2" xMax="530" yMax="715">
      <contour>
        <pt x="66" y="715" on="1"/>
        <pt x="119" y="697" on="1"/>
        <pt x="514" y="704" on="1"/>
        <pt x="522" y="638" on="1"/>
        <pt x="139" y="94" on="1"/>
        <pt x="161" y="75" on="1"/>
        <pt x="423" y="93" on="1"/>
        <pt x="431" y="147" on="1"/>
        <pt x="513" y="153" on="1"/>
        <pt x="530" y="13" on="1"/>
        <pt x="43" y="2" on="1"/>
        <pt x="30" y="75" on="1"/>
        <pt x="413" y="623" on="1"/>
        <pt x="142" y="626" on="1"/>
        <pt x="125" y="578" on="1"/>
        <pt x="50" y="594" on="1"/>
      </contour>
    </TTGlyph>
    <TTGlyph name="Zacute" xMin="30" yMin="2" xMax="530" yMax="889">
      <component glyphName=".ttfautohint" x="30" y="2" flags="0x0"/>
      <component glyphName="Z" x="0" y="0" flags="0x204"/>
      <component glyphName="acute" x="263" y="180" flags="0x4"/>
    </TTGlyph>
    <TTGlyph name="Zcaron" xMin="30" yMin="2" xMax="530" yMax="885">
      <component glyphName=".ttfautohint" x="30" y="2" flags="0x0"/>
      <component glyphName="Z" x="0" y="0" flags="0x204"/>
      <component glyphName="caron" x="120" y="160" flags="0x4"/>
    </TTGlyph>
    <TTGlyph name="Zdotaccent" xMin="30" yMin="2" xMax="530" yMax="851">
      <component glyphName=".ttfautohint" x="30" y="2" flags="0x0"/>
      <component glyphName="Z" x="0" y="0" flags="0x204"/>
      <component glyphName="dotaccent" x="235" y="160" flags="0x4"/>
    </TTGlyph>
    <TTGlyph name="a" xMin="50" yMin="-25" xMax="499" yMax="529">
      <contour>
        <pt x="247" y="259" on="1"/>
        <pt x="135" y="184" on="1"/>
        <pt x="132" y="72" on="1"/>
        <pt x="172" y="51" on="1"/>
        <pt x="192" y="52" on="0"/>
        <pt x="209" y="53" on="1"/>
        <pt x="223" y="54" on="0"/>
        <pt x="246" y="57" on="0"/>
        <pt x="246" y="59" on="1"/>
        <pt x="246" y="59" on="0"/>
        <pt x="254" y="71" on="0"/>
        <pt x="267" y="90" on="0"/>
        <pt x="283" y="113" on="0"/>
        <pt x="292" y="125" on="1"/>
        <pt x="312" y="153" on="0"/>
        <pt x="339" y="189" on="1"/>
        <pt x="332" y="262" on="1"/>
      </contour>
      <contour>
        <pt x="183" y="529" on="1"/>
        <pt x="409" y="476" on="1"/>
        <pt x="413" y="65" on="1"/>
        <pt x="498" y="59" on="1"/>
        <pt x="499" y="13" on="1"/>
        <pt x="375" y="1" on="1"/>
        <pt x="333" y="89" on="1"/>
        <pt x="281" y="7" on="1"/>
        <pt x="112" y="-25" on="1"/>
        <pt x="50" y="50" on="1"/>
        <pt x="54" y="202" on="1"/>
        <pt x="225" y="313" on="1"/>
        <pt x="331" y="327" on="1"/>
        <pt x="339" y="436" on="1"/>
        <pt x="172" y="458" on="1"/>
        <pt x="123" y="373" on="1"/>
        <pt x="68" y="431" on="1"/>
        <pt x="78" y="456" on="1"/>
      </contour>
    </TTGlyph>
    <TTGlyph name="aacute" xMin="50" yMin="-25" xMax="499" yMax="700">
      <component glyphName=".ttfautohint" x="50" y="0" flags="0x0"/>
      <component glyphName="a" x="0" y="0" flags="0x204"/>
      <component glyphName="acute" x="217" y="-9" flags="0x4"/>
    </TTGlyph>
    <TTGlyph name="abreve" xMin="50" yMin="-25" xMax="499" yMax="710">
      <component glyphName=".ttfautohint" x="50" y="0" flags="0x0"/>
      <component glyphName="a" x="0" y="0" flags="0x204"/>
      <component glyphName="breve" x="78" y="-19" flags="0x4"/>
    </TTGlyph>
    <TTGlyph name="acircumflex" xMin="50" yMin="-25" xMax="499" yMax="716">
      <component glyphName=".ttfautohint" x="50" y="0" flags="0x0"/>
      <component glyphName="a" x="0" y="0" flags="0x204"/>
      <component glyphName="circumflex" x="94" y="-9" flags="0x4"/>
    </TTGlyph>
    <TTGlyph name="acute" xMin="0" yMin="570" xMax="134" yMax="709">
      <contour>
        <pt x="0" y="570" on="1"/>
        <pt x="43" y="709" on="1"/>
        <pt x="90" y="706" on="1"/>
        <pt x="134" y="709" on="1"/>
        <pt x="85" y="633" on="1"/>
        <pt x="43" y="570" on="1"/>
      </contour>
    </TTGlyph>
    <TTGlyph name="adieresis" xMin="50" yMin="-25" xMax="499" yMax="665">
      <component glyphName=".ttfautohint" x="50" y="0" flags="0x0"/>
      <component glyphName="a" x="0" y="0" flags="0x204"/>
      <component glyphName="dieresis" x="110" y="-29" flags="0x4"/>
    </TTGlyph>
    <TTGlyph name="ae" xMin="50" yMin="-13" xMax="672" yMax="523">
      <contour>
        <pt x="238" y="73" on="1"/>
        <pt x="238" y="74" on="0"/>
        <pt x="265" y="113" on="0"/>
        <pt x="282" y="136" on="1"/>
        <pt x="301" y="163" on="0"/>
        <pt x="327" y="197" on="1"/>
        <pt x="318" y="265" on="1"/>
        <pt x="239" y="264" on="1"/>
        <pt x="130" y="191" on="1"/>
        <pt x="127" y="85" on="1"/>
        <pt x="165" y="64" on="1"/>
        <pt x="201" y="66" on="1"/>
        <pt x="215" y="67" on="0"/>
        <pt x="238" y="70" on="0"/>
      </contour>
      <contour>
        <pt x="385" y="257" on="1"/>
        <pt x="387" y="261" on="1"/>
        <pt x="565" y="284" on="1"/>
        <pt x="572" y="398" on="1"/>
        <pt x="505" y="454" on="1"/>
        <pt x="394" y="408" on="1"/>
      </contour>
      <contour>
        <pt x="519" y="-13" on="1"/>
        <pt x="368" y="33" on="1"/>
        <pt x="339" y="117" on="1"/>
        <pt x="270" y="22" on="1"/>
        <pt x="110" y="-9" on="1"/>
        <pt x="50" y="62" on="1"/>
        <pt x="52" y="207" on="1"/>
        <pt x="214" y="314" on="1"/>
        <pt x="317" y="329" on="1"/>
        <pt x="327" y="434" on="1"/>
        <pt x="165" y="454" on="1"/>
        <pt x="118" y="371" on="1"/>
        <pt x="66" y="429" on="1"/>
        <pt x="74" y="451" on="1"/>
        <pt x="176" y="523" on="1"/>
        <pt x="366" y="471" on="1"/>
        <pt x="448" y="505" on="1"/>
        <pt x="570" y="494" on="1"/>
        <pt x="649" y="397" on="1"/>
        <pt x="642" y="239" on="1"/>
        <pt x="396" y="197" on="1"/>
        <pt x="427" y="81" on="1"/>
        <pt x="447" y="58" on="1"/>
        <pt x="529" y="44" on="1"/>
        <pt x="607" y="91" on="1"/>
        <pt x="645" y="134" on="1"/>
        <pt x="664" y="122" on="1"/>
        <pt x="672" y="44" on="1"/>
      </contour>
    </TTGlyph>
    <TTGlyph name="afii10017" xMin="3" yMin="-8" xMax="615" yMax="706">
      <contour>
        <pt x="615" y="0" on="1"/>
        <pt x="421" y="0" on="1"/>
        <pt x="398" y="24" on="1"/>
        <pt x="476" y="46" on="1"/>
        <pt x="445" y="187" on="1"/>
        <pt x="421" y="233" on="1"/>
        <pt x="173" y="202" on="1"/>
        <pt x="157" y="148" on="1"/>
        <pt x="142" y="46" on="1"/>
        <pt x="204" y="24" on="1"/>
        <pt x="204" y="-8" on="1"/>
        <pt x="3" y="7" on="1"/>
        <pt x="3" y="39" on="1"/>
        <pt x="64" y="54" on="1"/>
        <pt x="250" y="706" on="1"/>
        <pt x="359" y="690" on="1"/>
        <pt x="554" y="54" on="1"/>
        <pt x="608" y="39" on="1"/>
      </contour>
      <contour>
        <pt x="398" y="302" on="1"/>
        <pt x="313" y="613" on="1"/>
        <pt x="298" y="605" on="1"/>
        <pt x="196" y="280" on="1"/>
        <pt x="196" y="263" on="1"/>
      </contour>
    </TTGlyph>
    <TTGlyph name="afii10018" xMin="30" yMin="-2" xMax="549" yMax="716">
      <contour>
        <pt x="470" y="153" on="1"/>
        <pt x="474" y="298" on="1"/>
        <pt x="369" y="378" on="1"/>
        <pt x="219" y="347" on="1"/>
        <pt x="204" y="335" on="1"/>
        <pt x="197" y="88" on="1"/>
        <pt x="220" y="69" on="1"/>
        <pt x="363" y="75" on="1"/>
      </contour>
      <contour>
        <pt x="549" y="144" on="1"/>
        <pt x="413" y="-2" on="1"/>
        <pt x="128" y="3" on="1"/>
        <pt x="128" y="5" on="1"/>
        <pt x="39" y="6" on="1"/>
        <pt x="34" y="39" on="1"/>
        <pt x="126" y="56" on="1"/>
        <pt x="111" y="633" on="1"/>
        <pt x="36" y="662" on="1"/>
        <pt x="30" y="695" on="1"/>
        <pt x="132" y="695" on="1"/>
        <pt x="132" y="695" on="1"/>
        <pt x="273" y="699" on="1"/>
        <pt x="418" y="692" on="1"/>
        <pt x="485" y="716" on="1"/>
        <pt x="514" y="653" on="1"/>
        <pt x="432" y="628" on="1"/>
        <pt x="231" y="627" on="1"/>
        <pt x="192" y="613" on="1"/>
        <pt x="200" y="441" on="1"/>
        <pt x="212" y="421" on="1"/>
        <pt x="366" y="457" on="1"/>
        <pt x="439" y="412" on="1"/>
        <pt x="515" y="359" on="1"/>
      </contour>
    </TTGlyph>
    <TTGlyph name="afii10019" xMin="30" yMin="-2" xMax="552" yMax="699">
      <contour>
        <pt x="472" y="163" on="1"/>
        <pt x="468" y="257" on="1"/>
        <pt x="374" y="343" on="1"/>
        <pt x="234" y="316" on="1"/>
        <pt x="219" y="304" on="1"/>
        <pt x="213" y="88" on="1"/>
        <pt x="235" y="69" on="1"/>
        <pt x="379" y="75" on="1"/>
      </contour>
      <contour>
        <pt x="208" y="613" on="1"/>
        <pt x="215" y="409" on="1"/>
        <pt x="228" y="389" on="1"/>
        <pt x="370" y="421" on="1"/>
        <pt x="454" y="495" on="1"/>
        <pt x="391" y="629" on="1"/>
        <pt x="247" y="627" on="1"/>
      </contour>
      <contour>
        <pt x="552" y="153" on="1"/>
        <pt x="429" y="-2" on="1"/>
        <pt x="144" y="3" on="1"/>
        <pt x="144" y="5" on="1"/>
        <pt x="35" y="6" on="1"/>
        <pt x="30" y="39" on="1"/>
        <pt x="141" y="56" on="1"/>
        <pt x="125" y="633" on="1"/>
        <pt x="39" y="662" on="1"/>
        <pt x="32" y="695" on="1"/>
        <pt x="147" y="695" on="1"/>
        <pt x="147" y="695" on="1"/>
        <pt x="288" y="699" on="1"/>
        <pt x="446" y="678" on="1"/>
        <pt x="532" y="477" on="1"/>
        <pt x="433" y="372" on="1"/>
        <pt x="509" y="319" on="1"/>
      </contour>
    </TTGlyph>
    <TTGlyph name="afii10020" xMin="30" yMin="0" xMax="490" yMax="700">
      <contour>
        <pt x="490" y="612" on="1"/>
        <pt x="489" y="550" on="1"/>
        <pt x="402" y="563" on="1"/>
        <pt x="416" y="629" on="1"/>
        <pt x="186" y="625" on="1"/>
        <pt x="193" y="52" on="1"/>
        <pt x="252" y="35" on="1"/>
        <pt x="246" y="0" on="1"/>
        <pt x="34" y="0" on="1"/>
        <pt x="30" y="28" on="1"/>
        <pt x="90" y="48" on="1"/>
        <pt x="100" y="635" on="1"/>
        <pt x="49" y="667" on="1"/>
        <pt x="50" y="687" on="1"/>
        <pt x="484" y="700" on="1"/>
      </contour>
    </TTGlyph>
    <TTGlyph name="afii10021" xMin="0" yMin="-170" xMax="673" yMax="706">
      <contour>
        <pt x="318" y="69" on="1"/>
        <pt x="479" y="65" on="1"/>
        <pt x="492" y="624" on="1"/>
        <pt x="443" y="624" on="1"/>
        <pt x="278" y="609" on="1"/>
        <pt x="274" y="406" on="1"/>
        <pt x="225" y="109" on="1"/>
        <pt x="205" y="66" on="1"/>
      </contour>
      <contour>
        <pt x="673" y="34" on="1"/>
        <pt x="646" y="-161" on="1"/>
        <pt x="577" y="-170" on="1"/>
        <pt x="599" y="-3" on="1"/>
        <pt x="396" y="8" on="1"/>
        <pt x="93" y="2" on="1"/>
        <pt x="107" y="-147" on="1"/>
        <pt x="52" y="-156" on="1"/>
        <pt x="0" y="35" on="1"/>
        <pt x="29" y="60" on="1"/>
        <pt x="81" y="63" on="1"/>
        <pt x="110" y="71" on="1"/>
        <pt x="155" y="122" on="1"/>
        <pt x="205" y="417" on="1"/>
        <pt x="205" y="623" on="1"/>
        <pt x="126" y="647" on="1"/>
        <pt x="132" y="699" on="1"/>
        <pt x="414" y="689" on="1"/>
        <pt x="649" y="706" on="1"/>
        <pt x="667" y="640" on="1"/>
        <pt x="604" y="624" on="1"/>
        <pt x="584" y="622" on="1"/>
        <pt x="580" y="63" on="1"/>
        <pt x="660" y="60" on="1"/>
      </contour>
    </TTGlyph>
    <TTGlyph name="afii10022" xMin="20" yMin="-9" xMax="566" yMax="699">
      <contour>
        <pt x="566" y="-9" on="1"/>
        <pt x="56" y="-2" on="1"/>
        <pt x="50" y="32" on="1"/>
        <pt x="149" y="49" on="1"/>
        <pt x="116" y="635" on="1"/>
        <pt x="29" y="665" on="1"/>
        <pt x="20" y="699" on="1"/>
        <pt x="548" y="687" on="1"/>
        <pt x="549" y="560" on="1"/>
        <pt x="499" y="562" on="1"/>
        <pt x="485" y="623" on="1"/>
        <pt x="219" y="624" on="1"/>
        <pt x="200" y="600" on="1"/>
        <pt x="205" y="389" on="1"/>
        <pt x="507" y="368" on="1"/>
        <pt x="498" y="325" on="1"/>
        <pt x="207" y="320" on="1"/>
        <pt x="205" y="237" on="1"/>
        <pt x="255" y="71" on="1"/>
        <pt x="504" y="61" on="1"/>
        <pt x="515" y="141" on="1"/>
        <pt x="565" y="146" on="1"/>
      </contour>
    </TTGlyph>
    <TTGlyph name="afii10023" xMin="20" yMin="2" xMax="554" yMax="838">
      <contour>
        <pt x="458" y="817" on="1"/>
        <pt x="454" y="763" on="1"/>
        <pt x="398" y="739" on="1"/>
        <pt x="368" y="799" on="1"/>
        <pt x="396" y="830" on="1"/>
      </contour>
      <contour>
        <pt x="273" y="812" on="1"/>
        <pt x="277" y="764" on="1"/>
        <pt x="209" y="741" on="1"/>
        <pt x="180" y="794" on="1"/>
        <pt x="209" y="838" on="1"/>
      </contour>
      <contour>
        <pt x="554" y="2" on="1"/>
        <pt x="54" y="9" on="1"/>
        <pt x="49" y="41" on="1"/>
        <pt x="146" y="59" on="1"/>
        <pt x="113" y="631" on="1"/>
        <pt x="26" y="660" on="1"/>
        <pt x="20" y="693" on="1"/>
        <pt x="537" y="682" on="1"/>
        <pt x="537" y="557" on="1"/>
        <pt x="489" y="559" on="1"/>
        <pt x="476" y="619" on="1"/>
        <pt x="214" y="621" on="1"/>
        <pt x="196" y="597" on="1"/>
        <pt x="200" y="390" on="1"/>
        <pt x="496" y="371" on="1"/>
        <pt x="488" y="328" on="1"/>
        <pt x="202" y="323" on="1"/>
        <pt x="200" y="244" on="1"/>
        <pt x="250" y="80" on="1"/>
        <pt x="494" y="70" on="1"/>
        <pt x="504" y="148" on="1"/>
        <pt x="553" y="152" on="1"/>
      </contour>
    </TTGlyph>
    <TTGlyph name="afii10024" xMin="0" yMin="-31" xMax="884" yMax="701">
      <contour>
        <pt x="884" y="49" on="1"/>
        <pt x="824" y="-31" on="1"/>
        <pt x="693" y="47" on="1"/>
        <pt x="622" y="271" on="1"/>
        <pt x="514" y="337" on="1"/>
        <pt x="482" y="325" on="1"/>
        <pt x="479" y="49" on="1"/>
        <pt x="555" y="35" on="1"/>
        <pt x="561" y="-4" on="1"/>
        <pt x="337" y="0" on="1"/>
        <pt x="334" y="27" on="1"/>
        <pt x="408" y="47" on="1"/>
        <pt x="408" y="326" on="1"/>
        <pt x="374" y="337" on="1"/>
        <pt x="264" y="271" on="1"/>
        <pt x="191" y="47" on="1"/>
        <pt x="61" y="-31" on="1"/>
        <pt x="0" y="49" on="1"/>
        <pt x="131" y="108" on="1"/>
        <pt x="207" y="342" on="1"/>
        <pt x="270" y="374" on="1"/>
        <pt x="232" y="402" on="1"/>
        <pt x="141" y="627" on="1"/>
        <pt x="71" y="641" on="1"/>
        <pt x="86" y="701" on="1"/>
        <pt x="205" y="677" on="1"/>
        <pt x="267" y="456" on="1"/>
        <pt x="359" y="405" on="1"/>
        <pt x="408" y="394" on="1"/>
        <pt x="408" y="642" on="1"/>
        <pt x="317" y="672" on="1"/>
        <pt x="321" y="701" on="1"/>
        <pt x="548" y="701" on="1"/>
        <pt x="553" y="664" on="1"/>
        <pt x="493" y="647" on="1"/>
        <pt x="487" y="646" on="1"/>
        <pt x="484" y="392" on="1"/>
        <pt x="529" y="405" on="1"/>
        <pt x="619" y="456" on="1"/>
        <pt x="679" y="677" on="1"/>
        <pt x="798" y="701" on="1"/>
        <pt x="815" y="641" on="1"/>
        <pt x="743" y="627" on="1"/>
        <pt x="653" y="402" on="1"/>
        <pt x="616" y="374" on="1"/>
        <pt x="679" y="342" on="1"/>
        <pt x="755" y="108" on="1"/>
      </contour>
    </TTGlyph>
    <TTGlyph name="afii10025" xMin="30" yMin="-19" xMax="504" yMax="720">
      <contour>
        <pt x="376" y="719" on="1"/>
        <pt x="457" y="608" on="1"/>
        <pt x="466" y="418" on="1"/>
        <pt x="322" y="364" on="1"/>
        <pt x="478" y="309" on="1"/>
        <pt x="504" y="127" on="1"/>
        <pt x="281" y="-19" on="1"/>
        <pt x="30" y="71" on="1"/>
        <pt x="45" y="246" on="1"/>
        <pt x="117" y="251" on="1"/>
        <pt x="98" y="117" on="1"/>
        <pt x="269" y="59" on="1"/>
        <pt x="419" y="173" on="1"/>
        <pt x="366" y="299" on="1"/>
        <pt x="203" y="349" on="1"/>
        <pt x="220" y="391" on="1"/>
        <pt x="380" y="434" on="1"/>
        <pt x="385" y="572" on="1"/>
        <pt x="255" y="661" on="1"/>
        <pt x="135" y="611" on="1"/>
        <pt x="141" y="517" on="1"/>
        <pt x="57" y="541" on="1"/>
        <pt x="88" y="647" on="1"/>
        <pt x="251" y="720" on="1"/>
      </contour>
    </TTGlyph>
    <TTGlyph name="afii10026" xMin="30" yMin="-13" xMax="687" yMax="696">
      <contour>
        <pt x="111" y="60" on="1"/>
        <pt x="107" y="643" on="1"/>
        <pt x="34" y="665" on="1"/>
        <pt x="39" y="696" on="1"/>
        <pt x="273" y="694" on="1"/>
        <pt x="274" y="664" on="1"/>
        <pt x="201" y="645" on="1"/>
        <pt x="189" y="167" on="1"/>
        <pt x="514" y="612" on="1"/>
        <pt x="513" y="645" on="1"/>
        <pt x="442" y="661" on="1"/>
        <pt x="446" y="691" on="1"/>
        <pt x="675" y="689" on="1"/>
        <pt x="677" y="658" on="1"/>
        <pt x="607" y="639" on="1"/>
        <pt x="599" y="53" on="1"/>
        <pt x="687" y="18" on="1"/>
        <pt x="683" y="-8" on="1"/>
        <pt x="463" y="-13" on="1"/>
        <pt x="469" y="26" on="1"/>
        <pt x="523" y="42" on="1"/>
        <pt x="518" y="526" on="1"/>
        <pt x="195" y="91" on="1"/>
        <pt x="195" y="45" on="1"/>
        <pt x="247" y="25" on="1"/>
        <pt x="246" y="-2" on="1"/>
        <pt x="30" y="-3" on="1"/>
        <pt x="35" y="36" on="1"/>
      </contour>
    </TTGlyph>
    <TTGlyph name="afii10027" xMin="30" yMin="-8" xMax="682" yMax="909">
      <contour>
        <pt x="337" y="807" on="1"/>
        <pt x="362" y="788" on="1"/>
        <pt x="464" y="909" on="1"/>
        <pt x="530" y="848" on="1"/>
        <pt x="370" y="758" on="1"/>
        <pt x="337" y="758" on="1"/>
        <pt x="177" y="865" on="1"/>
        <pt x="227" y="900" on="1"/>
      </contour>
      <contour>
        <pt x="110" y="63" on="1"/>
        <pt x="106" y="641" on="1"/>
        <pt x="36" y="663" on="1"/>
        <pt x="40" y="693" on="1"/>
        <pt x="271" y="693" on="1"/>
        <pt x="272" y="662" on="1"/>
        <pt x="201" y="643" on="1"/>
        <pt x="187" y="169" on="1"/>
        <pt x="511" y="610" on="1"/>
        <pt x="510" y="643" on="1"/>
        <pt x="440" y="659" on="1"/>
        <pt x="443" y="689" on="1"/>
        <pt x="670" y="687" on="1"/>
        <pt x="671" y="657" on="1"/>
        <pt x="602" y="637" on="1"/>
        <pt x="594" y="55" on="1"/>
        <pt x="682" y="22" on="1"/>
        <pt x="679" y="-5" on="1"/>
        <pt x="461" y="-8" on="1"/>
        <pt x="465" y="29" on="1"/>
        <pt x="520" y="47" on="1"/>
        <pt x="514" y="524" on="1"/>
        <pt x="196" y="93" on="1"/>
        <pt x="196" y="48" on="1"/>
        <pt x="247" y="28" on="1"/>
        <pt x="245" y="0" on="1"/>
        <pt x="30" y="-1" on="1"/>
        <pt x="37" y="37" on="1"/>
      </contour>
    </TTGlyph>
    <TTGlyph name="afii10028" xMin="30" yMin="-26" xMax="630" yMax="706">
      <contour>
        <pt x="630" y="54" on="1"/>
        <pt x="570" y="-26" on="1"/>
        <pt x="440" y="52" on="1"/>
        <pt x="369" y="276" on="1"/>
        <pt x="283" y="342" on="1"/>
        <pt x="197" y="315" on="1"/>
        <pt x="195" y="54" on="1"/>
        <pt x="264" y="40" on="1"/>
        <pt x="269" y="1" on="1"/>
        <pt x="49" y="5" on="1"/>
        <pt x="45" y="32" on="1"/>
        <pt x="112" y="52" on="1"/>
        <pt x="112" y="647" on="1"/>
        <pt x="30" y="677" on="1"/>
        <pt x="31" y="706" on="1"/>
        <pt x="256" y="706" on="1"/>
        <pt x="262" y="669" on="1"/>
        <pt x="201" y="652" on="1"/>
        <pt x="203" y="651" on="1"/>
        <pt x="198" y="382" on="1"/>
        <pt x="298" y="410" on="1"/>
        <pt x="365" y="461" on="1"/>
        <pt x="426" y="682" on="1"/>
        <pt x="545" y="706" on="1"/>
        <pt x="562" y="646" on="1"/>
        <pt x="489" y="632" on="1"/>
        <pt x="400" y="407" on="1"/>
        <pt x="362" y="379" on="1"/>
        <pt x="424" y="347" on="1"/>
        <pt x="501" y="113" on="1"/>
      </contour>
    </TTGlyph>
    <TTGlyph name="afii10029" xMin="0" yMin="-17" xMax="613" yMax="711">
      <contour>
        <pt x="595" y="711" on="1"/>
        <pt x="613" y="643" on="1"/>
        <pt x="549" y="627" on="1"/>
        <pt x="528" y="625" on="1"/>
        <pt x="524" y="45" on="1"/>
        <pt x="573" y="27" on="1"/>
        <pt x="579" y="-10" on="1"/>
        <pt x="368" y="5" on="1"/>
        <pt x="365" y="32" on="1"/>
        <pt x="436" y="47" on="1"/>
        <pt x="450" y="628" on="1"/>
        <pt x="386" y="628" on="1"/>
        <pt x="282" y="612" on="1"/>
        <pt x="256" y="406" on="1"/>
        <pt x="201" y="104" on="1"/>
        <pt x="156" y="9" on="1"/>
        <pt x="17" y="-17" on="1"/>
        <pt x="0" y="43" on="1"/>
        <pt x="84" y="67" on="1"/>
        <pt x="129" y="117" on="1"/>
        <pt x="186" y="416" on="1"/>
        <pt x="208" y="625" on="1"/>
        <pt x="128" y="650" on="1"/>
        <pt x="132" y="703" on="1"/>
        <pt x="356" y="693" on="1"/>
      </contour>
    </TTGlyph>
    <TTGlyph name="afii10030" xMin="30" yMin="-5" xMax="786" yMax="709">
      <contour>
        <pt x="786" y="24" on="1"/>
        <pt x="783" y="-4" on="1"/>
        <pt x="569" y="-3" on="1"/>
        <pt x="567" y="27" on="1"/>
        <pt x="653" y="49" on="1"/>
        <pt x="663" y="608" on="1"/>
        <pt x="653" y="610" on="1"/>
        <pt x="439" y="18" on="1"/>
        <pt x="382" y="17" on="1"/>
        <pt x="183" y="596" on="1"/>
        <pt x="158" y="593" on="1"/>
        <pt x="188" y="52" on="1"/>
        <pt x="251" y="33" on="1"/>
        <pt x="258" y="-5" on="1"/>
        <pt x="51" y="-1" on="1"/>
        <pt x="48" y="25" on="1"/>
        <pt x="107" y="49" on="1"/>
        <pt x="100" y="662" on="1"/>
        <pt x="32" y="686" on="1"/>
        <pt x="30" y="709" on="1"/>
        <pt x="196" y="700" on="1"/>
        <pt x="223" y="656" on="1"/>
        <pt x="405" y="110" on="1"/>
        <pt x="416" y="111" on="1"/>
        <pt x="598" y="671" on="1"/>
        <pt x="624" y="706" on="1"/>
        <pt x="783" y="704" on="1"/>
        <pt x="783" y="671" on="1"/>
        <pt x="736" y="662" on="1"/>
        <pt x="716" y="47" on="1"/>
      </contour>
    </TTGlyph>
    <TTGlyph name="afii10031" xMin="30" yMin="-3" xMax="669" yMax="693">
      <contour>
        <pt x="598" y="59" on="1"/>
        <pt x="662" y="37" on="1"/>
        <pt x="658" y="8" on="1"/>
        <pt x="433" y="10" on="1"/>
        <pt x="431" y="39" on="1"/>
        <pt x="507" y="60" on="1"/>
        <pt x="509" y="323" on="1"/>
        <pt x="190" y="323" on="1"/>
        <pt x="175" y="60" on="1"/>
        <pt x="253" y="34" on="1"/>
        <pt x="259" y="-3" on="1"/>
        <pt x="40" y="0" on="1"/>
        <pt x="38" y="25" on="1"/>
        <pt x="114" y="55" on="1"/>
        <pt x="96" y="640" on="1"/>
        <pt x="30" y="663" on="1"/>
        <pt x="33" y="691" on="1"/>
        <pt x="253" y="693" on="1"/>
        <pt x="259" y="656" on="1"/>
        <pt x="193" y="636" on="1"/>
        <pt x="190" y="411" on="1"/>
        <pt x="516" y="373" on="1"/>
        <pt x="526" y="632" on="1"/>
        <pt x="461" y="652" on="1"/>
        <pt x="451" y="680" on="1"/>
        <pt x="660" y="691" on="1"/>
        <pt x="669" y="670" on="1"/>
        <pt x="599" y="630" on="1"/>
      </contour>
    </TTGlyph>
    <TTGlyph name="afii10032" xMin="50" yMin="-19" xMax="590" yMax="723">
      <contour>
        <pt x="172" y="621" on="1"/>
        <pt x="116" y="411" on="1"/>
        <pt x="167" y="168" on="1"/>
        <pt x="297" y="56" on="1"/>
        <pt x="383" y="49" on="1"/>
        <pt x="518" y="285" on="1"/>
        <pt x="466" y="528" on="1"/>
        <pt x="362" y="627" on="1"/>
      </contour>
      <contour>
        <pt x="416" y="705" on="1"/>
        <pt x="553" y="556" on="1"/>
        <pt x="590" y="265" on="1"/>
        <pt x="436" y="-13" on="1"/>
        <pt x="254" y="-19" on="1"/>
        <pt x="89" y="146" on="1"/>
        <pt x="50" y="403" on="1"/>
        <pt x="104" y="647" on="1"/>
        <pt x="213" y="723" on="1"/>
      </contour>
    </TTGlyph>
    <TTGlyph name="afii10033" xMin="30" yMin="-1" xMax="694" yMax="699">
      <contour>
        <pt x="607" y="623" on="1"/>
        <pt x="615" y="55" on="1"/>
        <pt x="666" y="29" on="1"/>
        <pt x="679" y="3" on="1"/>
        <pt x="461" y="-1" on="1"/>
        <pt x="467" y="37" on="1"/>
        <pt x="526" y="53" on="1"/>
        <pt x="526" y="622" on="1"/>
        <pt x="204" y="622" on="1"/>
        <pt x="206" y="53" on="1"/>
        <pt x="265" y="37" on="1"/>
        <pt x="270" y="-1" on="1"/>
        <pt x="53" y="3" on="1"/>
        <pt x="50" y="29" on="1"/>
        <pt x="116" y="55" on="1"/>
        <pt x="123" y="623" on="1"/>
        <pt x="96" y="623" on="1"/>
        <pt x="30" y="632" on="1"/>
        <pt x="49" y="699" on="1"/>
        <pt x="88" y="689" on="1"/>
        <pt x="643" y="689" on="1"/>
        <pt x="679" y="699" on="1"/>
        <pt x="694" y="631" on="1"/>
        <pt x="634" y="623" on="1"/>
      </contour>
    </TTGlyph>
    <TTGlyph name="afii10034" xMin="30" yMin="-3" xMax="513" yMax="710">
      <contour>
        <pt x="177" y="610" on="1"/>
        <pt x="189" y="347" on="1"/>
        <pt x="366" y="348" on="1"/>
        <pt x="452" y="455" on="1"/>
        <pt x="397" y="605" on="1"/>
        <pt x="264" y="637" on="1"/>
      </contour>
      <contour>
        <pt x="183" y="269" on="1"/>
        <pt x="183" y="53" on="1"/>
        <pt x="243" y="33" on="1"/>
        <pt x="249" y="-3" on="1"/>
        <pt x="41" y="2" on="1"/>
        <pt x="39" y="26" on="1"/>
        <pt x="110" y="54" on="1"/>
        <pt x="103" y="638" on="1"/>
        <pt x="69" y="665" on="1"/>
        <pt x="30" y="670" on="1"/>
        <pt x="35" y="707" on="1"/>
        <pt x="118" y="710" on="1"/>
        <pt x="164" y="686" on="1"/>
        <pt x="256" y="694" on="1"/>
        <pt x="470" y="651" on="1"/>
        <pt x="513" y="405" on="1"/>
        <pt x="388" y="283" on="1"/>
      </contour>
    </TTGlyph>
    <TTGlyph name="afii10035" xMin="45" yMin="-22" xMax="480" yMax="737">
      <contour>
        <pt x="425" y="70" on="1"/>
        <pt x="457" y="-6" on="1"/>
        <pt x="216" y="-22" on="1"/>
        <pt x="61" y="79" on="1"/>
        <pt x="45" y="529" on="1"/>
        <pt x="162" y="698" on="1"/>
        <pt x="356" y="737" on="1"/>
        <pt x="480" y="653" on="1"/>
        <pt x="356" y="489" on="1"/>
        <pt x="326" y="512" on="1"/>
        <pt x="387" y="628" on="1"/>
        <pt x="333" y="676" on="1"/>
        <pt x="201" y="645" on="1"/>
        <pt x="147" y="505" on="1"/>
        <pt x="147" y="117" on="1"/>
        <pt x="239" y="62" on="1"/>
      </contour>
    </TTGlyph>
    <TTGlyph name="afii10036" xMin="21" yMin="-9" xMax="556" yMax="699">
      <contour>
        <pt x="556" y="699" on="1"/>
        <pt x="541" y="589" on="1"/>
        <pt x="486" y="604" on="1"/>
        <pt x="486" y="643" on="1"/>
        <pt x="320" y="643" on="1"/>
        <pt x="343" y="45" on="1"/>
        <pt x="392" y="30" on="1"/>
        <pt x="392" y="-9" on="1"/>
        <pt x="187" y="-2" on="1"/>
        <pt x="187" y="23" on="1"/>
        <pt x="257" y="45" on="1"/>
        <pt x="249" y="643" on="1"/>
        <pt x="194" y="643" on="1"/>
        <pt x="93" y="628" on="1"/>
        <pt x="93" y="589" on="1"/>
        <pt x="29" y="581" on="1"/>
        <pt x="21" y="699" on="1"/>
        <pt x="170" y="699" on="1"/>
      </contour>
    </TTGlyph>
    <TTGlyph name="afii10037" xMin="0" yMin="-23" xMax="677" yMax="708">
      <contour>
        <pt x="191" y="-23" on="1"/>
        <pt x="125" y="-14" on="1"/>
        <pt x="122" y="83" on="1"/>
        <pt x="257" y="44" on="1"/>
        <pt x="309" y="134" on="1"/>
        <pt x="59" y="646" on="1"/>
        <pt x="0" y="670" on="1"/>
        <pt x="3" y="698" on="1"/>
        <pt x="219" y="701" on="1"/>
        <pt x="212" y="661" on="1"/>
        <pt x="173" y="649" on="1"/>
        <pt x="349" y="219" on="1"/>
        <pt x="509" y="655" on="1"/>
        <pt x="438" y="675" on="1"/>
        <pt x="439" y="707" on="1"/>
        <pt x="673" y="708" on="1"/>
        <pt x="677" y="677" on="1"/>
        <pt x="589" y="649" on="1"/>
        <pt x="376" y="115" on="1"/>
        <pt x="320" y="3" on="1"/>
      </contour>
    </TTGlyph>
    <TTGlyph name="afii10038" xMin="30" yMin="-25" xMax="803" yMax="746">
      <contour>
        <pt x="458" y="216" on="1"/>
        <pt x="646" y="193" on="1"/>
        <pt x="736" y="334" on="1"/>
        <pt x="679" y="536" on="1"/>
        <pt x="537" y="569" on="1"/>
        <pt x="445" y="542" on="1"/>
      </contour>
      <contour>
        <pt x="371" y="215" on="1"/>
        <pt x="367" y="549" on="1"/>
        <pt x="294" y="569" on="1"/>
        <pt x="153" y="536" on="1"/>
        <pt x="94" y="334" on="1"/>
        <pt x="185" y="193" on="1"/>
      </contour>
      <contour>
        <pt x="451" y="132" on="1"/>
        <pt x="451" y="33" on="1"/>
        <pt x="515" y="13" on="1"/>
        <pt x="519" y="-25" on="1"/>
        <pt x="302" y="-22" on="1"/>
        <pt x="298" y="5" on="1"/>
        <pt x="374" y="33" on="1"/>
        <pt x="372" y="133" on="1"/>
        <pt x="162" y="124" on="1"/>
        <pt x="30" y="280" on="1"/>
        <pt x="75" y="586" on="1"/>
        <pt x="303" y="630" on="1"/>
        <pt x="374" y="622" on="1"/>
        <pt x="373" y="700" on="1"/>
        <pt x="324" y="711" on="1"/>
        <pt x="321" y="742" on="1"/>
        <pt x="489" y="746" on="1"/>
        <pt x="488" y="715" on="1"/>
        <pt x="440" y="700" on="1"/>
        <pt x="442" y="622" on="1"/>
        <pt x="528" y="630" on="1"/>
        <pt x="756" y="586" on="1"/>
        <pt x="803" y="280" on="1"/>
        <pt x="667" y="124" on="1"/>
      </contour>
    </TTGlyph>
    <TTGlyph name="afii10039" xMin="0" yMin="-5" xMax="660" yMax="703">
      <contour>
        <pt x="660" y="1" on="1"/>
        <pt x="451" y="-5" on="1"/>
        <pt x="447" y="22" on="1"/>
        <pt x="495" y="42" on="1"/>
        <pt x="371" y="262" on="1"/>
        <pt x="327" y="332" on="1"/>
        <pt x="172" y="42" on="1"/>
        <pt x="219" y="26" on="1"/>
        <pt x="216" y="-3" on="1"/>
        <pt x="1" y="-2" on="1"/>
        <pt x="0" y="28" on="1"/>
        <pt x="71" y="47" on="1"/>
        <pt x="293" y="383" on="1"/>
        <pt x="107" y="655" on="1"/>
        <pt x="47" y="673" on="1"/>
        <pt x="48" y="702" on="1"/>
        <pt x="261" y="703" on="1"/>
        <pt x="266" y="676" on="1"/>
        <pt x="212" y="658" on="1"/>
        <pt x="330" y="438" on="1"/>
        <pt x="348" y="410" on="1"/>
        <pt x="491" y="652" on="1"/>
        <pt x="440" y="677" on="1"/>
        <pt x="444" y="702" on="1"/>
        <pt x="652" y="687" on="1"/>
        <pt x="645" y="651" on="1"/>
        <pt x="571" y="635" on="1"/>
        <pt x="378" y="365" on="1"/>
        <pt x="378" y="363" on="1"/>
        <pt x="574" y="58" on="1"/>
        <pt x="652" y="38" on="1"/>
      </contour>
    </TTGlyph>
    <TTGlyph name="afii10040" xMin="30" yMin="-148" xMax="722" yMax="702">
      <contour>
        <pt x="707" y="-6" on="1"/>
        <pt x="669" y="-146" on="1"/>
        <pt x="612" y="-148" on="1"/>
        <pt x="624" y="4" on="1"/>
        <pt x="77" y="5" on="1"/>
        <pt x="78" y="54" on="1"/>
        <pt x="103" y="70" on="1"/>
        <pt x="97" y="646" on="1"/>
        <pt x="30" y="671" on="1"/>
        <pt x="34" y="699" on="1"/>
        <pt x="252" y="702" on="1"/>
        <pt x="247" y="663" on="1"/>
        <pt x="198" y="647" on="1"/>
        <pt x="196" y="70" on="1"/>
        <pt x="543" y="70" on="1"/>
        <pt x="543" y="647" on="1"/>
        <pt x="494" y="663" on="1"/>
        <pt x="489" y="702" on="1"/>
        <pt x="707" y="699" on="1"/>
        <pt x="694" y="671" on="1"/>
        <pt x="643" y="646" on="1"/>
        <pt x="635" y="70" on="1"/>
        <pt x="662" y="69" on="1"/>
        <pt x="722" y="65" on="1"/>
      </contour>
    </TTGlyph>
    <TTGlyph name="afii10041" xMin="20" yMin="-8" xMax="625" yMax="698">
      <contour>
        <pt x="554" y="43" on="1"/>
        <pt x="616" y="22" on="1"/>
        <pt x="612" y="-8" on="1"/>
        <pt x="392" y="-6" on="1"/>
        <pt x="390" y="24" on="1"/>
        <pt x="464" y="44" on="1"/>
        <pt x="467" y="310" on="1"/>
        <pt x="180" y="262" on="1"/>
        <pt x="97" y="318" on="1"/>
        <pt x="85" y="647" on="1"/>
        <pt x="20" y="672" on="1"/>
        <pt x="23" y="698" on="1"/>
        <pt x="241" y="698" on="1"/>
        <pt x="246" y="664" on="1"/>
        <pt x="180" y="644" on="1"/>
        <pt x="171" y="371" on="1"/>
        <pt x="248" y="337" on="1"/>
        <pt x="472" y="360" on="1"/>
        <pt x="482" y="637" on="1"/>
        <pt x="417" y="660" on="1"/>
        <pt x="410" y="686" on="1"/>
        <pt x="613" y="698" on="1"/>
        <pt x="625" y="675" on="1"/>
        <pt x="554" y="636" on="1"/>
      </contour>
    </TTGlyph>
    <TTGlyph name="afii10042" xMin="30" yMin="3" xMax="869" yMax="699">
      <contour>
        <pt x="855" y="53" on="1"/>
        <pt x="860" y="7" on="1"/>
        <pt x="836" y="3" on="1"/>
        <pt x="546" y="3" on="1"/>
        <pt x="515" y="3" on="1"/>
        <pt x="64" y="4" on="1"/>
        <pt x="63" y="49" on="1"/>
        <pt x="90" y="56" on="1"/>
        <pt x="83" y="652" on="1"/>
        <pt x="30" y="673" on="1"/>
        <pt x="32" y="696" on="1"/>
        <pt x="209" y="699" on="1"/>
        <pt x="204" y="668" on="1"/>
        <pt x="163" y="653" on="1"/>
        <pt x="162" y="57" on="1"/>
        <pt x="367" y="50" on="1"/>
        <pt x="416" y="57" on="1"/>
        <pt x="416" y="653" on="1"/>
        <pt x="375" y="668" on="1"/>
        <pt x="371" y="699" on="1"/>
        <pt x="547" y="696" on="1"/>
        <pt x="537" y="673" on="1"/>
        <pt x="496" y="652" on="1"/>
        <pt x="490" y="56" on="1"/>
        <pt x="538" y="53" on="1"/>
        <pt x="737" y="57" on="1"/>
        <pt x="737" y="653" on="1"/>
        <pt x="697" y="668" on="1"/>
        <pt x="694" y="699" on="1"/>
        <pt x="869" y="696" on="1"/>
        <pt x="860" y="673" on="1"/>
        <pt x="818" y="652" on="1"/>
        <pt x="812" y="56" on="1"/>
      </contour>
    </TTGlyph>
    <TTGlyph name="afii10043" xMin="30" yMin="-163" xMax="900" yMax="704">
      <contour>
        <pt x="889" y="39" on="1"/>
        <pt x="900" y="-16" on="1"/>
        <pt x="862" y="-159" on="1"/>
        <pt x="814" y="-163" on="1"/>
        <pt x="825" y="-8" on="1"/>
        <pt x="551" y="-5" on="1"/>
        <pt x="520" y="-5" on="1"/>
        <pt x="64" y="-2" on="1"/>
        <pt x="64" y="41" on="1"/>
        <pt x="91" y="49" on="1"/>
        <pt x="86" y="659" on="1"/>
        <pt x="30" y="681" on="1"/>
        <pt x="32" y="702" on="1"/>
        <pt x="210" y="704" on="1"/>
        <pt x="207" y="674" on="1"/>
        <pt x="167" y="661" on="1"/>
        <pt x="166" y="50" on="1"/>
        <pt x="372" y="45" on="1"/>
        <pt x="421" y="50" on="1"/>
        <pt x="421" y="661" on="1"/>
        <pt x="379" y="674" on="1"/>
        <pt x="375" y="704" on="1"/>
        <pt x="553" y="702" on="1"/>
        <pt x="543" y="681" on="1"/>
        <pt x="503" y="659" on="1"/>
        <pt x="495" y="49" on="1"/>
        <pt x="545" y="46" on="1"/>
        <pt x="745" y="50" on="1"/>
        <pt x="745" y="661" on="1"/>
        <pt x="706" y="674" on="1"/>
        <pt x="700" y="704" on="1"/>
        <pt x="880" y="702" on="1"/>
        <pt x="868" y="681" on="1"/>
        <pt x="826" y="659" on="1"/>
        <pt x="820" y="49" on="1"/>
      </contour>
    </TTGlyph>
    <TTGlyph name="afii10044" xMin="-30" yMin="-11" xMax="630" yMax="716">
      <contour>
        <pt x="369" y="65" on="1"/>
        <pt x="509" y="100" on="1"/>
        <pt x="566" y="255" on="1"/>
        <pt x="477" y="366" on="1"/>
        <pt x="279" y="368" on="1"/>
        <pt x="279" y="92" on="1"/>
      </contour>
      <contour>
        <pt x="500" y="435" on="1"/>
        <pt x="630" y="309" on="1"/>
        <pt x="586" y="52" on="1"/>
        <pt x="361" y="6" on="1"/>
        <pt x="265" y="14" on="1"/>
        <pt x="217" y="-11" on="1"/>
        <pt x="131" y="-9" on="1"/>
        <pt x="126" y="30" on="1"/>
        <pt x="166" y="35" on="1"/>
        <pt x="202" y="64" on="1"/>
        <pt x="197" y="639" on="1"/>
        <pt x="121" y="633" on="1"/>
        <pt x="-30" y="649" on="1"/>
        <pt x="-30" y="716" on="1"/>
        <pt x="123" y="686" on="1"/>
        <pt x="327" y="702" on="1"/>
        <pt x="335" y="660" on="1"/>
        <pt x="273" y="640" on="1"/>
        <pt x="273" y="450" on="1"/>
      </contour>
    </TTGlyph>
    <TTGlyph name="afii10045" xMin="30" yMin="-9" xMax="785" yMax="701">
      <contour>
        <pt x="775" y="30" on="1"/>
        <pt x="777" y="-2" on="1"/>
        <pt x="580" y="14" on="1"/>
        <pt x="578" y="46" on="1"/>
        <pt x="650" y="66" on="1"/>
        <pt x="632" y="644" on="1"/>
        <pt x="558" y="672" on="1"/>
        <pt x="560" y="699" on="1"/>
        <pt x="780" y="701" on="1"/>
        <pt x="785" y="663" on="1"/>
        <pt x="717" y="644" on="1"/>
        <pt x="714" y="54" on="1"/>
      </contour>
      <contour>
        <pt x="277" y="68" on="1"/>
        <pt x="440" y="100" on="1"/>
        <pt x="493" y="274" on="1"/>
        <pt x="392" y="413" on="1"/>
        <pt x="183" y="368" on="1"/>
        <pt x="188" y="96" on="1"/>
      </contour>
      <contour>
        <pt x="393" y="483" on="1"/>
        <pt x="557" y="328" on="1"/>
        <pt x="516" y="52" on="1"/>
        <pt x="268" y="8" on="1"/>
        <pt x="173" y="17" on="1"/>
        <pt x="124" y="-9" on="1"/>
        <pt x="39" y="-5" on="1"/>
        <pt x="33" y="34" on="1"/>
        <pt x="74" y="40" on="1"/>
        <pt x="110" y="67" on="1"/>
        <pt x="105" y="642" on="1"/>
        <pt x="30" y="670" on="1"/>
        <pt x="33" y="697" on="1"/>
        <pt x="250" y="700" on="1"/>
        <pt x="244" y="664" on="1"/>
        <pt x="181" y="644" on="1"/>
        <pt x="177" y="449" on="1"/>
      </contour>
    </TTGlyph>
    <TTGlyph name="afii10046" xMin="30" yMin="-11" xMax="536" yMax="697">
      <contour>
        <pt x="277" y="65" on="1"/>
        <pt x="416" y="100" on="1"/>
        <pt x="473" y="255" on="1"/>
        <pt x="383" y="366" on="1"/>
        <pt x="186" y="368" on="1"/>
        <pt x="185" y="92" on="1"/>
      </contour>
      <contour>
        <pt x="404" y="435" on="1"/>
        <pt x="536" y="309" on="1"/>
        <pt x="491" y="52" on="1"/>
        <pt x="267" y="6" on="1"/>
        <pt x="172" y="14" on="1"/>
        <pt x="123" y="-11" on="1"/>
        <pt x="37" y="-9" on="1"/>
        <pt x="32" y="30" on="1"/>
        <pt x="73" y="35" on="1"/>
        <pt x="108" y="64" on="1"/>
        <pt x="103" y="639" on="1"/>
        <pt x="40" y="645" on="1"/>
        <pt x="30" y="697" on="1"/>
        <pt x="233" y="694" on="1"/>
        <pt x="242" y="660" on="1"/>
        <pt x="180" y="640" on="1"/>
        <pt x="180" y="450" on="1"/>
      </contour>
    </TTGlyph>
    <TTGlyph name="afii10047" xMin="40" yMin="-18" xMax="553" yMax="707">
      <contour>
        <pt x="553" y="327" on="1"/>
        <pt x="524" y="98" on="1"/>
        <pt x="296" y="-18" on="1"/>
        <pt x="40" y="75" on="1"/>
        <pt x="54" y="252" on="1"/>
        <pt x="130" y="256" on="1"/>
        <pt x="108" y="121" on="1"/>
        <pt x="284" y="59" on="1"/>
        <pt x="439" y="144" on="1"/>
        <pt x="454" y="288" on="1"/>
        <pt x="461" y="344" on="1"/>
        <pt x="348" y="339" on="1"/>
        <pt x="207" y="346" on="1"/>
        <pt x="205" y="418" on="1"/>
        <pt x="352" y="397" on="1"/>
        <pt x="468" y="415" on="1"/>
        <pt x="469" y="425" on="1"/>
        <pt x="420" y="573" on="1"/>
        <pt x="253" y="649" on="1"/>
        <pt x="130" y="597" on="1"/>
        <pt x="136" y="499" on="1"/>
        <pt x="52" y="526" on="1"/>
        <pt x="82" y="631" on="1"/>
        <pt x="247" y="707" on="1"/>
        <pt x="375" y="704" on="1"/>
        <pt x="494" y="610" on="1"/>
        <pt x="544" y="438" on="1"/>
      </contour>
    </TTGlyph>
    <TTGlyph name="afii10048" xMin="30" yMin="-9" xMax="888" yMax="711">
      <contour>
        <pt x="816" y="271" on="1"/>
        <pt x="767" y="515" on="1"/>
        <pt x="663" y="614" on="1"/>
        <pt x="446" y="607" on="1"/>
        <pt x="375" y="389" on="1"/>
        <pt x="430" y="148" on="1"/>
        <pt x="566" y="71" on="1"/>
        <pt x="679" y="64" on="1"/>
      </contour>
      <contour>
        <pt x="888" y="252" on="1"/>
        <pt x="731" y="1" on="1"/>
        <pt x="523" y="-5" on="1"/>
        <pt x="352" y="126" on="1"/>
        <pt x="318" y="316" on="1"/>
        <pt x="184" y="321" on="1"/>
        <pt x="182" y="43" on="1"/>
        <pt x="243" y="18" on="1"/>
        <pt x="245" y="-9" on="1"/>
        <pt x="52" y="6" on="1"/>
        <pt x="51" y="35" on="1"/>
        <pt x="120" y="56" on="1"/>
        <pt x="103" y="657" on="1"/>
        <pt x="30" y="682" on="1"/>
        <pt x="35" y="709" on="1"/>
        <pt x="247" y="711" on="1"/>
        <pt x="253" y="674" on="1"/>
        <pt x="187" y="656" on="1"/>
        <pt x="184" y="373" on="1"/>
        <pt x="308" y="382" on="1"/>
        <pt x="308" y="383" on="1"/>
        <pt x="379" y="634" on="1"/>
        <pt x="486" y="709" on="1"/>
        <pt x="716" y="691" on="1"/>
        <pt x="851" y="541" on="1"/>
      </contour>
    </TTGlyph>
    <TTGlyph name="afii10049" xMin="-39" yMin="-9" xMax="689" yMax="704">
      <contour>
        <pt x="21" y="144" on="1"/>
        <pt x="91" y="76" on="1"/>
        <pt x="144" y="60" on="1"/>
        <pt x="228" y="159" on="1"/>
        <pt x="297" y="282" on="1"/>
        <pt x="136" y="390" on="1"/>
        <pt x="144" y="589" on="1"/>
        <pt x="259" y="704" on="1"/>
        <pt x="528" y="689" on="1"/>
        <pt x="558" y="666" on="1"/>
        <pt x="597" y="689" on="1"/>
        <pt x="681" y="681" on="1"/>
        <pt x="689" y="628" on="1"/>
        <pt x="611" y="620" on="1"/>
        <pt x="573" y="581" on="1"/>
        <pt x="566" y="45" on="1"/>
        <pt x="626" y="22" on="1"/>
        <pt x="620" y="-2" on="1"/>
        <pt x="405" y="-9" on="1"/>
        <pt x="412" y="29" on="1"/>
        <pt x="474" y="52" on="1"/>
        <pt x="481" y="267" on="1"/>
        <pt x="405" y="275" on="1"/>
        <pt x="320" y="152" on="1"/>
        <pt x="190" y="-2" on="1"/>
        <pt x="82" y="6" on="1"/>
        <pt x="-39" y="76" on="1"/>
      </contour>
      <contour>
        <pt x="320" y="336" on="1"/>
        <pt x="474" y="352" on="1"/>
        <pt x="490" y="612" on="1"/>
        <pt x="382" y="635" on="1"/>
        <pt x="252" y="612" on="1"/>
        <pt x="205" y="451" on="1"/>
      </contour>
    </TTGlyph>
    <TTGlyph name="afii10050" xMin="30" yMin="0" xMax="490" yMax="778">
      <contour>
        <pt x="484" y="627" on="1"/>
        <pt x="186" y="625" on="1"/>
        <pt x="193" y="52" on="1"/>
        <pt x="252" y="35" on="1"/>
        <pt x="246" y="0" on="1"/>
        <pt x="34" y="0" on="1"/>
        <pt x="30" y="28" on="1"/>
        <pt x="90" y="48" on="1"/>
        <pt x="100" y="635" on="1"/>
        <pt x="49" y="667" on="1"/>
        <pt x="50" y="687" on="1"/>
        <pt x="416" y="698" on="1"/>
        <pt x="414" y="778" on="1"/>
        <pt x="489" y="777" on="1"/>
        <pt x="490" y="715" on="1"/>
      </contour>
    </TTGlyph>
    <TTGlyph name="afii10051" xMin="0" yMin="-120" xMax="635" yMax="700">
      <contour>
        <pt x="575" y="-53" on="1"/>
        <pt x="430" y="-120" on="1"/>
        <pt x="405" y="-59" on="1"/>
        <pt x="522" y="-14" on="1"/>
        <pt x="551" y="115" on="1"/>
        <pt x="554" y="319" on="1"/>
        <pt x="477" y="353" on="1"/>
        <pt x="253" y="330" on="1"/>
        <pt x="243" y="53" on="1"/>
        <pt x="308" y="30" on="1"/>
        <pt x="315" y="4" on="1"/>
        <pt x="112" y="-8" on="1"/>
        <pt x="100" y="15" on="1"/>
        <pt x="171" y="54" on="1"/>
        <pt x="171" y="628" on="1"/>
        <pt x="158" y="629" on="1"/>
        <pt x="76" y="618" on="1"/>
        <pt x="72" y="577" on="1"/>
        <pt x="14" y="571" on="1"/>
        <pt x="0" y="700" on="1"/>
        <pt x="148" y="694" on="1"/>
        <pt x="475" y="700" on="1"/>
        <pt x="455" y="580" on="1"/>
        <pt x="405" y="590" on="1"/>
        <pt x="400" y="626" on="1"/>
        <pt x="300" y="626" on="1"/>
        <pt x="261" y="627" on="1"/>
        <pt x="258" y="380" on="1"/>
        <pt x="545" y="428" on="1"/>
        <pt x="628" y="372" on="1"/>
        <pt x="635" y="66" on="1"/>
      </contour>
    </TTGlyph>
    <TTGlyph name="afii10052" xMin="30" yMin="0" xMax="490" yMax="870">
      <contour>
        <pt x="490" y="612" on="1"/>
        <pt x="489" y="550" on="1"/>
        <pt x="402" y="563" on="1"/>
        <pt x="416" y="629" on="1"/>
        <pt x="186" y="625" on="1"/>
        <pt x="193" y="52" on="1"/>
        <pt x="252" y="35" on="1"/>
        <pt x="246" y="0" on="1"/>
        <pt x="34" y="0" on="1"/>
        <pt x="30" y="28" on="1"/>
        <pt x="90" y="48" on="1"/>
        <pt x="100" y="635" on="1"/>
        <pt x="49" y="667" on="1"/>
        <pt x="50" y="687" on="1"/>
        <pt x="484" y="700" on="1"/>
      </contour>
      <contour>
        <pt x="245" y="731" on="1"/>
        <pt x="288" y="870" on="1"/>
        <pt x="335" y="867" on="1"/>
        <pt x="379" y="870" on="1"/>
        <pt x="330" y="794" on="1"/>
        <pt x="288" y="731" on="1"/>
      </contour>
    </TTGlyph>
    <TTGlyph name="afii10053" xMin="40" yMin="-18" xMax="553" yMax="707">
      <contour>
        <pt x="49" y="438" on="1"/>
        <pt x="99" y="610" on="1"/>
        <pt x="218" y="704" on="1"/>
        <pt x="346" y="707" on="1"/>
        <pt x="511" y="631" on="1"/>
        <pt x="541" y="526" on="1"/>
        <pt x="457" y="499" on="1"/>
        <pt x="463" y="597" on="1"/>
        <pt x="340" y="649" on="1"/>
        <pt x="173" y="573" on="1"/>
        <pt x="124" y="425" on="1"/>
        <pt x="125" y="415" on="1"/>
        <pt x="241" y="397" on="1"/>
        <pt x="388" y="418" on="1"/>
        <pt x="386" y="346" on="1"/>
        <pt x="245" y="339" on="1"/>
        <pt x="132" y="344" on="1"/>
        <pt x="139" y="288" on="1"/>
        <pt x="154" y="144" on="1"/>
        <pt x="309" y="59" on="1"/>
        <pt x="485" y="121" on="1"/>
        <pt x="463" y="256" on="1"/>
        <pt x="539" y="252" on="1"/>
        <pt x="553" y="75" on="1"/>
        <pt x="297" y="-18" on="1"/>
        <pt x="69" y="98" on="1"/>
        <pt x="40" y="327" on="1"/>
      </contour>
    </TTGlyph>
    <TTGlyph name="afii10054" xMin="25" yMin="-9" xMax="553" yMax="704">
      <contour>
        <pt x="409" y="704" on="1"/>
        <pt x="472" y="661" on="1"/>
        <pt x="500" y="700" on="1"/>
        <pt x="553" y="658" on="1"/>
        <pt x="459" y="545" on="1"/>
        <pt x="421" y="580" on="1"/>
        <pt x="373" y="642" on="1"/>
        <pt x="223" y="618" on="1"/>
        <pt x="144" y="538" on="1"/>
        <pt x="205" y="425" on="1"/>
        <pt x="464" y="357" on="1"/>
        <pt x="525" y="282" on="1"/>
        <pt x="507" y="87" on="1"/>
        <pt x="300" y="-9" on="1"/>
        <pt x="117" y="41" on="1"/>
        <pt x="86" y="-9" on="1"/>
        <pt x="25" y="5" on="1"/>
        <pt x="86" y="139" on="1"/>
        <pt x="137" y="124" on="1"/>
        <pt x="295" y="73" on="1"/>
        <pt x="451" y="135" on="1"/>
        <pt x="421" y="290" on="1"/>
        <pt x="114" y="353" on="1"/>
        <pt x="57" y="562" on="1"/>
        <pt x="163" y="686" on="1"/>
      </contour>
    </TTGlyph>
    <TTGlyph name="afii10055" xMin="30" yMin="-10" xMax="252" yMax="709">
      <contour>
        <pt x="241" y="20" on="1"/>
        <pt x="243" y="-10" on="1"/>
        <pt x="52" y="5" on="1"/>
        <pt x="51" y="34" on="1"/>
        <pt x="120" y="56" on="1"/>
        <pt x="103" y="655" on="1"/>
        <pt x="30" y="680" on="1"/>
        <pt x="32" y="707" on="1"/>
        <pt x="246" y="709" on="1"/>
        <pt x="252" y="673" on="1"/>
        <pt x="185" y="653" on="1"/>
        <pt x="182" y="42" on="1"/>
      </contour>
    </TTGlyph>
    <TTGlyph name="afii10056" xMin="20" yMin="-10" xMax="258" yMax="858">
      <contour>
        <pt x="241" y="20" on="1"/>
        <pt x="243" y="-10" on="1"/>
        <pt x="52" y="5" on="1"/>
        <pt x="51" y="34" on="1"/>
        <pt x="120" y="56" on="1"/>
        <pt x="103" y="655" on="1"/>
        <pt x="30" y="680" on="1"/>
        <pt x="32" y="707" on="1"/>
        <pt x="246" y="709" on="1"/>
        <pt x="252" y="673" on="1"/>
        <pt x="185" y="653" on="1"/>
        <pt x="182" y="42" on="1"/>
      </contour>
      <contour>
        <pt x="258" y="837" on="1"/>
        <pt x="254" y="783" on="1"/>
        <pt x="198" y="759" on="1"/>
        <pt x="168" y="819" on="1"/>
        <pt x="196" y="850" on="1"/>
      </contour>
      <contour>
        <pt x="113" y="832" on="1"/>
        <pt x="117" y="784" on="1"/>
        <pt x="49" y="761" on="1"/>
        <pt x="20" y="814" on="1"/>
        <pt x="49" y="858" on="1"/>
      </contour>
    </TTGlyph>
    <TTGlyph name="afii10057" xMin="0" yMin="-151" xMax="440" yMax="710">
      <contour>
        <pt x="381" y="649" on="1"/>
        <pt x="370" y="107" on="1"/>
        <pt x="326" y="-71" on="1"/>
        <pt x="180" y="-151" on="1"/>
        <pt x="41" y="-84" on="1"/>
        <pt x="0" y="59" on="1"/>
        <pt x="82" y="86" on="1"/>
        <pt x="112" y="-68" on="1"/>
        <pt x="171" y="-71" on="1"/>
        <pt x="264" y="-5" on="1"/>
        <pt x="294" y="149" on="1"/>
        <pt x="288" y="653" on="1"/>
        <pt x="211" y="679" on="1"/>
        <pt x="214" y="709" on="1"/>
        <pt x="435" y="710" on="1"/>
        <pt x="440" y="673" on="1"/>
      </contour>
    </TTGlyph>
    <TTGlyph name="afii10058" xMin="0" yMin="-17" xMax="826" yMax="711">
      <contour>
        <pt x="694" y="435" on="1"/>
        <pt x="826" y="309" on="1"/>
        <pt x="781" y="52" on="1"/>
        <pt x="577" y="-4" on="1"/>
        <pt x="518" y="1" on="1"/>
        <pt x="348" y="5" on="1"/>
        <pt x="345" y="32" on="1"/>
        <pt x="416" y="47" on="1"/>
        <pt x="430" y="628" on="1"/>
        <pt x="366" y="628" on="1"/>
        <pt x="282" y="612" on="1"/>
        <pt x="256" y="406" on="1"/>
        <pt x="201" y="104" on="1"/>
        <pt x="156" y="9" on="1"/>
        <pt x="17" y="-17" on="1"/>
        <pt x="0" y="43" on="1"/>
        <pt x="84" y="67" on="1"/>
        <pt x="129" y="117" on="1"/>
        <pt x="186" y="416" on="1"/>
        <pt x="208" y="625" on="1"/>
        <pt x="128" y="650" on="1"/>
        <pt x="132" y="703" on="1"/>
        <pt x="336" y="693" on="1"/>
        <pt x="575" y="711" on="1"/>
        <pt x="593" y="643" on="1"/>
        <pt x="529" y="627" on="1"/>
        <pt x="510" y="625" on="1"/>
        <pt x="507" y="450" on="1"/>
      </contour>
      <contour>
        <pt x="506" y="368" on="1"/>
        <pt x="504" y="79" on="1"/>
        <pt x="587" y="55" on="1"/>
        <pt x="706" y="100" on="1"/>
        <pt x="753" y="255" on="1"/>
        <pt x="673" y="366" on="1"/>
      </contour>
    </TTGlyph>
    <TTGlyph name="afii10059" xMin="30" yMin="-11" xMax="846" yMax="697">
      <contour>
        <pt x="714" y="395" on="1"/>
        <pt x="846" y="279" on="1"/>
        <pt x="801" y="52" on="1"/>
        <pt x="597" y="6" on="1"/>
        <pt x="492" y="14" on="1"/>
        <pt x="443" y="-11" on="1"/>
        <pt x="357" y="-9" on="1"/>
        <pt x="352" y="30" on="1"/>
        <pt x="393" y="35" on="1"/>
        <pt x="428" y="64" on="1"/>
        <pt x="425" y="333" on="1"/>
        <pt x="190" y="333" on="1"/>
        <pt x="175" y="60" on="1"/>
        <pt x="253" y="34" on="1"/>
        <pt x="259" y="-3" on="1"/>
        <pt x="40" y="0" on="1"/>
        <pt x="38" y="25" on="1"/>
        <pt x="114" y="55" on="1"/>
        <pt x="96" y="640" on="1"/>
        <pt x="30" y="663" on="1"/>
        <pt x="33" y="691" on="1"/>
        <pt x="253" y="693" on="1"/>
        <pt x="259" y="656" on="1"/>
        <pt x="193" y="636" on="1"/>
        <pt x="190" y="421" on="1"/>
        <pt x="425" y="404" on="1"/>
        <pt x="423" y="639" on="1"/>
        <pt x="360" y="645" on="1"/>
        <pt x="350" y="697" on="1"/>
        <pt x="553" y="694" on="1"/>
        <pt x="562" y="660" on="1"/>
        <pt x="500" y="640" on="1"/>
        <pt x="500" y="410" on="1"/>
      </contour>
      <contour>
        <pt x="607" y="65" on="1"/>
        <pt x="726" y="100" on="1"/>
        <pt x="778" y="235" on="1"/>
        <pt x="693" y="326" on="1"/>
        <pt x="506" y="328" on="1"/>
        <pt x="505" y="92" on="1"/>
      </contour>
    </TTGlyph>
    <TTGlyph name="afii10060" xMin="0" yMin="-8" xMax="705" yMax="700">
      <contour>
        <pt x="261" y="627" on="1"/>
        <pt x="258" y="380" on="1"/>
        <pt x="545" y="428" on="1"/>
        <pt x="628" y="372" on="1"/>
        <pt x="640" y="43" on="1"/>
        <pt x="705" y="18" on="1"/>
        <pt x="702" y="-8" on="1"/>
        <pt x="484" y="-8" on="1"/>
        <pt x="479" y="26" on="1"/>
        <pt x="545" y="46" on="1"/>
        <pt x="554" y="319" on="1"/>
        <pt x="477" y="353" on="1"/>
        <pt x="253" y="330" on="1"/>
        <pt x="243" y="53" on="1"/>
        <pt x="308" y="30" on="1"/>
        <pt x="315" y="4" on="1"/>
        <pt x="112" y="-8" on="1"/>
        <pt x="100" y="15" on="1"/>
        <pt x="171" y="54" on="1"/>
        <pt x="171" y="628" on="1"/>
        <pt x="158" y="629" on="1"/>
        <pt x="76" y="618" on="1"/>
        <pt x="72" y="577" on="1"/>
        <pt x="14" y="571" on="1"/>
        <pt x="0" y="700" on="1"/>
        <pt x="148" y="694" on="1"/>
        <pt x="475" y="700" on="1"/>
        <pt x="455" y="580" on="1"/>
        <pt x="405" y="590" on="1"/>
        <pt x="400" y="626" on="1"/>
        <pt x="300" y="626" on="1"/>
      </contour>
    </TTGlyph>
    <TTGlyph name="afii10061" xMin="30" yMin="-26" xMax="630" yMax="870">
      <contour>
        <pt x="630" y="54" on="1"/>
        <pt x="570" y="-26" on="1"/>
        <pt x="440" y="52" on="1"/>
        <pt x="369" y="276" on="1"/>
        <pt x="283" y="342" on="1"/>
        <pt x="197" y="315" on="1"/>
        <pt x="195" y="54" on="1"/>
        <pt x="264" y="40" on="1"/>
        <pt x="269" y="1" on="1"/>
        <pt x="49" y="5" on="1"/>
        <pt x="45" y="32" on="1"/>
        <pt x="112" y="52" on="1"/>
        <pt x="112" y="647" on="1"/>
        <pt x="30" y="677" on="1"/>
        <pt x="31" y="706" on="1"/>
        <pt x="256" y="706" on="1"/>
        <pt x="262" y="669" on="1"/>
        <pt x="201" y="652" on="1"/>
        <pt x="203" y="651" on="1"/>
        <pt x="198" y="382" on="1"/>
        <pt x="298" y="410" on="1"/>
        <pt x="365" y="461" on="1"/>
        <pt x="426" y="682" on="1"/>
        <pt x="545" y="706" on="1"/>
        <pt x="562" y="646" on="1"/>
        <pt x="489" y="632" on="1"/>
        <pt x="400" y="407" on="1"/>
        <pt x="362" y="379" on="1"/>
        <pt x="424" y="347" on="1"/>
        <pt x="501" y="113" on="1"/>
      </contour>
      <contour>
        <pt x="285" y="731" on="1"/>
        <pt x="328" y="870" on="1"/>
        <pt x="375" y="867" on="1"/>
        <pt x="419" y="870" on="1"/>
        <pt x="370" y="794" on="1"/>
        <pt x="328" y="731" on="1"/>
      </contour>
    </TTGlyph>
    <TTGlyph name="afii10062" xMin="0" yMin="-23" xMax="677" yMax="899">
      <contour>
        <pt x="191" y="-23" on="1"/>
        <pt x="125" y="-14" on="1"/>
        <pt x="122" y="83" on="1"/>
        <pt x="257" y="44" on="1"/>
        <pt x="309" y="134" on="1"/>
        <pt x="59" y="646" on="1"/>
        <pt x="0" y="670" on="1"/>
        <pt x="3" y="698" on="1"/>
        <pt x="219" y="701" on="1"/>
        <pt x="212" y="661" on="1"/>
        <pt x="173" y="649" on="1"/>
        <pt x="349" y="219" on="1"/>
        <pt x="509" y="655" on="1"/>
        <pt x="438" y="675" on="1"/>
        <pt x="439" y="707" on="1"/>
        <pt x="673" y="708" on="1"/>
        <pt x="677" y="677" on="1"/>
        <pt x="589" y="649" on="1"/>
        <pt x="376" y="115" on="1"/>
        <pt x="320" y="3" on="1"/>
      </contour>
      <contour>
        <pt x="317" y="797" on="1"/>
        <pt x="342" y="778" on="1"/>
        <pt x="444" y="899" on="1"/>
        <pt x="510" y="838" on="1"/>
        <pt x="350" y="748" on="1"/>
        <pt x="317" y="748" on="1"/>
        <pt x="157" y="855" on="1"/>
        <pt x="207" y="890" on="1"/>
      </contour>
    </TTGlyph>
    <TTGlyph name="afii10065" xMin="50" yMin="-25" xMax="499" yMax="529">
      <contour>
        <pt x="247" y="259" on="1"/>
        <pt x="135" y="184" on="1"/>
        <pt x="132" y="72" on="1"/>
        <pt x="172" y="51" on="1"/>
        <pt x="192" y="52" on="0"/>
        <pt x="209" y="53" on="1"/>
        <pt x="223" y="54" on="0"/>
        <pt x="246" y="57" on="0"/>
        <pt x="246" y="59" on="1"/>
        <pt x="246" y="59" on="0"/>
        <pt x="254" y="71" on="0"/>
        <pt x="267" y="90" on="0"/>
        <pt x="283" y="113" on="0"/>
        <pt x="292" y="125" on="1"/>
        <pt x="312" y="153" on="0"/>
        <pt x="339" y="189" on="1"/>
        <pt x="332" y="262" on="1"/>
      </contour>
      <contour>
        <pt x="183" y="529" on="1"/>
        <pt x="409" y="476" on="1"/>
        <pt x="413" y="65" on="1"/>
        <pt x="498" y="59" on="1"/>
        <pt x="499" y="13" on="1"/>
        <pt x="375" y="1" on="1"/>
        <pt x="333" y="89" on="1"/>
        <pt x="281" y="7" on="1"/>
        <pt x="112" y="-25" on="1"/>
        <pt x="50" y="50" on="1"/>
        <pt x="54" y="202" on="1"/>
        <pt x="225" y="313" on="1"/>
        <pt x="331" y="327" on="1"/>
        <pt x="339" y="436" on="1"/>
        <pt x="172" y="458" on="1"/>
        <pt x="123" y="373" on="1"/>
        <pt x="68" y="431" on="1"/>
        <pt x="78" y="456" on="1"/>
      </contour>
    </TTGlyph>
    <TTGlyph name="afii10066" xMin="50" yMin="-10" xMax="481" yMax="753">
      <contour>
        <pt x="128" y="328" on="1"/>
        <pt x="137" y="69" on="1"/>
        <pt x="284" y="41" on="1"/>
        <pt x="392" y="197" on="1"/>
        <pt x="326" y="374" on="1"/>
        <pt x="235" y="389" on="1"/>
      </contour>
      <contour>
        <pt x="456" y="697" on="1"/>
        <pt x="384" y="641" on="1"/>
        <pt x="194" y="569" on="1"/>
        <pt x="129" y="490" on="1"/>
        <pt x="123" y="397" on="1"/>
        <pt x="245" y="455" on="1"/>
        <pt x="388" y="415" on="1"/>
        <pt x="481" y="191" on="1"/>
        <pt x="354" y="-10" on="1"/>
        <pt x="110" y="-5" on="1"/>
        <pt x="54" y="43" on="1"/>
        <pt x="50" y="474" on="1"/>
        <pt x="129" y="593" on="1"/>
        <pt x="328" y="676" on="1"/>
        <pt x="397" y="753" on="1"/>
      </contour>
    </TTGlyph>
    <TTGlyph name="afii10067" xMin="47" yMin="-10" xMax="489" yMax="512">
      <contour>
        <pt x="489" y="70" on="1"/>
        <pt x="328" y="-10" on="1"/>
        <pt x="110" y="-3" on="1"/>
        <pt x="47" y="46" on="1"/>
        <pt x="54" y="409" on="1"/>
        <pt x="70" y="472" on="1"/>
        <pt x="240" y="512" on="1"/>
        <pt x="368" y="472" on="1"/>
        <pt x="409" y="369" on="1"/>
        <pt x="351" y="288" on="1"/>
        <pt x="409" y="288" on="1"/>
      </contour>
      <contour>
        <pt x="240" y="456" on="1"/>
        <pt x="119" y="409" on="1"/>
        <pt x="126" y="279" on="1"/>
        <pt x="184" y="279" on="1"/>
        <pt x="288" y="279" on="1"/>
        <pt x="344" y="359" on="1"/>
        <pt x="320" y="425" on="1"/>
      </contour>
      <contour>
        <pt x="402" y="78" on="1"/>
        <pt x="344" y="239" on="1"/>
        <pt x="126" y="207" on="1"/>
        <pt x="126" y="78" on="1"/>
        <pt x="255" y="46" on="1"/>
      </contour>
    </TTGlyph>
    <TTGlyph name="afii10068" xMin="30" yMin="1" xMax="411" yMax="510">
      <contour>
        <pt x="411" y="419" on="1"/>
        <pt x="409" y="367" on="1"/>
        <pt x="331" y="379" on="1"/>
        <pt x="345" y="435" on="1"/>
        <pt x="177" y="431" on="1"/>
        <pt x="184" y="55" on="1"/>
        <pt x="245" y="37" on="1"/>
        <pt x="240" y="1" on="1"/>
        <pt x="34" y="1" on="1"/>
        <pt x="30" y="30" on="1"/>
        <pt x="91" y="51" on="1"/>
        <pt x="103" y="442" on="1"/>
        <pt x="49" y="476" on="1"/>
        <pt x="50" y="496" on="1"/>
        <pt x="406" y="510" on="1"/>
      </contour>
    </TTGlyph>
    <TTGlyph name="afii10069" xMin="0" yMin="-135" xMax="560" yMax="506">
      <contour>
        <pt x="264" y="64" on="1"/>
        <pt x="398" y="60" on="1"/>
        <pt x="409" y="437" on="1"/>
        <pt x="368" y="438" on="1"/>
        <pt x="231" y="425" on="1"/>
        <pt x="227" y="308" on="1"/>
        <pt x="187" y="96" on="1"/>
        <pt x="170" y="61" on="1"/>
      </contour>
      <contour>
        <pt x="560" y="34" on="1"/>
        <pt x="537" y="-129" on="1"/>
        <pt x="479" y="-135" on="1"/>
        <pt x="497" y="3" on="1"/>
        <pt x="329" y="12" on="1"/>
        <pt x="77" y="8" on="1"/>
        <pt x="88" y="-117" on="1"/>
        <pt x="43" y="-125" on="1"/>
        <pt x="0" y="35" on="1"/>
        <pt x="24" y="56" on="1"/>
        <pt x="67" y="59" on="1"/>
        <pt x="91" y="65" on="1"/>
        <pt x="129" y="107" on="1"/>
        <pt x="170" y="318" on="1"/>
        <pt x="170" y="436" on="1"/>
        <pt x="105" y="456" on="1"/>
        <pt x="109" y="500" on="1"/>
        <pt x="344" y="491" on="1"/>
        <pt x="538" y="506" on="1"/>
        <pt x="554" y="450" on="1"/>
        <pt x="502" y="437" on="1"/>
        <pt x="484" y="436" on="1"/>
        <pt x="482" y="58" on="1"/>
        <pt x="549" y="56" on="1"/>
      </contour>
    </TTGlyph>
    <TTGlyph name="afii10070" xMin="50" yMin="-9" xMax="445" yMax="514">
      <contour>
        <pt x="134" y="274" on="1"/>
        <pt x="362" y="310" on="1"/>
        <pt x="335" y="438" on="1"/>
        <pt x="269" y="463" on="1"/>
        <pt x="142" y="419" on="1"/>
        <pt x="133" y="270" on="1"/>
      </contour>
      <contour>
        <pt x="332" y="504" on="1"/>
        <pt x="410" y="435" on="1"/>
        <pt x="438" y="267" on="1"/>
        <pt x="133" y="219" on="1"/>
        <pt x="186" y="63" on="1"/>
        <pt x="301" y="67" on="1"/>
        <pt x="437" y="108" on="1"/>
        <pt x="445" y="31" on="1"/>
        <pt x="170" y="-9" on="1"/>
        <pt x="50" y="168" on="1"/>
        <pt x="63" y="419" on="1"/>
        <pt x="194" y="514" on="1"/>
      </contour>
    </TTGlyph>
    <TTGlyph name="afii10071" xMin="50" yMin="-10" xMax="439" yMax="650">
      <contour>
        <pt x="394" y="627" on="1"/>
        <pt x="400" y="567" on="1"/>
        <pt x="348" y="550" on="1"/>
        <pt x="303" y="599" on="1"/>
        <pt x="339" y="650" on="1"/>
      </contour>
      <contour>
        <pt x="202" y="614" on="1"/>
        <pt x="206" y="566" on="1"/>
        <pt x="154" y="548" on="1"/>
        <pt x="107" y="596" on="1"/>
        <pt x="167" y="648" on="1"/>
      </contour>
      <contour>
        <pt x="134" y="270" on="1"/>
        <pt x="359" y="307" on="1"/>
        <pt x="331" y="432" on="1"/>
        <pt x="266" y="455" on="1"/>
        <pt x="141" y="414" on="1"/>
        <pt x="132" y="266" on="1"/>
      </contour>
      <contour>
        <pt x="330" y="497" on="1"/>
        <pt x="406" y="430" on="1"/>
        <pt x="434" y="262" on="1"/>
        <pt x="133" y="215" on="1"/>
        <pt x="184" y="62" on="1"/>
        <pt x="298" y="65" on="1"/>
        <pt x="432" y="105" on="1"/>
        <pt x="439" y="29" on="1"/>
        <pt x="169" y="-10" on="1"/>
        <pt x="50" y="166" on="1"/>
        <pt x="63" y="413" on="1"/>
        <pt x="191" y="508" on="1"/>
      </contour>
    </TTGlyph>
    <TTGlyph name="afii10072" xMin="0" yMin="-25" xMax="709" yMax="512">
      <contour>
        <pt x="709" y="55" on="1"/>
        <pt x="663" y="-13" on="1"/>
        <pt x="579" y="39" on="1"/>
        <pt x="453" y="255" on="1"/>
        <pt x="386" y="232" on="1"/>
        <pt x="382" y="47" on="1"/>
        <pt x="455" y="24" on="1"/>
        <pt x="459" y="-5" on="1"/>
        <pt x="277" y="-10" on="1"/>
        <pt x="274" y="21" on="1"/>
        <pt x="320" y="42" on="1"/>
        <pt x="315" y="225" on="1"/>
        <pt x="254" y="255" on="1"/>
        <pt x="127" y="39" on="1"/>
        <pt x="42" y="-25" on="1"/>
        <pt x="0" y="55" on="1"/>
        <pt x="67" y="95" on="1"/>
        <pt x="197" y="276" on="1"/>
        <pt x="124" y="362" on="1"/>
        <pt x="46" y="476" on="1"/>
        <pt x="122" y="506" on="1"/>
        <pt x="173" y="397" on="1"/>
        <pt x="258" y="300" on="1"/>
        <pt x="312" y="287" on="1"/>
        <pt x="308" y="466" on="1"/>
        <pt x="255" y="481" on="1"/>
        <pt x="258" y="508" on="1"/>
        <pt x="457" y="512" on="1"/>
        <pt x="451" y="475" on="1"/>
        <pt x="388" y="457" on="1"/>
        <pt x="386" y="284" on="1"/>
        <pt x="448" y="300" on="1"/>
        <pt x="526" y="403" on="1"/>
        <pt x="585" y="506" on="1"/>
        <pt x="661" y="477" on="1"/>
        <pt x="576" y="368" on="1"/>
        <pt x="510" y="276" on="1"/>
        <pt x="639" y="95" on="1"/>
      </contour>
    </TTGlyph>
    <TTGlyph name="afii10073" xMin="30" yMin="-21" xMax="393" yMax="518">
      <contour>
        <pt x="294" y="516" on="1"/>
        <pt x="359" y="420" on="1"/>
        <pt x="368" y="298" on="1"/>
        <pt x="274" y="248" on="1"/>
        <pt x="375" y="198" on="1"/>
        <pt x="393" y="66" on="1"/>
        <pt x="271" y="-21" on="1"/>
        <pt x="125" y="-19" on="1"/>
        <pt x="30" y="45" on="1"/>
        <pt x="36" y="145" on="1"/>
        <pt x="94" y="150" on="1"/>
        <pt x="84" y="87" on="1"/>
        <pt x="139" y="39" on="1"/>
        <pt x="261" y="50" on="1"/>
        <pt x="326" y="107" on="1"/>
        <pt x="287" y="191" on="1"/>
        <pt x="175" y="235" on="1"/>
        <pt x="189" y="273" on="1"/>
        <pt x="300" y="310" on="1"/>
        <pt x="301" y="412" on="1"/>
        <pt x="196" y="466" on="1"/>
        <pt x="121" y="426" on="1"/>
        <pt x="126" y="340" on="1"/>
        <pt x="59" y="362" on="1"/>
        <pt x="83" y="457" on="1"/>
        <pt x="192" y="518" on="1"/>
      </contour>
    </TTGlyph>
    <TTGlyph name="afii10074" xMin="30" yMin="-15" xMax="552" yMax="515">
      <contour>
        <pt x="99" y="46" on="1"/>
        <pt x="94" y="470" on="1"/>
        <pt x="34" y="489" on="1"/>
        <pt x="38" y="515" on="1"/>
        <pt x="235" y="513" on="1"/>
        <pt x="236" y="488" on="1"/>
        <pt x="175" y="472" on="1"/>
        <pt x="161" y="116" on="1"/>
        <pt x="408" y="461" on="1"/>
        <pt x="408" y="472" on="1"/>
        <pt x="347" y="485" on="1"/>
        <pt x="352" y="509" on="1"/>
        <pt x="543" y="507" on="1"/>
        <pt x="544" y="482" on="1"/>
        <pt x="486" y="467" on="1"/>
        <pt x="479" y="40" on="1"/>
        <pt x="552" y="12" on="1"/>
        <pt x="550" y="-12" on="1"/>
        <pt x="366" y="-15" on="1"/>
        <pt x="370" y="18" on="1"/>
        <pt x="415" y="32" on="1"/>
        <pt x="410" y="388" on="1"/>
        <pt x="167" y="51" on="1"/>
        <pt x="169" y="35" on="1"/>
        <pt x="214" y="16" on="1"/>
        <pt x="212" y="-5" on="1"/>
        <pt x="30" y="-7" on="1"/>
        <pt x="36" y="26" on="1"/>
      </contour>
    </TTGlyph>
    <TTGlyph name="afii10075" xMin="30" yMin="-9" xMax="549" yMax="719">
      <contour>
        <pt x="256" y="639" on="1"/>
        <pt x="279" y="627" on="1"/>
        <pt x="390" y="719" on="1"/>
        <pt x="456" y="659" on="1"/>
        <pt x="291" y="589" on="1"/>
        <pt x="256" y="589" on="1"/>
        <pt x="104" y="677" on="1"/>
        <pt x="154" y="710" on="1"/>
      </contour>
      <contour>
        <pt x="98" y="49" on="1"/>
        <pt x="93" y="469" on="1"/>
        <pt x="34" y="488" on="1"/>
        <pt x="38" y="514" on="1"/>
        <pt x="233" y="514" on="1"/>
        <pt x="234" y="487" on="1"/>
        <pt x="173" y="471" on="1"/>
        <pt x="161" y="119" on="1"/>
        <pt x="404" y="460" on="1"/>
        <pt x="404" y="471" on="1"/>
        <pt x="344" y="485" on="1"/>
        <pt x="348" y="509" on="1"/>
        <pt x="539" y="509" on="1"/>
        <pt x="539" y="483" on="1"/>
        <pt x="482" y="468" on="1"/>
        <pt x="476" y="44" on="1"/>
        <pt x="549" y="16" on="1"/>
        <pt x="546" y="-6" on="1"/>
        <pt x="363" y="-9" on="1"/>
        <pt x="367" y="22" on="1"/>
        <pt x="412" y="36" on="1"/>
        <pt x="407" y="388" on="1"/>
        <pt x="166" y="54" on="1"/>
        <pt x="169" y="38" on="1"/>
        <pt x="212" y="22" on="1"/>
        <pt x="210" y="-2" on="1"/>
        <pt x="30" y="-2" on="1"/>
        <pt x="34" y="29" on="1"/>
      </contour>
    </TTGlyph>
    <TTGlyph name="afii10076" xMin="30" yMin="-20" xMax="495" yMax="521">
      <contour>
        <pt x="495" y="45" on="1"/>
        <pt x="453" y="-20" on="1"/>
        <pt x="369" y="31" on="1"/>
        <pt x="234" y="250" on="1"/>
        <pt x="160" y="227" on="1"/>
        <pt x="158" y="50" on="1"/>
        <pt x="233" y="27" on="1"/>
        <pt x="239" y="0" on="1"/>
        <pt x="41" y="-5" on="1"/>
        <pt x="35" y="24" on="1"/>
        <pt x="85" y="45" on="1"/>
        <pt x="84" y="464" on="1"/>
        <pt x="30" y="481" on="1"/>
        <pt x="32" y="506" on="1"/>
        <pt x="234" y="509" on="1"/>
        <pt x="228" y="472" on="1"/>
        <pt x="160" y="458" on="1"/>
        <pt x="160" y="278" on="1"/>
        <pt x="231" y="293" on="1"/>
        <pt x="309" y="398" on="1"/>
        <pt x="375" y="521" on="1"/>
        <pt x="432" y="503" on="1"/>
        <pt x="358" y="363" on="1"/>
        <pt x="289" y="271" on="1"/>
        <pt x="427" y="84" on="1"/>
      </contour>
    </TTGlyph>
    <TTGlyph name="afii10077" xMin="0" yMin="-9" xMax="541" yMax="509">
      <contour>
        <pt x="525" y="509" on="1"/>
        <pt x="541" y="456" on="1"/>
        <pt x="484" y="442" on="1"/>
        <pt x="465" y="441" on="1"/>
        <pt x="461" y="48" on="1"/>
        <pt x="516" y="34" on="1"/>
        <pt x="521" y="-3" on="1"/>
        <pt x="317" y="1" on="1"/>
        <pt x="315" y="26" on="1"/>
        <pt x="386" y="50" on="1"/>
        <pt x="399" y="442" on="1"/>
        <pt x="333" y="442" on="1"/>
        <pt x="236" y="427" on="1"/>
        <pt x="213" y="290" on="1"/>
        <pt x="186" y="103" on="1"/>
        <pt x="146" y="13" on="1"/>
        <pt x="14" y="-9" on="1"/>
        <pt x="0" y="45" on="1"/>
        <pt x="79" y="67" on="1"/>
        <pt x="121" y="114" on="1"/>
        <pt x="149" y="303" on="1"/>
        <pt x="169" y="441" on="1"/>
        <pt x="94" y="462" on="1"/>
        <pt x="98" y="502" on="1"/>
        <pt x="305" y="493" on="1"/>
      </contour>
    </TTGlyph>
    <TTGlyph name="afii10078" xMin="30" yMin="-5" xMax="670" yMax="512">
      <contour>
        <pt x="670" y="24" on="1"/>
        <pt x="666" y="-4" on="1"/>
        <pt x="453" y="-3" on="1"/>
        <pt x="452" y="27" on="1"/>
        <pt x="538" y="50" on="1"/>
        <pt x="549" y="412" on="1"/>
        <pt x="538" y="413" on="1"/>
        <pt x="385" y="50" on="1"/>
        <pt x="329" y="49" on="1"/>
        <pt x="181" y="401" on="1"/>
        <pt x="157" y="397" on="1"/>
        <pt x="187" y="52" on="1"/>
        <pt x="252" y="32" on="1"/>
        <pt x="255" y="-5" on="1"/>
        <pt x="49" y="-1" on="1"/>
        <pt x="46" y="24" on="1"/>
        <pt x="106" y="48" on="1"/>
        <pt x="99" y="464" on="1"/>
        <pt x="32" y="488" on="1"/>
        <pt x="30" y="512" on="1"/>
        <pt x="195" y="505" on="1"/>
        <pt x="222" y="458" on="1"/>
        <pt x="351" y="154" on="1"/>
        <pt x="360" y="157" on="1"/>
        <pt x="484" y="475" on="1"/>
        <pt x="508" y="509" on="1"/>
        <pt x="666" y="508" on="1"/>
        <pt x="666" y="476" on="1"/>
        <pt x="621" y="464" on="1"/>
        <pt x="603" y="46" on="1"/>
      </contour>
    </TTGlyph>
    <TTGlyph name="afii10079" xMin="30" yMin="-4" xMax="520" yMax="506">
      <contour>
        <pt x="458" y="49" on="1"/>
        <pt x="514" y="30" on="1"/>
        <pt x="509" y="5" on="1"/>
        <pt x="325" y="6" on="1"/>
        <pt x="324" y="33" on="1"/>
        <pt x="387" y="50" on="1"/>
        <pt x="389" y="212" on="1"/>
        <pt x="160" y="212" on="1"/>
        <pt x="146" y="50" on="1"/>
        <pt x="215" y="28" on="1"/>
        <pt x="219" y="-4" on="1"/>
        <pt x="41" y="-2" on="1"/>
        <pt x="38" y="21" on="1"/>
        <pt x="102" y="47" on="1"/>
        <pt x="88" y="460" on="1"/>
        <pt x="30" y="481" on="1"/>
        <pt x="34" y="506" on="1"/>
        <pt x="215" y="506" on="1"/>
        <pt x="219" y="476" on="1"/>
        <pt x="163" y="459" on="1"/>
        <pt x="160" y="289" on="1"/>
        <pt x="393" y="256" on="1"/>
        <pt x="402" y="455" on="1"/>
        <pt x="347" y="473" on="1"/>
        <pt x="340" y="495" on="1"/>
        <pt x="510" y="506" on="1"/>
        <pt x="520" y="486" on="1"/>
        <pt x="459" y="453" on="1"/>
      </contour>
    </TTGlyph>
    <TTGlyph name="afii10080" xMin="30" yMin="-28" xMax="469" yMax="526">
      <contour>
        <pt x="187" y="459" on="1"/>
        <pt x="99" y="345" on="1"/>
        <pt x="118" y="148" on="1"/>
        <pt x="229" y="43" on="1"/>
        <pt x="304" y="44" on="1"/>
        <pt x="398" y="228" on="1"/>
        <pt x="356" y="401" on="1"/>
        <pt x="289" y="451" on="1"/>
      </contour>
      <contour>
        <pt x="323" y="526" on="1"/>
        <pt x="429" y="428" on="1"/>
        <pt x="469" y="199" on="1"/>
        <pt x="328" y="-22" on="1"/>
        <pt x="188" y="-28" on="1"/>
        <pt x="41" y="149" on="1"/>
        <pt x="30" y="377" on="1"/>
        <pt x="155" y="526" on="1"/>
      </contour>
    </TTGlyph>
    <TTGlyph name="afii10081" xMin="30" yMin="-5" xMax="549" yMax="515">
      <contour>
        <pt x="484" y="453" on="1"/>
        <pt x="491" y="42" on="1"/>
        <pt x="532" y="21" on="1"/>
        <pt x="542" y="-1" on="1"/>
        <pt x="363" y="-5" on="1"/>
        <pt x="368" y="27" on="1"/>
        <pt x="408" y="38" on="1"/>
        <pt x="408" y="453" on="1"/>
        <pt x="178" y="453" on="1"/>
        <pt x="179" y="38" on="1"/>
        <pt x="219" y="27" on="1"/>
        <pt x="223" y="-5" on="1"/>
        <pt x="46" y="-1" on="1"/>
        <pt x="43" y="21" on="1"/>
        <pt x="97" y="42" on="1"/>
        <pt x="102" y="453" on="1"/>
        <pt x="88" y="456" on="1"/>
        <pt x="30" y="460" on="1"/>
        <pt x="47" y="515" on="1"/>
        <pt x="77" y="507" on="1"/>
        <pt x="509" y="507" on="1"/>
        <pt x="539" y="515" on="1"/>
        <pt x="549" y="459" on="1"/>
        <pt x="500" y="456" on="1"/>
      </contour>
    </TTGlyph>
    <TTGlyph name="afii10082" xMin="30" yMin="-221" xMax="534" yMax="538">
      <contour>
        <pt x="443" y="250" on="1"/>
        <pt x="388" y="411" on="1"/>
        <pt x="276" y="426" on="1"/>
        <pt x="172" y="389" on="1"/>
        <pt x="178" y="130" on="1"/>
        <pt x="282" y="90" on="1"/>
        <pt x="415" y="149" on="1"/>
      </contour>
      <contour>
        <pt x="534" y="232" on="1"/>
        <pt x="430" y="51" on="1"/>
        <pt x="269" y="20" on="1"/>
        <pt x="168" y="66" on="1"/>
        <pt x="173" y="-159" on="1"/>
        <pt x="240" y="-182" on="1"/>
        <pt x="236" y="-221" on="1"/>
        <pt x="34" y="-220" on="1"/>
        <pt x="30" y="-190" on="1"/>
        <pt x="92" y="-165" on="1"/>
        <pt x="86" y="460" on="1"/>
        <pt x="52" y="472" on="1"/>
        <pt x="86" y="538" on="1"/>
        <pt x="173" y="493" on="1"/>
        <pt x="166" y="453" on="1"/>
        <pt x="271" y="492" on="1"/>
        <pt x="442" y="490" on="1"/>
      </contour>
    </TTGlyph>
    <TTGlyph name="afii10083" xMin="52" yMin="-14" xMax="410" yMax="516">
      <contour>
        <pt x="410" y="-6" on="1"/>
        <pt x="255" y="-14" on="1"/>
        <pt x="60" y="50" on="1"/>
        <pt x="52" y="297" on="1"/>
        <pt x="137" y="468" on="1"/>
        <pt x="278" y="516" on="1"/>
        <pt x="386" y="454" on="1"/>
        <pt x="332" y="313" on="1"/>
        <pt x="301" y="329" on="1"/>
        <pt x="332" y="422" on="1"/>
        <pt x="293" y="454" on="1"/>
        <pt x="293" y="454" on="1"/>
        <pt x="176" y="399" on="1"/>
        <pt x="122" y="275" on="1"/>
        <pt x="137" y="96" on="1"/>
        <pt x="255" y="50" on="1"/>
        <pt x="386" y="72" on="1"/>
      </contour>
    </TTGlyph>
    <TTGlyph name="afii10084" xMin="20" yMin="-10" xMax="437" yMax="516">
      <contour>
        <pt x="437" y="516" on="1"/>
        <pt x="422" y="423" on="1"/>
        <pt x="383" y="430" on="1"/>
        <pt x="379" y="459" on="1"/>
        <pt x="270" y="459" on="1"/>
        <pt x="267" y="33" on="1"/>
        <pt x="306" y="20" on="1"/>
        <pt x="310" y="-10" on="1"/>
        <pt x="139" y="-6" on="1"/>
        <pt x="137" y="14" on="1"/>
        <pt x="188" y="34" on="1"/>
        <pt x="197" y="460" on="1"/>
        <pt x="158" y="462" on="1"/>
        <pt x="79" y="453" on="1"/>
        <pt x="76" y="420" on="1"/>
        <pt x="31" y="415" on="1"/>
        <pt x="20" y="516" on="1"/>
        <pt x="135" y="512" on="1"/>
      </contour>
    </TTGlyph>
    <TTGlyph name="afii10085" xMin="0" yMin="-236" xMax="531" yMax="511">
      <contour>
        <pt x="479" y="465" on="1"/>
        <pt x="307" y="-157" on="1"/>
        <pt x="206" y="-236" on="1"/>
        <pt x="95" y="-210" on="1"/>
        <pt x="66" y="-203" on="1"/>
        <pt x="71" y="-85" on="1"/>
        <pt x="104" y="1" on="1"/>
        <pt x="164" y="-24" on="1"/>
        <pt x="115" y="-95" on="1"/>
        <pt x="125" y="-147" on="1"/>
        <pt x="197" y="-171" on="1"/>
        <pt x="247" y="-142" on="1"/>
        <pt x="267" y="-51" on="1"/>
        <pt x="282" y="38" on="1"/>
        <pt x="211" y="22" on="1"/>
        <pt x="58" y="444" on="1"/>
        <pt x="13" y="448" on="1"/>
        <pt x="0" y="492" on="1"/>
        <pt x="133" y="503" on="1"/>
        <pt x="178" y="293" on="1"/>
        <pt x="288" y="62" on="1"/>
        <pt x="397" y="467" on="1"/>
        <pt x="350" y="482" on="1"/>
        <pt x="353" y="509" on="1"/>
        <pt x="528" y="511" on="1"/>
        <pt x="531" y="486" on="1"/>
      </contour>
    </TTGlyph>
    <TTGlyph name="afii10086" xMin="50" yMin="-239" xMax="680" yMax="700">
      <contour>
        <pt x="402" y="87" on="1"/>
        <pt x="539" y="65" on="1"/>
        <pt x="615" y="234" on="1"/>
        <pt x="571" y="414" on="1"/>
        <pt x="474" y="452" on="1"/>
        <pt x="391" y="427" on="1"/>
      </contour>
      <contour>
        <pt x="325" y="86" on="1"/>
        <pt x="320" y="432" on="1"/>
        <pt x="256" y="452" on="1"/>
        <pt x="160" y="413" on="1"/>
        <pt x="115" y="234" on="1"/>
        <pt x="189" y="65" on="1"/>
      </contour>
      <contour>
        <pt x="397" y="14" on="1"/>
        <pt x="397" y="-187" on="1"/>
        <pt x="452" y="-205" on="1"/>
        <pt x="460" y="-239" on="1"/>
        <pt x="263" y="-236" on="1"/>
        <pt x="259" y="-213" on="1"/>
        <pt x="328" y="-186" on="1"/>
        <pt x="326" y="14" on="1"/>
        <pt x="167" y="3" on="1"/>
        <pt x="50" y="187" on="1"/>
        <pt x="90" y="466" on="1"/>
        <pt x="264" y="506" on="1"/>
        <pt x="328" y="498" on="1"/>
        <pt x="320" y="662" on="1"/>
        <pt x="298" y="670" on="1"/>
        <pt x="295" y="697" on="1"/>
        <pt x="417" y="700" on="1"/>
        <pt x="416" y="673" on="1"/>
        <pt x="395" y="667" on="1"/>
        <pt x="389" y="498" on="1"/>
        <pt x="467" y="506" on="1"/>
        <pt x="640" y="466" on="1"/>
        <pt x="680" y="187" on="1"/>
        <pt x="561" y="3" on="1"/>
      </contour>
    </TTGlyph>
    <TTGlyph name="afii10087" xMin="0" yMin="-1" xMax="469" yMax="520">
      <contour>
        <pt x="469" y="1" on="1"/>
        <pt x="300" y="1" on="1"/>
        <pt x="297" y="27" on="1"/>
        <pt x="329" y="39" on="1"/>
        <pt x="249" y="186" on="1"/>
        <pt x="221" y="243" on="1"/>
        <pt x="124" y="46" on="1"/>
        <pt x="178" y="27" on="1"/>
        <pt x="174" y="-1" on="1"/>
        <pt x="2" y="1" on="1"/>
        <pt x="0" y="29" on="1"/>
        <pt x="32" y="38" on="1"/>
        <pt x="186" y="292" on="1"/>
        <pt x="54" y="472" on="1"/>
        <pt x="5" y="488" on="1"/>
        <pt x="6" y="516" on="1"/>
        <pt x="180" y="516" on="1"/>
        <pt x="183" y="491" on="1"/>
        <pt x="140" y="474" on="1"/>
        <pt x="234" y="321" on="1"/>
        <pt x="322" y="479" on="1"/>
        <pt x="291" y="497" on="1"/>
        <pt x="297" y="520" on="1"/>
        <pt x="465" y="503" on="1"/>
        <pt x="457" y="471" on="1"/>
        <pt x="394" y="455" on="1"/>
        <pt x="275" y="259" on="1"/>
        <pt x="417" y="51" on="1"/>
        <pt x="465" y="34" on="1"/>
      </contour>
    </TTGlyph>
    <TTGlyph name="afii10088" xMin="30" yMin="-120" xMax="557" yMax="505">
      <contour>
        <pt x="492" y="459" on="1"/>
        <pt x="485" y="51" on="1"/>
        <pt x="535" y="51" on="1"/>
        <pt x="557" y="37" on="1"/>
        <pt x="489" y="-118" on="1"/>
        <pt x="446" y="-120" on="1"/>
        <pt x="468" y="-1" on="1"/>
        <pt x="71" y="0" on="1"/>
        <pt x="71" y="38" on="1"/>
        <pt x="90" y="51" on="1"/>
        <pt x="82" y="459" on="1"/>
        <pt x="30" y="479" on="1"/>
        <pt x="32" y="502" on="1"/>
        <pt x="209" y="505" on="1"/>
        <pt x="204" y="474" on="1"/>
        <pt x="163" y="460" on="1"/>
        <pt x="162" y="53" on="1"/>
        <pt x="410" y="53" on="1"/>
        <pt x="410" y="460" on="1"/>
        <pt x="371" y="474" on="1"/>
        <pt x="366" y="505" on="1"/>
        <pt x="543" y="502" on="1"/>
        <pt x="532" y="479" on="1"/>
      </contour>
    </TTGlyph>
    <TTGlyph name="afii10089" xMin="30" yMin="-10" xMax="473" yMax="510">
      <contour>
        <pt x="419" y="25" on="1"/>
        <pt x="468" y="11" on="1"/>
        <pt x="465" y="-10" on="1"/>
        <pt x="302" y="-8" on="1"/>
        <pt x="302" y="15" on="1"/>
        <pt x="355" y="28" on="1"/>
        <pt x="357" y="207" on="1"/>
        <pt x="149" y="172" on="1"/>
        <pt x="87" y="213" on="1"/>
        <pt x="77" y="472" on="1"/>
        <pt x="30" y="487" on="1"/>
        <pt x="31" y="509" on="1"/>
        <pt x="191" y="510" on="1"/>
        <pt x="196" y="482" on="1"/>
        <pt x="149" y="470" on="1"/>
        <pt x="141" y="252" on="1"/>
        <pt x="196" y="226" on="1"/>
        <pt x="360" y="246" on="1"/>
        <pt x="368" y="465" on="1"/>
        <pt x="321" y="481" on="1"/>
        <pt x="315" y="499" on="1"/>
        <pt x="465" y="509" on="1"/>
        <pt x="473" y="492" on="1"/>
        <pt x="422" y="464" on="1"/>
      </contour>
    </TTGlyph>
    <TTGlyph name="afii10090" xMin="30" yMin="-3" xMax="691" yMax="501">
      <contour>
        <pt x="675" y="52" on="1"/>
        <pt x="683" y="5" on="1"/>
        <pt x="668" y="-3" on="1"/>
        <pt x="440" y="-3" on="1"/>
        <pt x="415" y="-3" on="1"/>
        <pt x="54" y="5" on="1"/>
        <pt x="54" y="45" on="1"/>
        <pt x="78" y="52" on="1"/>
        <pt x="69" y="462" on="1"/>
        <pt x="30" y="485" on="1"/>
        <pt x="30" y="501" on="1"/>
        <pt x="180" y="501" on="1"/>
        <pt x="180" y="477" on="1"/>
        <pt x="148" y="470" on="1"/>
        <pt x="148" y="52" on="1"/>
        <pt x="290" y="52" on="1"/>
        <pt x="329" y="52" on="1"/>
        <pt x="329" y="470" on="1"/>
        <pt x="298" y="477" on="1"/>
        <pt x="290" y="501" on="1"/>
        <pt x="447" y="501" on="1"/>
        <pt x="440" y="485" on="1"/>
        <pt x="399" y="462" on="1"/>
        <pt x="392" y="52" on="1"/>
        <pt x="440" y="52" on="1"/>
        <pt x="573" y="52" on="1"/>
        <pt x="573" y="470" on="1"/>
        <pt x="541" y="477" on="1"/>
        <pt x="541" y="501" on="1"/>
        <pt x="691" y="501" on="1"/>
        <pt x="683" y="485" on="1"/>
        <pt x="652" y="462" on="1"/>
        <pt x="645" y="52" on="1"/>
      </contour>
    </TTGlyph>
    <TTGlyph name="afii10091" xMin="30" yMin="-111" xMax="728" yMax="500">
      <contour>
        <pt x="728" y="-1" on="1"/>
        <pt x="696" y="-111" on="1"/>
        <pt x="665" y="-111" on="1"/>
        <pt x="673" y="6" on="1"/>
        <pt x="61" y="6" on="1"/>
        <pt x="61" y="46" on="1"/>
        <pt x="77" y="54" on="1"/>
        <pt x="77" y="462" on="1"/>
        <pt x="30" y="485" on="1"/>
        <pt x="30" y="500" on="1"/>
        <pt x="178" y="500" on="1"/>
        <pt x="178" y="477" on="1"/>
        <pt x="147" y="469" on="1"/>
        <pt x="147" y="54" on="1"/>
        <pt x="289" y="54" on="1"/>
        <pt x="329" y="54" on="1"/>
        <pt x="329" y="469" on="1"/>
        <pt x="297" y="477" on="1"/>
        <pt x="289" y="500" on="1"/>
        <pt x="445" y="500" on="1"/>
        <pt x="437" y="485" on="1"/>
        <pt x="398" y="462" on="1"/>
        <pt x="398" y="54" on="1"/>
        <pt x="437" y="54" on="1"/>
        <pt x="578" y="54" on="1"/>
        <pt x="578" y="469" on="1"/>
        <pt x="539" y="477" on="1"/>
        <pt x="539" y="500" on="1"/>
        <pt x="688" y="500" on="1"/>
        <pt x="681" y="485" on="1"/>
        <pt x="649" y="462" on="1"/>
        <pt x="641" y="54" on="1"/>
        <pt x="720" y="38" on="1"/>
      </contour>
    </TTGlyph>
    <TTGlyph name="afii10092" xMin="0" yMin="-43" xMax="583" yMax="509">
      <contour>
        <pt x="468" y="233" on="1"/>
        <pt x="353" y="294" on="1"/>
        <pt x="246" y="243" on="1"/>
        <pt x="245" y="104" on="1"/>
        <pt x="348" y="70" on="1"/>
        <pt x="453" y="72" on="1"/>
        <pt x="503" y="157" on="1"/>
      </contour>
      <contour>
        <pt x="496" y="6" on="1"/>
        <pt x="343" y="3" on="1"/>
        <pt x="241" y="40" on="1"/>
        <pt x="246" y="2" on="1"/>
        <pt x="160" y="-43" on="1"/>
        <pt x="127" y="23" on="1"/>
        <pt x="172" y="32" on="1"/>
        <pt x="166" y="447" on="1"/>
        <pt x="117" y="449" on="1"/>
        <pt x="0" y="452" on="1"/>
        <pt x="2" y="509" on="1"/>
        <pt x="118" y="488" on="1"/>
        <pt x="296" y="502" on="1"/>
        <pt x="301" y="463" on="1"/>
        <pt x="235" y="443" on="1"/>
        <pt x="239" y="307" on="1"/>
        <pt x="337" y="350" on="1"/>
        <pt x="478" y="319" on="1"/>
        <pt x="583" y="176" on="1"/>
      </contour>
    </TTGlyph>
    <TTGlyph name="afii10093" xMin="30" yMin="-19" xMax="656" yMax="522">
      <contour>
        <pt x="647" y="23" on="1"/>
        <pt x="650" y="-4" on="1"/>
        <pt x="478" y="10" on="1"/>
        <pt x="477" y="37" on="1"/>
        <pt x="539" y="55" on="1"/>
        <pt x="525" y="473" on="1"/>
        <pt x="461" y="496" on="1"/>
        <pt x="464" y="521" on="1"/>
        <pt x="651" y="522" on="1"/>
        <pt x="656" y="490" on="1"/>
        <pt x="599" y="473" on="1"/>
        <pt x="594" y="44" on="1"/>
      </contour>
      <contour>
        <pt x="243" y="48" on="1"/>
        <pt x="382" y="73" on="1"/>
        <pt x="400" y="193" on="1"/>
        <pt x="309" y="261" on="1"/>
        <pt x="161" y="197" on="1"/>
        <pt x="166" y="69" on="1"/>
      </contour>
      <contour>
        <pt x="309" y="321" on="1"/>
        <pt x="456" y="239" on="1"/>
        <pt x="447" y="33" on="1"/>
        <pt x="235" y="-4" on="1"/>
        <pt x="152" y="3" on="1"/>
        <pt x="111" y="-19" on="1"/>
        <pt x="36" y="-16" on="1"/>
        <pt x="32" y="18" on="1"/>
        <pt x="66" y="23" on="1"/>
        <pt x="97" y="48" on="1"/>
        <pt x="94" y="464" on="1"/>
        <pt x="30" y="488" on="1"/>
        <pt x="32" y="511" on="1"/>
        <pt x="219" y="514" on="1"/>
        <pt x="214" y="482" on="1"/>
        <pt x="160" y="464" on="1"/>
        <pt x="156" y="268" on="1"/>
      </contour>
    </TTGlyph>
    <TTGlyph name="afii10094" xMin="30" yMin="-43" xMax="502" yMax="510">
      <contour>
        <pt x="386" y="238" on="1"/>
        <pt x="270" y="299" on="1"/>
        <pt x="161" y="247" on="1"/>
        <pt x="159" y="106" on="1"/>
        <pt x="265" y="71" on="1"/>
        <pt x="371" y="74" on="1"/>
        <pt x="423" y="160" on="1"/>
      </contour>
      <contour>
        <pt x="416" y="7" on="1"/>
        <pt x="261" y="4" on="1"/>
        <pt x="155" y="42" on="1"/>
        <pt x="161" y="3" on="1"/>
        <pt x="74" y="-43" on="1"/>
        <pt x="40" y="24" on="1"/>
        <pt x="85" y="33" on="1"/>
        <pt x="79" y="455" on="1"/>
        <pt x="43" y="458" on="1"/>
        <pt x="30" y="496" on="1"/>
        <pt x="212" y="510" on="1"/>
        <pt x="218" y="471" on="1"/>
        <pt x="149" y="451" on="1"/>
        <pt x="152" y="312" on="1"/>
        <pt x="252" y="356" on="1"/>
        <pt x="395" y="325" on="1"/>
        <pt x="502" y="179" on="1"/>
      </contour>
    </TTGlyph>
    <TTGlyph name="afii10095" xMin="40" yMin="-13" xMax="440" yMax="522">
      <contour>
        <pt x="440" y="230" on="1"/>
        <pt x="418" y="86" on="1"/>
        <pt x="255" y="-13" on="1"/>
        <pt x="40" y="64" on="1"/>
        <pt x="51" y="215" on="1"/>
        <pt x="116" y="219" on="1"/>
        <pt x="97" y="104" on="1"/>
        <pt x="245" y="53" on="1"/>
        <pt x="344" y="125" on="1"/>
        <pt x="356" y="198" on="1"/>
        <pt x="361" y="244" on="1"/>
        <pt x="266" y="240" on="1"/>
        <pt x="180" y="246" on="1"/>
        <pt x="178" y="307" on="1"/>
        <pt x="270" y="289" on="1"/>
        <pt x="369" y="305" on="1"/>
        <pt x="369" y="313" on="1"/>
        <pt x="329" y="409" on="1"/>
        <pt x="219" y="473" on="1"/>
        <pt x="116" y="429" on="1"/>
        <pt x="122" y="348" on="1"/>
        <pt x="49" y="367" on="1"/>
        <pt x="76" y="459" on="1"/>
        <pt x="214" y="522" on="1"/>
        <pt x="326" y="493" on="1"/>
        <pt x="391" y="440" on="1"/>
        <pt x="433" y="325" on="1"/>
      </contour>
    </TTGlyph>
    <TTGlyph name="afii10096" xMin="31" yMin="-16" xMax="641" yMax="516">
      <contour>
        <pt x="641" y="200" on="1"/>
        <pt x="569" y="20" on="1"/>
        <pt x="375" y="-16" on="1"/>
        <pt x="275" y="76" on="1"/>
        <pt x="239" y="213" on="1"/>
        <pt x="159" y="221" on="1"/>
        <pt x="159" y="41" on="1"/>
        <pt x="210" y="26" on="1"/>
        <pt x="210" y="6" on="1"/>
        <pt x="44" y="6" on="1"/>
        <pt x="44" y="26" on="1"/>
        <pt x="94" y="41" on="1"/>
        <pt x="87" y="465" on="1"/>
        <pt x="31" y="487" on="1"/>
        <pt x="31" y="508" on="1"/>
        <pt x="196" y="508" on="1"/>
        <pt x="210" y="480" on="1"/>
        <pt x="153" y="465" on="1"/>
        <pt x="159" y="263" on="1"/>
        <pt x="231" y="271" on="1"/>
        <pt x="231" y="271" on="1"/>
        <pt x="303" y="451" on="1"/>
        <pt x="390" y="516" on="1"/>
        <pt x="519" y="501" on="1"/>
        <pt x="612" y="365" on="1"/>
      </contour>
      <contour>
        <pt x="584" y="213" on="1"/>
        <pt x="540" y="343" on="1"/>
        <pt x="476" y="437" on="1"/>
        <pt x="361" y="429" on="1"/>
        <pt x="303" y="271" on="1"/>
        <pt x="339" y="105" on="1"/>
        <pt x="411" y="49" on="1"/>
        <pt x="527" y="85" on="1"/>
      </contour>
    </TTGlyph>
    <TTGlyph name="afii10097" xMin="-1" yMin="-12" xMax="514" yMax="518">
      <contour>
        <pt x="50" y="112" on="1"/>
        <pt x="74" y="53" on="1"/>
        <pt x="115" y="46" on="1"/>
        <pt x="173" y="95" on="1"/>
        <pt x="232" y="170" on="1"/>
        <pt x="99" y="261" on="1"/>
        <pt x="99" y="427" on="1"/>
        <pt x="215" y="518" on="1"/>
        <pt x="423" y="509" on="1"/>
        <pt x="439" y="485" on="1"/>
        <pt x="472" y="501" on="1"/>
        <pt x="514" y="501" on="1"/>
        <pt x="514" y="452" on="1"/>
        <pt x="480" y="452" on="1"/>
        <pt x="455" y="418" on="1"/>
        <pt x="446" y="37" on="1"/>
        <pt x="497" y="13" on="1"/>
        <pt x="497" y="-4" on="1"/>
        <pt x="323" y="-12" on="1"/>
        <pt x="323" y="22" on="1"/>
        <pt x="372" y="37" on="1"/>
        <pt x="381" y="154" on="1"/>
        <pt x="314" y="162" on="1"/>
        <pt x="248" y="87" on="1"/>
        <pt x="157" y="-4" on="1"/>
        <pt x="66" y="-4" on="1"/>
        <pt x="-1" y="63" on="1"/>
      </contour>
      <contour>
        <pt x="265" y="220" on="1"/>
        <pt x="372" y="228" on="1"/>
        <pt x="389" y="443" on="1"/>
        <pt x="298" y="460" on="1"/>
        <pt x="191" y="436" on="1"/>
        <pt x="149" y="310" on="1"/>
      </contour>
    </TTGlyph>
    <TTGlyph name="afii10098" xMin="30" yMin="1" xMax="411" yMax="578">
      <contour>
        <pt x="335" y="503" on="1"/>
        <pt x="338" y="572" on="1"/>
        <pt x="409" y="578" on="1"/>
        <pt x="411" y="526" on="1"/>
        <pt x="406" y="435" on="1"/>
        <pt x="177" y="431" on="1"/>
        <pt x="184" y="55" on="1"/>
        <pt x="245" y="37" on="1"/>
        <pt x="240" y="1" on="1"/>
        <pt x="34" y="1" on="1"/>
        <pt x="30" y="30" on="1"/>
        <pt x="91" y="51" on="1"/>
        <pt x="103" y="442" on="1"/>
        <pt x="49" y="476" on="1"/>
        <pt x="50" y="496" on="1"/>
      </contour>
    </TTGlyph>
    <TTGlyph name="afii10099" xMin="45" yMin="-120" xMax="477" yMax="739">
      <contour>
        <pt x="395" y="269" on="1"/>
        <pt x="326" y="346" on="1"/>
        <pt x="184" y="215" on="1"/>
        <pt x="184" y="46" on="1"/>
        <pt x="247" y="24" on="1"/>
        <pt x="253" y="-5" on="1"/>
        <pt x="58" y="-6" on="1"/>
        <pt x="52" y="24" on="1"/>
        <pt x="100" y="39" on="1"/>
        <pt x="111" y="501" on="1"/>
        <pt x="50" y="501" on="1"/>
        <pt x="45" y="580" on="1"/>
        <pt x="113" y="578" on="1"/>
        <pt x="115" y="631" on="1"/>
        <pt x="50" y="688" on="1"/>
        <pt x="125" y="739" on="1"/>
        <pt x="190" y="636" on="1"/>
        <pt x="188" y="577" on="1"/>
        <pt x="197" y="577" on="1"/>
        <pt x="365" y="575" on="1"/>
        <pt x="359" y="497" on="1"/>
        <pt x="228" y="501" on="1"/>
        <pt x="186" y="501" on="1"/>
        <pt x="179" y="282" on="1"/>
        <pt x="284" y="424" on="1"/>
        <pt x="416" y="385" on="1"/>
        <pt x="477" y="272" on="1"/>
        <pt x="474" y="58" on="1"/>
        <pt x="425" y="-53" on="1"/>
        <pt x="280" y="-120" on="1"/>
        <pt x="255" y="-59" on="1"/>
        <pt x="372" y="-14" on="1"/>
        <pt x="401" y="115" on="1"/>
      </contour>
    </TTGlyph>
    <TTGlyph name="afii10100" xMin="30" yMin="1" xMax="411" yMax="679">
      <contour>
        <pt x="411" y="419" on="1"/>
        <pt x="409" y="367" on="1"/>
        <pt x="331" y="379" on="1"/>
        <pt x="345" y="435" on="1"/>
        <pt x="177" y="431" on="1"/>
        <pt x="184" y="55" on="1"/>
        <pt x="245" y="37" on="1"/>
        <pt x="240" y="1" on="1"/>
        <pt x="34" y="1" on="1"/>
        <pt x="30" y="30" on="1"/>
        <pt x="91" y="51" on="1"/>
        <pt x="103" y="442" on="1"/>
        <pt x="49" y="476" on="1"/>
        <pt x="50" y="496" on="1"/>
        <pt x="406" y="510" on="1"/>
      </contour>
      <contour>
        <pt x="197" y="540" on="1"/>
        <pt x="240" y="679" on="1"/>
        <pt x="287" y="676" on="1"/>
        <pt x="331" y="679" on="1"/>
        <pt x="282" y="603" on="1"/>
        <pt x="240" y="540" on="1"/>
      </contour>
    </TTGlyph>
    <TTGlyph name="afii10101" xMin="40" yMin="-13" xMax="440" yMax="522">
      <contour>
        <pt x="47" y="325" on="1"/>
        <pt x="89" y="440" on="1"/>
        <pt x="154" y="493" on="1"/>
        <pt x="266" y="522" on="1"/>
        <pt x="404" y="459" on="1"/>
        <pt x="431" y="367" on="1"/>
        <pt x="358" y="348" on="1"/>
        <pt x="364" y="429" on="1"/>
        <pt x="261" y="473" on="1"/>
        <pt x="151" y="409" on="1"/>
        <pt x="111" y="313" on="1"/>
        <pt x="111" y="305" on="1"/>
        <pt x="210" y="289" on="1"/>
        <pt x="302" y="307" on="1"/>
        <pt x="300" y="246" on="1"/>
        <pt x="214" y="240" on="1"/>
        <pt x="119" y="244" on="1"/>
        <pt x="124" y="198" on="1"/>
        <pt x="136" y="125" on="1"/>
        <pt x="235" y="53" on="1"/>
        <pt x="383" y="104" on="1"/>
        <pt x="364" y="219" on="1"/>
        <pt x="429" y="215" on="1"/>
        <pt x="440" y="64" on="1"/>
        <pt x="225" y="-13" on="1"/>
        <pt x="62" y="86" on="1"/>
        <pt x="40" y="230" on="1"/>
      </contour>
    </TTGlyph>
    <TTGlyph name="afii10102" xMin="30" yMin="-6" xMax="443" yMax="522">
      <contour>
        <pt x="248" y="522" on="1"/>
        <pt x="360" y="476" on="1"/>
        <pt x="400" y="515" on="1"/>
        <pt x="443" y="485" on="1"/>
        <pt x="367" y="383" on="1"/>
        <pt x="331" y="417" on="1"/>
        <pt x="167" y="456" on="1"/>
        <pt x="114" y="394" on="1"/>
        <pt x="183" y="297" on="1"/>
        <pt x="384" y="247" on="1"/>
        <pt x="412" y="77" on="1"/>
        <pt x="280" y="-5" on="1"/>
        <pt x="104" y="35" on="1"/>
        <pt x="80" y="-6" on="1"/>
        <pt x="30" y="3" on="1"/>
        <pt x="64" y="108" on="1"/>
        <pt x="268" y="60" on="1"/>
        <pt x="331" y="107" on="1"/>
        <pt x="307" y="191" on="1"/>
        <pt x="93" y="264" on="1"/>
        <pt x="35" y="383" on="1"/>
        <pt x="83" y="494" on="1"/>
      </contour>
    </TTGlyph>
    <TTGlyph name="afii10103" xMin="30" yMin="-15" xMax="258" yMax="691">
      <contour>
        <pt x="258" y="-13" on="1"/>
        <pt x="58" y="-15" on="1"/>
        <pt x="53" y="14" on="1"/>
        <pt x="106" y="35" on="1"/>
        <pt x="110" y="458" on="1"/>
        <pt x="37" y="483" on="1"/>
        <pt x="30" y="508" on="1"/>
        <pt x="238" y="520" on="1"/>
        <pt x="248" y="500" on="1"/>
        <pt x="187" y="466" on="1"/>
        <pt x="183" y="36" on="1"/>
        <pt x="254" y="15" on="1"/>
      </contour>
      <contour>
        <pt x="121" y="584" on="1"/>
        <pt x="87" y="652" on="1"/>
        <pt x="128" y="691" on="1"/>
        <pt x="192" y="683" on="1"/>
        <pt x="197" y="616" on="1"/>
      </contour>
    </TTGlyph>
    <TTGlyph name="afii10104" xMin="-3" yMin="-15" xMax="258" yMax="691">
      <contour>
        <pt x="258" y="-13" on="1"/>
        <pt x="58" y="-15" on="1"/>
        <pt x="53" y="14" on="1"/>
        <pt x="106" y="35" on="1"/>
        <pt x="110" y="458" on="1"/>
        <pt x="37" y="483" on="1"/>
        <pt x="30" y="508" on="1"/>
        <pt x="238" y="520" on="1"/>
        <pt x="248" y="500" on="1"/>
        <pt x="187" y="466" on="1"/>
        <pt x="183" y="36" on="1"/>
        <pt x="254" y="15" on="1"/>
      </contour>
      <contour>
        <pt x="31" y="584" on="1"/>
        <pt x="-3" y="652" on="1"/>
        <pt x="38" y="691" on="1"/>
        <pt x="102" y="683" on="1"/>
        <pt x="107" y="616" on="1"/>
      </contour>
      <contour>
        <pt x="181" y="584" on="1"/>
        <pt x="147" y="652" on="1"/>
        <pt x="188" y="691" on="1"/>
        <pt x="252" y="683" on="1"/>
        <pt x="257" y="616" on="1"/>
      </contour>
    </TTGlyph>
    <TTGlyph name="afii10105" xMin="-70" yMin="-179" xMax="258" yMax="699">
      <contour>
        <pt x="192" y="458" on="1"/>
        <pt x="184" y="8" on="1"/>
        <pt x="135" y="-103" on="1"/>
        <pt x="-65" y="-179" on="1"/>
        <pt x="-70" y="-108" on="1"/>
        <pt x="82" y="-64" on="1"/>
        <pt x="111" y="65" on="1"/>
        <pt x="106" y="461" on="1"/>
        <pt x="53" y="478" on="1"/>
        <pt x="46" y="504" on="1"/>
        <pt x="250" y="515" on="1"/>
        <pt x="258" y="494" on="1"/>
      </contour>
      <contour>
        <pt x="146" y="579" on="1"/>
        <pt x="93" y="632" on="1"/>
        <pt x="111" y="699" on="1"/>
        <pt x="175" y="699" on="1"/>
        <pt x="204" y="657" on="1"/>
      </contour>
    </TTGlyph>
    <TTGlyph name="afii10106" xMin="0" yMin="-9" xMax="755" yMax="509">
      <contour>
        <pt x="505" y="509" on="1"/>
        <pt x="521" y="456" on="1"/>
        <pt x="464" y="442" on="1"/>
        <pt x="445" y="441" on="1"/>
        <pt x="443" y="283" on="1"/>
        <pt x="537" y="324" on="1"/>
        <pt x="660" y="293" on="1"/>
        <pt x="755" y="137" on="1"/>
        <pt x="671" y="2" on="1"/>
        <pt x="546" y="-1" on="1"/>
        <pt x="500" y="1" on="1"/>
        <pt x="501" y="-3" on="1"/>
        <pt x="307" y="1" on="1"/>
        <pt x="305" y="26" on="1"/>
        <pt x="366" y="50" on="1"/>
        <pt x="379" y="442" on="1"/>
        <pt x="323" y="442" on="1"/>
        <pt x="236" y="427" on="1"/>
        <pt x="213" y="290" on="1"/>
        <pt x="186" y="103" on="1"/>
        <pt x="146" y="13" on="1"/>
        <pt x="14" y="-9" on="1"/>
        <pt x="0" y="45" on="1"/>
        <pt x="79" y="67" on="1"/>
        <pt x="121" y="114" on="1"/>
        <pt x="149" y="303" on="1"/>
        <pt x="169" y="441" on="1"/>
        <pt x="94" y="462" on="1"/>
        <pt x="98" y="502" on="1"/>
        <pt x="295" y="493" on="1"/>
      </contour>
      <contour>
        <pt x="641" y="226" on="1"/>
        <pt x="545" y="267" on="1"/>
        <pt x="446" y="215" on="1"/>
        <pt x="444" y="71" on="1"/>
        <pt x="550" y="66" on="1"/>
        <pt x="636" y="69" on="1"/>
        <pt x="683" y="138" on="1"/>
      </contour>
    </TTGlyph>
    <TTGlyph name="afii10107" xMin="30" yMin="-43" xMax="766" yMax="510">
      <contour>
        <pt x="680" y="7" on="1"/>
        <pt x="551" y="4" on="1"/>
        <pt x="445" y="42" on="1"/>
        <pt x="451" y="3" on="1"/>
        <pt x="364" y="-43" on="1"/>
        <pt x="330" y="24" on="1"/>
        <pt x="375" y="33" on="1"/>
        <pt x="372" y="232" on="1"/>
        <pt x="160" y="232" on="1"/>
        <pt x="146" y="50" on="1"/>
        <pt x="215" y="28" on="1"/>
        <pt x="219" y="-4" on="1"/>
        <pt x="41" y="-2" on="1"/>
        <pt x="38" y="21" on="1"/>
        <pt x="102" y="47" on="1"/>
        <pt x="88" y="460" on="1"/>
        <pt x="30" y="481" on="1"/>
        <pt x="34" y="506" on="1"/>
        <pt x="215" y="506" on="1"/>
        <pt x="219" y="476" on="1"/>
        <pt x="163" y="459" on="1"/>
        <pt x="160" y="299" on="1"/>
        <pt x="371" y="296" on="1"/>
        <pt x="369" y="455" on="1"/>
        <pt x="333" y="458" on="1"/>
        <pt x="320" y="496" on="1"/>
        <pt x="502" y="510" on="1"/>
        <pt x="508" y="471" on="1"/>
        <pt x="439" y="451" on="1"/>
        <pt x="442" y="302" on="1"/>
        <pt x="679" y="295" on="1"/>
        <pt x="766" y="169" on="1"/>
      </contour>
      <contour>
        <pt x="650" y="228" on="1"/>
        <pt x="451" y="237" on="1"/>
        <pt x="449" y="106" on="1"/>
        <pt x="555" y="71" on="1"/>
        <pt x="635" y="74" on="1"/>
        <pt x="687" y="150" on="1"/>
      </contour>
    </TTGlyph>
    <TTGlyph name="afii10108" xMin="45" yMin="-27" xMax="607" yMax="739">
      <contour>
        <pt x="113" y="578" on="1"/>
        <pt x="115" y="631" on="1"/>
        <pt x="50" y="688" on="1"/>
        <pt x="125" y="739" on="1"/>
        <pt x="190" y="636" on="1"/>
        <pt x="188" y="577" on="1"/>
        <pt x="197" y="577" on="1"/>
        <pt x="365" y="575" on="1"/>
        <pt x="359" y="497" on="1"/>
        <pt x="228" y="501" on="1"/>
        <pt x="186" y="501" on="1"/>
        <pt x="179" y="282" on="1"/>
        <pt x="284" y="424" on="1"/>
        <pt x="416" y="385" on="1"/>
        <pt x="477" y="272" on="1"/>
        <pt x="463" y="44" on="1"/>
        <pt x="484" y="30" on="1"/>
        <pt x="553" y="140" on="1"/>
        <pt x="607" y="93" on="1"/>
        <pt x="490" y="-27" on="1"/>
        <pt x="406" y="10" on="1"/>
        <pt x="395" y="269" on="1"/>
        <pt x="326" y="346" on="1"/>
        <pt x="184" y="215" on="1"/>
        <pt x="184" y="46" on="1"/>
        <pt x="257" y="24" on="1"/>
        <pt x="263" y="-5" on="1"/>
        <pt x="68" y="-6" on="1"/>
        <pt x="62" y="24" on="1"/>
        <pt x="100" y="39" on="1"/>
        <pt x="111" y="501" on="1"/>
        <pt x="50" y="501" on="1"/>
        <pt x="45" y="580" on="1"/>
      </contour>
    </TTGlyph>
    <TTGlyph name="afii10109" xMin="30" yMin="-20" xMax="495" yMax="689">
      <contour>
        <pt x="495" y="45" on="1"/>
        <pt x="453" y="-20" on="1"/>
        <pt x="369" y="31" on="1"/>
        <pt x="234" y="250" on="1"/>
        <pt x="160" y="227" on="1"/>
        <pt x="158" y="50" on="1"/>
        <pt x="233" y="27" on="1"/>
        <pt x="239" y="0" on="1"/>
        <pt x="41" y="-5" on="1"/>
        <pt x="35" y="24" on="1"/>
        <pt x="85" y="45" on="1"/>
        <pt x="84" y="464" on="1"/>
        <pt x="30" y="481" on="1"/>
        <pt x="32" y="506" on="1"/>
        <pt x="234" y="509" on="1"/>
        <pt x="228" y="472" on="1"/>
        <pt x="160" y="458" on="1"/>
        <pt x="160" y="278" on="1"/>
        <pt x="231" y="293" on="1"/>
        <pt x="309" y="398" on="1"/>
        <pt x="375" y="521" on="1"/>
        <pt x="432" y="503" on="1"/>
        <pt x="358" y="363" on="1"/>
        <pt x="289" y="271" on="1"/>
        <pt x="427" y="84" on="1"/>
      </contour>
      <contour>
        <pt x="217" y="550" on="1"/>
        <pt x="260" y="689" on="1"/>
        <pt x="307" y="686" on="1"/>
        <pt x="351" y="689" on="1"/>
        <pt x="302" y="613" on="1"/>
        <pt x="260" y="550" on="1"/>
      </contour>
    </TTGlyph>
    <TTGlyph name="afii10110" xMin="0" yMin="-236" xMax="531" yMax="689">
      <contour>
        <pt x="479" y="465" on="1"/>
        <pt x="307" y="-157" on="1"/>
        <pt x="206" y="-236" on="1"/>
        <pt x="95" y="-210" on="1"/>
        <pt x="66" y="-203" on="1"/>
        <pt x="71" y="-85" on="1"/>
        <pt x="104" y="1" on="1"/>
        <pt x="164" y="-24" on="1"/>
        <pt x="115" y="-95" on="1"/>
        <pt x="125" y="-147" on="1"/>
        <pt x="197" y="-171" on="1"/>
        <pt x="247" y="-142" on="1"/>
        <pt x="267" y="-51" on="1"/>
        <pt x="282" y="38" on="1"/>
        <pt x="211" y="22" on="1"/>
        <pt x="58" y="444" on="1"/>
        <pt x="13" y="448" on="1"/>
        <pt x="0" y="492" on="1"/>
        <pt x="133" y="503" on="1"/>
        <pt x="178" y="293" on="1"/>
        <pt x="288" y="62" on="1"/>
        <pt x="397" y="467" on="1"/>
        <pt x="350" y="482" on="1"/>
        <pt x="353" y="509" on="1"/>
        <pt x="528" y="511" on="1"/>
        <pt x="531" y="486" on="1"/>
      </contour>
      <contour>
        <pt x="236" y="609" on="1"/>
        <pt x="259" y="597" on="1"/>
        <pt x="370" y="689" on="1"/>
        <pt x="436" y="629" on="1"/>
        <pt x="271" y="559" on="1"/>
        <pt x="236" y="559" on="1"/>
        <pt x="84" y="647" on="1"/>
        <pt x="134" y="680" on="1"/>
      </contour>
    </TTGlyph>
    <TTGlyph name="afii10145" xMin="30" yMin="-161" xMax="694" yMax="699">
      <contour>
        <pt x="634" y="75" on="1"/>
        <pt x="694" y="67" on="1"/>
        <pt x="679" y="-1" on="1"/>
        <pt x="643" y="9" on="1"/>
        <pt x="409" y="9" on="1"/>
        <pt x="394" y="-161" on="1"/>
        <pt x="345" y="-160" on="1"/>
        <pt x="327" y="7" on="1"/>
        <pt x="333" y="9" on="1"/>
        <pt x="88" y="9" on="1"/>
        <pt x="49" y="-1" on="1"/>
        <pt x="30" y="66" on="1"/>
        <pt x="96" y="75" on="1"/>
        <pt x="123" y="75" on="1"/>
        <pt x="116" y="643" on="1"/>
        <pt x="50" y="669" on="1"/>
        <pt x="53" y="695" on="1"/>
        <pt x="270" y="699" on="1"/>
        <pt x="265" y="661" on="1"/>
        <pt x="206" y="645" on="1"/>
        <pt x="204" y="76" on="1"/>
        <pt x="526" y="76" on="1"/>
        <pt x="526" y="645" on="1"/>
        <pt x="467" y="661" on="1"/>
        <pt x="461" y="699" on="1"/>
        <pt x="679" y="695" on="1"/>
        <pt x="666" y="669" on="1"/>
        <pt x="615" y="643" on="1"/>
        <pt x="607" y="75" on="1"/>
      </contour>
    </TTGlyph>
    <TTGlyph name="afii10193" xMin="30" yMin="-161" xMax="549" yMax="515">
      <contour>
        <pt x="500" y="54" on="1"/>
        <pt x="549" y="51" on="1"/>
        <pt x="539" y="-5" on="1"/>
        <pt x="509" y="3" on="1"/>
        <pt x="340" y="3" on="1"/>
        <pt x="326" y="-161" on="1"/>
        <pt x="277" y="-160" on="1"/>
        <pt x="259" y="3" on="1"/>
        <pt x="77" y="3" on="1"/>
        <pt x="47" y="-5" on="1"/>
        <pt x="30" y="50" on="1"/>
        <pt x="88" y="54" on="1"/>
        <pt x="102" y="57" on="1"/>
        <pt x="97" y="468" on="1"/>
        <pt x="43" y="489" on="1"/>
        <pt x="46" y="511" on="1"/>
        <pt x="223" y="515" on="1"/>
        <pt x="219" y="483" on="1"/>
        <pt x="179" y="472" on="1"/>
        <pt x="178" y="57" on="1"/>
        <pt x="408" y="57" on="1"/>
        <pt x="408" y="472" on="1"/>
        <pt x="368" y="483" on="1"/>
        <pt x="363" y="515" on="1"/>
        <pt x="542" y="511" on="1"/>
        <pt x="532" y="489" on="1"/>
        <pt x="491" y="468" on="1"/>
        <pt x="484" y="57" on="1"/>
      </contour>
    </TTGlyph>
    <TTGlyph name="afii61352" xMin="30" yMin="-4" xMax="1023" yMax="713">
      <contour>
        <pt x="673" y="37" on="1"/>
        <pt x="679" y="0" on="1"/>
        <pt x="470" y="3" on="1"/>
        <pt x="467" y="30" on="1"/>
        <pt x="516" y="49" on="1"/>
        <pt x="182" y="550" on="1"/>
        <pt x="185" y="50" on="1"/>
        <pt x="237" y="34" on="1"/>
        <pt x="242" y="-4" on="1"/>
        <pt x="33" y="0" on="1"/>
        <pt x="30" y="27" on="1"/>
        <pt x="113" y="58" on="1"/>
        <pt x="105" y="649" on="1"/>
        <pt x="41" y="665" on="1"/>
        <pt x="43" y="696" on="1"/>
        <pt x="257" y="697" on="1"/>
        <pt x="262" y="668" on="1"/>
        <pt x="205" y="650" on="1"/>
        <pt x="542" y="139" on="1"/>
        <pt x="549" y="651" on="1"/>
        <pt x="480" y="671" on="1"/>
        <pt x="481" y="699" on="1"/>
        <pt x="696" y="702" on="1"/>
        <pt x="701" y="673" on="1"/>
        <pt x="634" y="651" on="1"/>
        <pt x="602" y="60" on="1"/>
      </contour>
      <contour>
        <pt x="825" y="674" on="1"/>
        <pt x="778" y="594" on="1"/>
        <pt x="805" y="486" on="1"/>
        <pt x="879" y="439" on="1"/>
        <pt x="952" y="519" on="1"/>
        <pt x="966" y="621" on="1"/>
        <pt x="915" y="665" on="1"/>
      </contour>
      <contour>
        <pt x="952" y="704" on="1"/>
        <pt x="1023" y="630" on="1"/>
        <pt x="1011" y="479" on="1"/>
        <pt x="896" y="400" on="1"/>
        <pt x="784" y="426" on="1"/>
        <pt x="727" y="559" on="1"/>
        <pt x="760" y="678" on="1"/>
        <pt x="877" y="713" on="1"/>
      </contour>
      <contour>
        <pt x="793" y="345" on="1"/>
        <pt x="909" y="344" on="1"/>
        <pt x="1005" y="354" on="1"/>
        <pt x="995" y="292" on="1"/>
        <pt x="942" y="297" on="1"/>
        <pt x="803" y="302" on="1"/>
        <pt x="735" y="297" on="1"/>
        <pt x="735" y="347" on="1"/>
      </contour>
    </TTGlyph>
    <TTGlyph name="agrave" xMin="50" yMin="-25" xMax="499" yMax="701">
      <component glyphName=".ttfautohint" x="50" y="0" flags="0x0"/>
      <component glyphName="a" x="0" y="0" flags="0x204"/>
      <component glyphName="grave" x="157" y="-9" flags="0x4"/>
    </TTGlyph>
    <TTGlyph name="amacron" xMin="50" yMin="-25" xMax="499" yMax="645">
      <component glyphName=".ttfautohint" x="50" y="0" flags="0x0"/>
      <component glyphName="a" x="0" y="0" flags="0x204"/>
      <component glyphName="macron" x="130" y="-19" flags="0x4"/>
    </TTGlyph>
    <TTGlyph name="ampersand" xMin="20" yMin="-35" xMax="639" yMax="721">
      <contour>
        <pt x="585" y="51" on="1"/>
        <pt x="634" y="1" on="1"/>
        <pt x="523" y="-2" on="1"/>
        <pt x="461" y="70" on="1"/>
        <pt x="451" y="55" on="1"/>
        <pt x="269" y="-35" on="1"/>
        <pt x="86" y="41" on="1"/>
        <pt x="20" y="224" on="1"/>
        <pt x="142" y="371" on="1"/>
        <pt x="176" y="394" on="1"/>
        <pt x="106" y="543" on="1"/>
        <pt x="187" y="714" on="1"/>
        <pt x="379" y="721" on="1"/>
        <pt x="477" y="576" on="1"/>
        <pt x="424" y="487" on="1"/>
        <pt x="282" y="373" on="1"/>
        <pt x="281" y="373" on="1"/>
        <pt x="422" y="208" on="1"/>
        <pt x="455" y="175" on="1"/>
        <pt x="530" y="259" on="1"/>
        <pt x="533" y="401" on="1"/>
        <pt x="639" y="397" on="1"/>
        <pt x="589" y="250" on="1"/>
        <pt x="503" y="129" on="1"/>
      </contour>
      <contour>
        <pt x="229" y="432" on="1"/>
        <pt x="406" y="556" on="1"/>
        <pt x="355" y="646" on="1"/>
        <pt x="239" y="667" on="1"/>
        <pt x="190" y="571" on="1"/>
        <pt x="205" y="461" on="1"/>
      </contour>
      <contour>
        <pt x="412" y="128" on="1"/>
        <pt x="409" y="132" on="1"/>
        <pt x="222" y="326" on="1"/>
        <pt x="103" y="229" on="1"/>
        <pt x="127" y="114" on="1"/>
        <pt x="235" y="39" on="1"/>
        <pt x="381" y="93" on="1"/>
      </contour>
    </TTGlyph>
    <TTGlyph name="aogonek" xMin="50" yMin="-199" xMax="499" yMax="529">
      <contour>
        <pt x="408" y="4" on="1"/>
        <pt x="375" y="1" on="1"/>
        <pt x="333" y="89" on="1"/>
        <pt x="281" y="7" on="1"/>
        <pt x="112" y="-25" on="1"/>
        <pt x="50" y="50" on="1"/>
        <pt x="54" y="202" on="1"/>
        <pt x="225" y="313" on="1"/>
        <pt x="331" y="327" on="1"/>
        <pt x="339" y="436" on="1"/>
        <pt x="172" y="458" on="1"/>
        <pt x="123" y="373" on="1"/>
        <pt x="68" y="431" on="1"/>
        <pt x="78" y="456" on="1"/>
        <pt x="183" y="529" on="1"/>
        <pt x="409" y="476" on="1"/>
        <pt x="413" y="65" on="1"/>
        <pt x="498" y="59" on="1"/>
        <pt x="499" y="20" on="1"/>
        <pt x="499" y="0" on="1"/>
        <pt x="388" y="-50" on="1"/>
        <pt x="358" y="-90" on="1"/>
        <pt x="357" y="-125" on="1"/>
        <pt x="408" y="-150" on="1"/>
        <pt x="468" y="-140" on="1"/>
        <pt x="468" y="-190" on="1"/>
        <pt x="384" y="-199" on="1"/>
        <pt x="309" y="-161" on="1"/>
        <pt x="294" y="-90" on="1"/>
        <pt x="348" y="-20" on="1"/>
        <pt x="408" y="0" on="1"/>
      </contour>
      <contour>
        <pt x="247" y="259" on="1"/>
        <pt x="135" y="184" on="1"/>
        <pt x="132" y="72" on="1"/>
        <pt x="172" y="51" on="1"/>
        <pt x="192" y="52" on="0"/>
        <pt x="209" y="53" on="1"/>
        <pt x="223" y="54" on="0"/>
        <pt x="246" y="57" on="0"/>
        <pt x="246" y="59" on="1"/>
        <pt x="246" y="59" on="0"/>
        <pt x="254" y="71" on="0"/>
        <pt x="267" y="90" on="0"/>
        <pt x="283" y="113" on="0"/>
        <pt x="292" y="125" on="1"/>
        <pt x="312" y="153" on="0"/>
        <pt x="339" y="189" on="1"/>
        <pt x="332" y="262" on="1"/>
      </contour>
    </TTGlyph>
    <TTGlyph name="aring" xMin="50" yMin="-25" xMax="499" yMax="722">
      <component glyphName=".ttfautohint" x="50" y="0" flags="0x0"/>
      <component glyphName="a" x="0" y="0" flags="0x204"/>
      <component glyphName="ring" x="177" y="20" flags="0x4"/>
    </TTGlyph>
    <TTGlyph name="asciicircum" xMin="0" yMin="480" xMax="358" yMax="713">
      <contour>
        <pt x="80" y="480" on="1"/>
        <pt x="0" y="480" on="1"/>
        <pt x="137" y="713" on="1"/>
        <pt x="207" y="709" on="1"/>
        <pt x="358" y="480" on="1"/>
        <pt x="282" y="480" on="1"/>
        <pt x="169" y="641" on="1"/>
        <pt x="96" y="510" on="1"/>
      </contour>
    </TTGlyph>
    <TTGlyph name="asciitilde" xMin="0" yMin="250" xMax="525" yMax="429">
      <contour>
        <pt x="0" y="269" on="1"/>
        <pt x="57" y="400" on="1"/>
        <pt x="172" y="429" on="1"/>
        <pt x="368" y="323" on="1"/>
        <pt x="435" y="333" on="1"/>
        <pt x="448" y="422" on="1"/>
        <pt x="525" y="426" on="1"/>
        <pt x="494" y="319" on="1"/>
        <pt x="424" y="259" on="1"/>
        <pt x="350" y="250" on="1"/>
        <pt x="161" y="366" on="1"/>
        <pt x="98" y="355" on="1"/>
        <pt x="90" y="258" on="1"/>
      </contour>
    </TTGlyph>
    <TTGlyph name="asterisk" xMin="10" yMin="353" xMax="358" yMax="702">
      <contour>
        <pt x="233" y="693" on="1"/>
        <pt x="227" y="645" on="1"/>
        <pt x="216" y="572" on="1"/>
        <pt x="284" y="602" on="1"/>
        <pt x="337" y="621" on="1"/>
        <pt x="353" y="581" on="1"/>
        <pt x="358" y="530" on="1"/>
        <pt x="282" y="530" on="1"/>
        <pt x="226" y="518" on="1"/>
        <pt x="254" y="470" on="1"/>
        <pt x="314" y="416" on="1"/>
        <pt x="243" y="353" on="1"/>
        <pt x="228" y="393" on="1"/>
        <pt x="200" y="459" on="1"/>
        <pt x="183" y="485" on="1"/>
        <pt x="160" y="450" on="1"/>
        <pt x="125" y="355" on="1"/>
        <pt x="71" y="384" on="1"/>
        <pt x="48" y="410" on="1"/>
        <pt x="86" y="456" on="1"/>
        <pt x="140" y="517" on="1"/>
        <pt x="71" y="526" on="1"/>
        <pt x="10" y="527" on="1"/>
        <pt x="43" y="632" on="1"/>
        <pt x="107" y="589" on="1"/>
        <pt x="165" y="563" on="1"/>
        <pt x="160" y="622" on="1"/>
        <pt x="133" y="702" on="1"/>
      </contour>
    </TTGlyph>
    <TTGlyph name="at" xMin="30" yMin="-17" xMax="808" yMax="725">
      <contour>
        <pt x="423" y="202" on="1"/>
        <pt x="423" y="203" on="0"/>
        <pt x="447" y="234" on="0"/>
        <pt x="462" y="252" on="1"/>
        <pt x="502" y="300" on="1"/>
        <pt x="495" y="356" on="1"/>
        <pt x="420" y="347" on="1"/>
        <pt x="334" y="294" on="1"/>
        <pt x="331" y="202" on="1"/>
        <pt x="365" y="184" on="1"/>
        <pt x="381" y="187" on="0"/>
        <pt x="394" y="191" on="1"/>
        <pt x="405" y="194" on="0"/>
        <pt x="423" y="200" on="0"/>
      </contour>
      <contour>
        <pt x="766" y="258" on="1"/>
        <pt x="635" y="153" on="1"/>
        <pt x="533" y="143" on="1"/>
        <pt x="498" y="216" on="1"/>
        <pt x="458" y="132" on="1"/>
        <pt x="316" y="122" on="1"/>
        <pt x="252" y="181" on="1"/>
        <pt x="255" y="315" on="1"/>
        <pt x="406" y="414" on="1"/>
        <pt x="494" y="427" on="1"/>
        <pt x="488" y="496" on="1"/>
        <pt x="372" y="512" on="1"/>
        <pt x="323" y="450" on="1"/>
        <pt x="273" y="502" on="1"/>
        <pt x="279" y="523" on="1"/>
        <pt x="372" y="581" on="1"/>
        <pt x="560" y="536" on="1"/>
        <pt x="578" y="211" on="1"/>
        <pt x="625" y="190" on="1"/>
        <pt x="731" y="309" on="1"/>
        <pt x="738" y="471" on="1"/>
        <pt x="631" y="611" on="1"/>
        <pt x="420" y="669" on="1"/>
        <pt x="216" y="587" on="1"/>
        <pt x="94" y="386" on="1"/>
        <pt x="173" y="149" on="1"/>
        <pt x="371" y="46" on="1"/>
        <pt x="539" y="83" on="1"/>
        <pt x="564" y="12" on="1"/>
        <pt x="316" y="-17" on="1"/>
        <pt x="118" y="110" on="1"/>
        <pt x="30" y="384" on="1"/>
        <pt x="166" y="634" on="1"/>
        <pt x="352" y="717" on="1"/>
        <pt x="512" y="725" on="1"/>
        <pt x="680" y="642" on="1"/>
        <pt x="779" y="516" on="1"/>
        <pt x="808" y="347" on="1"/>
      </contour>
    </TTGlyph>
    <TTGlyph name="atilde" xMin="50" yMin="-25" xMax="499" yMax="685">
      <component glyphName=".ttfautohint" x="50" y="0" flags="0x0"/>
      <component glyphName="a" x="0" y="0" flags="0x204"/>
      <component glyphName="tilde" x="115" y="-19" flags="0x4"/>
    </TTGlyph>
    <TTGlyph name="b" xMin="30" yMin="8" xMax="509" yMax="770">
      <contour>
        <pt x="177" y="384" on="1"/>
        <pt x="173" y="91" on="1"/>
        <pt x="304" y="60" on="1"/>
        <pt x="420" y="216" on="1"/>
        <pt x="393" y="393" on="1"/>
        <pt x="295" y="425" on="1"/>
      </contour>
      <contour>
        <pt x="108" y="770" on="1"/>
        <pt x="149" y="687" on="1"/>
        <pt x="173" y="453" on="1"/>
        <pt x="305" y="489" on="1"/>
        <pt x="456" y="432" on="1"/>
        <pt x="509" y="210" on="1"/>
        <pt x="374" y="8" on="1"/>
        <pt x="146" y="17" on="1"/>
        <pt x="90" y="65" on="1"/>
        <pt x="85" y="642" on="1"/>
        <pt x="30" y="712" on="1"/>
      </contour>
    </TTGlyph>
    <TTGlyph name="backslash" xMin="0" yMin="-27" xMax="335" yMax="723">
      <contour>
        <pt x="0" y="707" on="1"/>
        <pt x="63" y="723" on="1"/>
        <pt x="335" y="-21" on="1"/>
        <pt x="266" y="-27" on="1"/>
        <pt x="68" y="545" on="1"/>
      </contour>
    </TTGlyph>
    <TTGlyph name="bar" xMin="60" yMin="-247" xMax="148" yMax="728">
      <contour>
        <pt x="138" y="712" on="1"/>
        <pt x="148" y="296" on="1"/>
        <pt x="136" y="-240" on="1"/>
        <pt x="72" y="-247" on="1"/>
        <pt x="80" y="298" on="1"/>
        <pt x="60" y="728" on="1"/>
      </contour>
    </TTGlyph>
    <TTGlyph name="braceleft" xMin="50" yMin="-200" xMax="293" yMax="812">
      <contour>
        <pt x="287" y="812" on="1"/>
        <pt x="279" y="744" on="1"/>
        <pt x="216" y="759" on="1"/>
        <pt x="162" y="704" on="1"/>
        <pt x="209" y="392" on="1"/>
        <pt x="126" y="324" on="1"/>
        <pt x="185" y="267" on="1"/>
        <pt x="166" y="-134" on="1"/>
        <pt x="279" y="-132" on="1"/>
        <pt x="293" y="-192" on="1"/>
        <pt x="118" y="-200" on="1"/>
        <pt x="99" y="-148" on="1"/>
        <pt x="118" y="229" on="1"/>
        <pt x="50" y="318" on="1"/>
        <pt x="50" y="346" on="1"/>
        <pt x="113" y="402" on="1"/>
        <pt x="118" y="654" on="1"/>
        <pt x="105" y="741" on="1"/>
        <pt x="176" y="809" on="1"/>
      </contour>
    </TTGlyph>
    <TTGlyph name="braceright" xMin="0" yMin="-200" xMax="239" yMax="817">
      <contour>
        <pt x="6" y="-200" on="1"/>
        <pt x="10" y="-132" on="1"/>
        <pt x="103" y="-147" on="1"/>
        <pt x="130" y="-92" on="1"/>
        <pt x="77" y="251" on="1"/>
        <pt x="161" y="319" on="1"/>
        <pt x="98" y="407" on="1"/>
        <pt x="113" y="754" on="1"/>
        <pt x="10" y="752" on="1"/>
        <pt x="0" y="811" on="1"/>
        <pt x="151" y="817" on="1"/>
        <pt x="193" y="767" on="1"/>
        <pt x="169" y="413" on="1"/>
        <pt x="239" y="325" on="1"/>
        <pt x="239" y="296" on="1"/>
        <pt x="172" y="242" on="1"/>
        <pt x="175" y="-43" on="1"/>
        <pt x="187" y="-128" on="1"/>
        <pt x="161" y="-197" on="1"/>
      </contour>
    </TTGlyph>
    <TTGlyph name="bracketleft" xMin="60" yMin="-204" xMax="278" yMax="820">
      <contour>
        <pt x="272" y="736" on="1"/>
        <pt x="140" y="742" on="1"/>
        <pt x="132" y="270" on="1"/>
        <pt x="156" y="-145" on="1"/>
        <pt x="272" y="-145" on="1"/>
        <pt x="278" y="-204" on="1"/>
        <pt x="239" y="-204" on="1"/>
        <pt x="60" y="-204" on="1"/>
        <pt x="72" y="266" on="1"/>
        <pt x="70" y="808" on="1"/>
        <pt x="150" y="804" on="1"/>
        <pt x="272" y="820" on="1"/>
      </contour>
    </TTGlyph>
    <TTGlyph name="bracketright" xMin="0" yMin="-200" xMax="205" yMax="816">
      <contour>
        <pt x="197" y="799" on="1"/>
        <pt x="205" y="769" on="1"/>
        <pt x="184" y="369" on="1"/>
        <pt x="197" y="-200" on="1"/>
        <pt x="105" y="-190" on="1"/>
        <pt x="9" y="-190" on="1"/>
        <pt x="9" y="-131" on="1"/>
        <pt x="141" y="-144" on="1"/>
        <pt x="119" y="360" on="1"/>
        <pt x="106" y="758" on="1"/>
        <pt x="9" y="747" on="1"/>
        <pt x="0" y="816" on="1"/>
      </contour>
    </TTGlyph>
    <TTGlyph name="breve" xMin="0" yMin="578" xMax="353" yMax="729">
      <contour>
        <pt x="160" y="627" on="1"/>
        <pt x="185" y="608" on="1"/>
        <pt x="287" y="729" on="1"/>
        <pt x="353" y="668" on="1"/>
        <pt x="193" y="578" on="1"/>
        <pt x="160" y="578" on="1"/>
        <pt x="0" y="685" on="1"/>
        <pt x="50" y="720" on="1"/>
      </contour>
    </TTGlyph>
    <TTGlyph name="brokenbar" xMin="60" yMin="-247" xMax="148" yMax="728">
      <contour>
        <pt x="138" y="712" on="1"/>
        <pt x="148" y="296" on="1"/>
        <pt x="148" y="287" on="1"/>
        <pt x="122" y="288" on="1"/>
        <pt x="80" y="289" on="1"/>
        <pt x="80" y="298" on="1"/>
        <pt x="60" y="728" on="1"/>
      </contour>
      <contour>
        <pt x="72" y="-247" on="1"/>
        <pt x="78" y="212" on="1"/>
        <pt x="146" y="212" on="1"/>
        <pt x="136" y="-240" on="1"/>
      </contour>
    </TTGlyph>
    <TTGlyph name="bullet" xMin="60" yMin="242" xMax="266" yMax="423">
      <contour>
        <pt x="211" y="421" on="1"/>
        <pt x="266" y="332" on="1"/>
        <pt x="210" y="242" on="1"/>
        <pt x="109" y="256" on="1"/>
        <pt x="60" y="337" on="1"/>
        <pt x="110" y="423" on="1"/>
      </contour>
    </TTGlyph>
    <TTGlyph name="c" xMin="52" yMin="-4" xMax="410" yMax="526">
      <contour>
        <pt x="410" y="4" on="1"/>
        <pt x="255" y="-4" on="1"/>
        <pt x="60" y="60" on="1"/>
        <pt x="52" y="307" on="1"/>
        <pt x="137" y="478" on="1"/>
        <pt x="278" y="526" on="1"/>
        <pt x="386" y="464" on="1"/>
        <pt x="332" y="323" on="1"/>
        <pt x="301" y="339" on="1"/>
        <pt x="332" y="432" on="1"/>
        <pt x="293" y="464" on="1"/>
        <pt x="293" y="464" on="1"/>
        <pt x="176" y="409" on="1"/>
        <pt x="122" y="285" on="1"/>
        <pt x="137" y="106" on="1"/>
        <pt x="255" y="60" on="1"/>
        <pt x="386" y="82" on="1"/>
      </contour>
    </TTGlyph>
    <TTGlyph name="cacute" xMin="52" yMin="-4" xMax="410" yMax="700">
      <component glyphName=".ttfautohint" x="52" y="0" flags="0x0"/>
      <component glyphName="c" x="0" y="0" flags="0x204"/>
      <component glyphName="acute" x="188" y="-9" flags="0x4"/>
    </TTGlyph>
    <TTGlyph name="caron" xMin="0" yMin="571" xMax="320" yMax="725">
      <contour>
        <pt x="170" y="572" on="1"/>
        <pt x="0" y="710" on="1"/>
        <pt x="50" y="717" on="1"/>
        <pt x="90" y="725" on="1"/>
        <pt x="167" y="637" on="1"/>
        <pt x="230" y="710" on="1"/>
        <pt x="277" y="707" on="1"/>
        <pt x="320" y="699" on="1"/>
        <pt x="171" y="571" on="1"/>
        <pt x="170" y="571" on="1"/>
      </contour>
    </TTGlyph>
    <TTGlyph name="ccaron" xMin="52" yMin="-4" xMax="410" yMax="696">
      <component glyphName=".ttfautohint" x="52" y="0" flags="0x0"/>
      <component glyphName="c" x="0" y="0" flags="0x204"/>
      <component glyphName="caron" x="65" y="-29" flags="0x4"/>
    </TTGlyph>
    <TTGlyph name="ccedilla" xMin="52" yMin="-199" xMax="410" yMax="526">
      <component glyphName=".ttfautohint" x="52" y="0" flags="0x0"/>
      <component glyphName="c" x="0" y="0" flags="0x204"/>
      <component glyphName="cedilla" x="128" y="0" flags="0x4"/>
    </TTGlyph>
    <TTGlyph name="cedilla" xMin="0" yMin="-199" xMax="193" yMax="28">
      <contour>
        <pt x="151" y="20" on="1"/>
        <pt x="127" y="-40" on="1"/>
        <pt x="193" y="-71" on="1"/>
        <pt x="162" y="-161" on="1"/>
        <pt x="87" y="-199" on="1"/>
        <pt x="0" y="-181" on="1"/>
        <pt x="23" y="-128" on="1"/>
        <pt x="64" y="-155" on="1"/>
        <pt x="114" y="-125" on="1"/>
        <pt x="113" y="-81" on="1"/>
        <pt x="44" y="-57" on="1"/>
        <pt x="111" y="28" on="1"/>
      </contour>
    </TTGlyph>
    <TTGlyph name="cent" xMin="50" yMin="-117" xMax="470" yMax="575">
      <contour>
        <pt x="456" y="2" on="1"/>
        <pt x="278" y="-11" on="1"/>
        <pt x="94" y="40" on="1"/>
        <pt x="50" y="289" on="1"/>
        <pt x="161" y="479" on="1"/>
        <pt x="300" y="527" on="1"/>
        <pt x="470" y="465" on="1"/>
        <pt x="412" y="322" on="1"/>
        <pt x="381" y="333" on="1"/>
        <pt x="412" y="433" on="1"/>
        <pt x="311" y="463" on="1"/>
        <pt x="311" y="463" on="1"/>
        <pt x="200" y="406" on="1"/>
        <pt x="139" y="275" on="1"/>
        <pt x="183" y="86" on="1"/>
        <pt x="288" y="72" on="1"/>
        <pt x="433" y="76" on="1"/>
      </contour>
      <contour>
        <pt x="323" y="570" on="1"/>
        <pt x="315" y="482" on="1"/>
        <pt x="318" y="103" on="1"/>
        <pt x="320" y="-117" on="1"/>
        <pt x="248" y="-117" on="1"/>
        <pt x="267" y="125" on="1"/>
        <pt x="263" y="437" on="1"/>
        <pt x="256" y="575" on="1"/>
      </contour>
    </TTGlyph>
    <TTGlyph name="circumflex" xMin="0" yMin="576" xMax="320" yMax="725">
      <contour>
        <pt x="150" y="724" on="1"/>
        <pt x="320" y="578" on="1"/>
        <pt x="270" y="579" on="1"/>
        <pt x="230" y="581" on="1"/>
        <pt x="153" y="659" on="1"/>
        <pt x="90" y="576" on="1"/>
        <pt x="43" y="579" on="1"/>
        <pt x="0" y="587" on="1"/>
        <pt x="149" y="725" on="1"/>
        <pt x="150" y="725" on="1"/>
      </contour>
    </TTGlyph>
    <TTGlyph name="colon" xMin="30" yMin="-13" xMax="174" yMax="482">
      <contour>
        <pt x="144" y="482" on="1"/>
        <pt x="174" y="413" on="1"/>
        <pt x="118" y="341" on="1"/>
        <pt x="30" y="396" on="1"/>
        <pt x="56" y="478" on="1"/>
      </contour>
      <contour>
        <pt x="86" y="117" on="1"/>
        <pt x="163" y="97" on="1"/>
        <pt x="165" y="6" on="1"/>
        <pt x="78" y="-13" on="1"/>
        <pt x="36" y="62" on="1"/>
      </contour>
    </TTGlyph>
    <TTGlyph name="comma" xMin="30" yMin="-112" xMax="169" yMax="120">
      <contour>
        <pt x="107" y="120" on="1"/>
        <pt x="169" y="68" on="1"/>
        <pt x="135" y="-22" on="1"/>
        <pt x="63" y="-112" on="1"/>
        <pt x="30" y="-104" on="1"/>
        <pt x="99" y="-5" on="1"/>
        <pt x="51" y="4" on="1"/>
        <pt x="38" y="90" on="1"/>
      </contour>
    </TTGlyph>
    <TTGlyph name="commaaccent" xMin="0" yMin="-102" xMax="115" yMax="90">
      <contour>
        <pt x="64" y="90" on="1"/>
        <pt x="115" y="47" on="1"/>
        <pt x="87" y="-28" on="1"/>
        <pt x="27" y="-102" on="1"/>
        <pt x="0" y="-95" on="1"/>
        <pt x="57" y="-13" on="1"/>
        <pt x="17" y="-6" on="1"/>
        <pt x="7" y="65" on="1"/>
      </contour>
    </TTGlyph>
    <TTGlyph name="copyright" xMin="30" yMin="-2" xMax="745" yMax="707">
      <contour>
        <pt x="209" y="626" on="1"/>
        <pt x="106" y="421" on="1"/>
        <pt x="104" y="221" on="1"/>
        <pt x="295" y="62" on="1"/>
        <pt x="522" y="65" on="1"/>
        <pt x="688" y="240" on="1"/>
        <pt x="679" y="500" on="1"/>
        <pt x="502" y="644" on="1"/>
      </contour>
      <contour>
        <pt x="550" y="688" on="1"/>
        <pt x="743" y="525" on="1"/>
        <pt x="745" y="217" on="1"/>
        <pt x="538" y="3" on="1"/>
        <pt x="281" y="-2" on="1"/>
        <pt x="46" y="175" on="1"/>
        <pt x="30" y="361" on="1"/>
        <pt x="108" y="626" on="1"/>
        <pt x="260" y="707" on="1"/>
      </contour>
      <contour>
        <pt x="545" y="131" on="1"/>
        <pt x="407" y="122" on="1"/>
        <pt x="232" y="177" on="1"/>
        <pt x="226" y="396" on="1"/>
        <pt x="306" y="550" on="1"/>
        <pt x="428" y="594" on="1"/>
        <pt x="525" y="536" on="1"/>
        <pt x="474" y="412" on="1"/>
        <pt x="446" y="421" on="1"/>
        <pt x="469" y="497" on="1"/>
        <pt x="433" y="525" on="1"/>
        <pt x="352" y="506" on="1"/>
        <pt x="306" y="382" on="1"/>
        <pt x="301" y="230" on="1"/>
        <pt x="412" y="184" on="1"/>
        <pt x="522" y="210" on="1"/>
      </contour>
    </TTGlyph>
    <TTGlyph name="currency" xMin="50" yMin="96" xMax="516" yMax="556">
      <contour>
        <pt x="394" y="273" on="1"/>
        <pt x="393" y="382" on="1"/>
        <pt x="313" y="450" on="1"/>
        <pt x="199" y="443" on="1"/>
        <pt x="153" y="349" on="1"/>
        <pt x="160" y="270" on="1"/>
        <pt x="235" y="202" on="1"/>
        <pt x="325" y="198" on="1"/>
      </contour>
      <contour>
        <pt x="431" y="230" on="1"/>
        <pt x="508" y="145" on="1"/>
        <pt x="462" y="96" on="1"/>
        <pt x="442" y="131" on="1"/>
        <pt x="394" y="189" on="1"/>
        <pt x="349" y="136" on="1"/>
        <pt x="217" y="133" on="1"/>
        <pt x="171" y="172" on="1"/>
        <pt x="162" y="162" on="0"/>
        <pt x="137" y="136" on="0"/>
        <pt x="126" y="124" on="1"/>
        <pt x="113" y="110" on="0"/>
        <pt x="100" y="96" on="1"/>
        <pt x="50" y="142" on="1"/>
        <pt x="125" y="211" on="1"/>
        <pt x="98" y="234" on="1"/>
        <pt x="89" y="321" on="1"/>
        <pt x="120" y="440" on="1"/>
        <pt x="57" y="497" on="1"/>
        <pt x="93" y="552" on="1"/>
        <pt x="158" y="491" on="1"/>
        <pt x="207" y="519" on="1"/>
        <pt x="356" y="509" on="1"/>
        <pt x="392" y="474" on="1"/>
        <pt x="467" y="556" on="1"/>
        <pt x="516" y="510" on="1"/>
        <pt x="433" y="434" on="1"/>
        <pt x="454" y="416" on="1"/>
        <pt x="455" y="259" on="1"/>
      </contour>
    </TTGlyph>
    <TTGlyph name="d" xMin="30" yMin="5" xMax="550" yMax="780">
      <contour>
        <pt x="358" y="399" on="1"/>
        <pt x="241" y="443" on="1"/>
        <pt x="134" y="408" on="1"/>
        <pt x="108" y="212" on="1"/>
        <pt x="197" y="65" on="1"/>
        <pt x="254" y="78" on="1"/>
        <pt x="353" y="182" on="1"/>
      </contour>
      <contour>
        <pt x="390" y="5" on="1"/>
        <pt x="349" y="96" on="1"/>
        <pt x="283" y="7" on="1"/>
        <pt x="131" y="16" on="1"/>
        <pt x="30" y="218" on="1"/>
        <pt x="90" y="452" on="1"/>
        <pt x="235" y="510" on="1"/>
        <pt x="369" y="455" on="1"/>
        <pt x="374" y="705" on="1"/>
        <pt x="437" y="780" on="1"/>
        <pt x="493" y="734" on="1"/>
        <pt x="451" y="699" on="1"/>
        <pt x="434" y="62" on="1"/>
        <pt x="530" y="80" on="1"/>
        <pt x="550" y="18" on="1"/>
      </contour>
    </TTGlyph>
    <TTGlyph name="dagger" xMin="0" yMin="-247" xMax="440" yMax="728">
      <contour>
        <pt x="248" y="712" on="1"/>
        <pt x="254" y="444" on="1"/>
        <pt x="382" y="444" on="1"/>
        <pt x="413" y="444" on="0"/>
        <pt x="440" y="445" on="1"/>
        <pt x="431" y="388" on="1"/>
        <pt x="256" y="388" on="1"/>
        <pt x="258" y="296" on="1"/>
        <pt x="246" y="-240" on="1"/>
        <pt x="182" y="-247" on="1"/>
        <pt x="190" y="298" on="1"/>
        <pt x="185" y="388" on="1"/>
        <pt x="2" y="388" on="1"/>
        <pt x="0" y="444" on="1"/>
        <pt x="151" y="444" on="1"/>
        <pt x="183" y="444" on="1"/>
        <pt x="170" y="728" on="1"/>
      </contour>
    </TTGlyph>
    <TTGlyph name="daggerdbl" xMin="0" yMin="-247" xMax="440" yMax="728">
      <contour>
        <pt x="146" y="56" on="1"/>
        <pt x="186" y="56" on="1"/>
        <pt x="190" y="298" on="1"/>
        <pt x="185" y="408" on="1"/>
        <pt x="2" y="408" on="1"/>
        <pt x="0" y="464" on="1"/>
        <pt x="183" y="464" on="1"/>
        <pt x="170" y="728" on="1"/>
        <pt x="248" y="712" on="1"/>
        <pt x="254" y="464" on="1"/>
        <pt x="382" y="464" on="1"/>
        <pt x="413" y="464" on="0"/>
        <pt x="440" y="465" on="1"/>
        <pt x="431" y="408" on="1"/>
        <pt x="256" y="408" on="1"/>
        <pt x="258" y="296" on="1"/>
        <pt x="252" y="56" on="1"/>
        <pt x="374" y="56" on="1"/>
        <pt x="403" y="56" on="0"/>
        <pt x="428" y="57" on="1"/>
        <pt x="431" y="0" on="1"/>
        <pt x="251" y="0" on="1"/>
        <pt x="246" y="-240" on="1"/>
        <pt x="182" y="-247" on="1"/>
        <pt x="185" y="0" on="1"/>
        <pt x="4" y="0" on="1"/>
        <pt x="1" y="56" on="1"/>
      </contour>
    </TTGlyph>
    <TTGlyph name="dcaron" xMin="30" yMin="5" xMax="640" yMax="780">
      <component glyphName=".ttfautohint" x="30" y="5" flags="0x0"/>
      <component glyphName="d" x="0" y="0" flags="0x4"/>
      <component glyphName="commaaccent" x="525" y="622" flags="0x4"/>
    </TTGlyph>
    <TTGlyph name="dcroat" xMin="30" yMin="5" xMax="555" yMax="780">
      <contour>
        <pt x="390" y="5" on="1"/>
        <pt x="349" y="96" on="1"/>
        <pt x="283" y="7" on="1"/>
        <pt x="131" y="16" on="1"/>
        <pt x="30" y="218" on="1"/>
        <pt x="90" y="452" on="1"/>
        <pt x="235" y="510" on="1"/>
        <pt x="369" y="455" on="1"/>
        <pt x="371" y="572" on="1"/>
        <pt x="240" y="572" on="1"/>
        <pt x="235" y="651" on="1"/>
        <pt x="373" y="648" on="1"/>
        <pt x="374" y="705" on="1"/>
        <pt x="437" y="780" on="1"/>
        <pt x="493" y="734" on="1"/>
        <pt x="451" y="699" on="1"/>
        <pt x="449" y="647" on="1"/>
        <pt x="555" y="646" on="1"/>
        <pt x="549" y="568" on="1"/>
        <pt x="447" y="571" on="1"/>
        <pt x="434" y="62" on="1"/>
        <pt x="530" y="80" on="1"/>
        <pt x="550" y="18" on="1"/>
      </contour>
      <contour>
        <pt x="358" y="399" on="1"/>
        <pt x="241" y="443" on="1"/>
        <pt x="134" y="408" on="1"/>
        <pt x="108" y="212" on="1"/>
        <pt x="197" y="65" on="1"/>
        <pt x="254" y="78" on="1"/>
        <pt x="353" y="182" on="1"/>
      </contour>
    </TTGlyph>
    <TTGlyph name="degree" xMin="30" yMin="423" xMax="297" yMax="702">
      <contour>
        <pt x="114" y="649" on="1"/>
        <pt x="77" y="542" on="1"/>
        <pt x="131" y="482" on="1"/>
        <pt x="227" y="511" on="1"/>
        <pt x="249" y="611" on="1"/>
        <pt x="191" y="657" on="1"/>
      </contour>
      <contour>
        <pt x="233" y="702" on="1"/>
        <pt x="297" y="630" on="1"/>
        <pt x="285" y="487" on="1"/>
        <pt x="145" y="423" on="1"/>
        <pt x="44" y="494" on="1"/>
        <pt x="30" y="602" on="1"/>
        <pt x="90" y="697" on="1"/>
      </contour>
    </TTGlyph>
    <TTGlyph name="dieresis" xMin="0" yMin="595" xMax="268" yMax="694">
      <contour>
        <pt x="268" y="673" on="1"/>
        <pt x="264" y="619" on="1"/>
        <pt x="208" y="595" on="1"/>
        <pt x="178" y="655" on="1"/>
        <pt x="206" y="686" on="1"/>
      </contour>
      <contour>
        <pt x="93" y="668" on="1"/>
        <pt x="97" y="620" on="1"/>
        <pt x="29" y="597" on="1"/>
        <pt x="0" y="650" on="1"/>
        <pt x="29" y="694" on="1"/>
      </contour>
    </TTGlyph>
    <TTGlyph name="divide" xMin="20" yMin="77" xMax="441" yMax="572">
      <contour>
        <pt x="441" y="355" on="1"/>
        <pt x="441" y="292" on="1"/>
        <pt x="351" y="297" on="1"/>
        <pt x="130" y="296" on="1"/>
        <pt x="20" y="296" on="1"/>
        <pt x="22" y="356" on="1"/>
        <pt x="137" y="353" on="1"/>
        <pt x="343" y="361" on="1"/>
      </contour>
      <contour>
        <pt x="264" y="572" on="1"/>
        <pt x="294" y="503" on="1"/>
        <pt x="238" y="431" on="1"/>
        <pt x="150" y="486" on="1"/>
        <pt x="176" y="568" on="1"/>
      </contour>
      <contour>
        <pt x="206" y="207" on="1"/>
        <pt x="283" y="187" on="1"/>
        <pt x="285" y="96" on="1"/>
        <pt x="198" y="77" on="1"/>
        <pt x="156" y="152" on="1"/>
      </contour>
    </TTGlyph>
</ttFont>
